<svg xmlns="http://www.w3.org/2000/svg" viewBox="0 0 355.97 36.97"><defs><style>.cls-1{fill:#fff;}.cls-2{fill:aqua;}.cls-3{fill:#ff0;}</style></defs><g id="图层_2" data-name="图层 2"><g id="麻将牌-左"><rect class="cls-1" x="325.46" y="9.9" width="20.62" height="26.77" rx="1.75"/><path d="M344.33,10.15a1.5,1.5,0,0,1,1.5,1.5V34.92a1.5,1.5,0,0,1-1.5,1.5H327.21a1.5,1.5,0,0,1-1.5-1.5V11.65a1.5,1.5,0,0,1,1.5-1.5h17.12m0-.5H327.21a2,2,0,0,0-2,2V34.92a2,2,0,0,0,2,2h17.12a2,2,0,0,0,2-2V11.65a2,2,0,0,0-2-2Z"/><rect class="cls-2" x="329.13" y="6.17" width="20.62" height="26.77" rx="1.75"/><path d="M348,6.42a1.5,1.5,0,0,1,1.5,1.5V31.19a1.5,1.5,0,0,1-1.5,1.5H330.88a1.5,1.5,0,0,1-1.5-1.5V7.92a1.5,1.5,0,0,1,1.5-1.5H348m0-.5H330.88a2,2,0,0,0-2,2V31.19a2,2,0,0,0,2,2H348a2,2,0,0,0,2-2V7.92a2,2,0,0,0-2-2Z"/><rect class="cls-1" x="304.52" y="9.9" width="20.62" height="26.77" rx="1.75"/><path d="M323.39,10.15a1.5,1.5,0,0,1,1.5,1.5V34.92a1.5,1.5,0,0,1-1.5,1.5H306.27a1.5,1.5,0,0,1-1.5-1.5V11.65a1.5,1.5,0,0,1,1.5-1.5h17.12m0-.5H306.27a2,2,0,0,0-2,2V34.92a2,2,0,0,0,2,2h17.12a2,2,0,0,0,2-2V11.65a2,2,0,0,0-2-2Z"/><rect class="cls-2" x="308.19" y="6.17" width="20.62" height="26.77" rx="1.75"/><path d="M327.06,6.42a1.5,1.5,0,0,1,1.5,1.5V31.19a1.5,1.5,0,0,1-1.5,1.5H309.94a1.5,1.5,0,0,1-1.5-1.5V7.92a1.5,1.5,0,0,1,1.5-1.5h17.12m0-.5H309.94a2,2,0,0,0-2,2V31.19a2,2,0,0,0,2,2h17.12a2,2,0,0,0,2-2V7.92a2,2,0,0,0-2-2Z"/><rect class="cls-1" x="284.26" y="9.85" width="20.62" height="26.77" rx="1.75"/><path d="M303.13,10.1a1.51,1.51,0,0,1,1.5,1.51V34.87a1.51,1.51,0,0,1-1.5,1.51H286a1.51,1.51,0,0,1-1.5-1.51V11.61A1.51,1.51,0,0,1,286,10.1h17.12m0-.5H286a2,2,0,0,0-2,2V34.87a2,2,0,0,0,2,2h17.12a2,2,0,0,0,2-2V11.61a2,2,0,0,0-2-2Z"/><rect class="cls-2" x="287.93" y="6.13" width="20.62" height="26.77" rx="1.75"/><path d="M306.79,6.38a1.51,1.51,0,0,1,1.51,1.5V31.15a1.51,1.51,0,0,1-1.51,1.5H289.68a1.5,1.5,0,0,1-1.5-1.5V7.88a1.5,1.5,0,0,1,1.5-1.5h17.11m0-.5H289.68a2,2,0,0,0-2,2V31.15a2,2,0,0,0,2,2h17.11a2,2,0,0,0,2-2V7.88a2,2,0,0,0-2-2Z"/><rect class="cls-1" x="263.99" y="9.93" width="20.62" height="26.77" rx="1.75"/><path d="M282.86,10.18a1.5,1.5,0,0,1,1.5,1.5V35a1.5,1.5,0,0,1-1.5,1.5H265.75a1.51,1.51,0,0,1-1.51-1.5V11.68a1.51,1.51,0,0,1,1.51-1.5h17.11m0-.5H265.75a2,2,0,0,0-2,2V35a2,2,0,0,0,2,2h17.11a2,2,0,0,0,2-2V11.68a2,2,0,0,0-2-2Z"/><rect class="cls-2" x="267.66" y="6.2" width="20.62" height="26.77" rx="1.75"/><path d="M286.53,6.45A1.5,1.5,0,0,1,288,8V31.22a1.5,1.5,0,0,1-1.5,1.5H269.41a1.5,1.5,0,0,1-1.5-1.5V8a1.5,1.5,0,0,1,1.5-1.5h17.12m0-.5H269.41a2,2,0,0,0-2,2V31.22a2,2,0,0,0,2,2h17.12a2,2,0,0,0,2-2V8a2,2,0,0,0-2-2Z"/><rect class="cls-1" x="243.73" y="9.88" width="20.62" height="26.77" rx="1.75"/><path d="M262.6,10.13a1.51,1.51,0,0,1,1.5,1.51V34.9a1.5,1.5,0,0,1-1.5,1.5H245.48a1.5,1.5,0,0,1-1.5-1.5V11.64a1.51,1.51,0,0,1,1.5-1.51H262.6m0-.5H245.48a2,2,0,0,0-2,2V34.9a2,2,0,0,0,2,2H262.6a2,2,0,0,0,2-2V11.64a2,2,0,0,0-2-2Z"/><rect class="cls-2" x="247.4" y="6.16" width="20.62" height="26.77" rx="1.75"/><path d="M266.27,6.4a1.51,1.51,0,0,1,1.5,1.51V31.17a1.51,1.51,0,0,1-1.5,1.51H249.15a1.51,1.51,0,0,1-1.5-1.51V7.91a1.51,1.51,0,0,1,1.5-1.51h17.12m0-.5H249.15a2,2,0,0,0-2,2V31.17a2,2,0,0,0,2,2h17.12a2,2,0,0,0,2-2V7.91a2,2,0,0,0-2-2Z"/><rect class="cls-1" x="223.05" y="9.91" width="20.62" height="26.77" rx="1.75"/><path d="M241.92,10.16a1.51,1.51,0,0,1,1.5,1.51V34.93a1.51,1.51,0,0,1-1.5,1.51H224.8a1.51,1.51,0,0,1-1.5-1.51V11.67a1.51,1.51,0,0,1,1.5-1.51h17.12m0-.5H224.8a2,2,0,0,0-2,2V34.93a2,2,0,0,0,2,2h17.12a2,2,0,0,0,2-2V11.67a2,2,0,0,0-2-2Z"/><rect class="cls-2" x="226.72" y="6.19" width="20.62" height="26.77" rx="1.75"/><path d="M245.58,6.44a1.51,1.51,0,0,1,1.51,1.5V31.2a1.52,1.52,0,0,1-1.51,1.51H228.47A1.51,1.51,0,0,1,227,31.2V7.94a1.5,1.5,0,0,1,1.5-1.5h17.11m0-.5H228.47a2,2,0,0,0-2,2V31.2a2,2,0,0,0,2,2h17.11a2,2,0,0,0,2-2V7.94a2,2,0,0,0-2-2Z"/><rect class="cls-1" x="202.79" y="9.87" width="20.62" height="26.77" rx="1.75"/><path d="M221.65,10.12a1.51,1.51,0,0,1,1.51,1.5V34.89a1.51,1.51,0,0,1-1.51,1.5H204.54a1.5,1.5,0,0,1-1.5-1.5V11.62a1.5,1.5,0,0,1,1.5-1.5h17.11m0-.5H204.54a2,2,0,0,0-2,2V34.89a2,2,0,0,0,2,2h17.11a2,2,0,0,0,2-2V11.62a2,2,0,0,0-2-2Z"/><rect class="cls-3" x="206.45" y="6.14" width="20.62" height="26.77" rx="1.75"/><path d="M225.32,6.39a1.5,1.5,0,0,1,1.5,1.5V31.16a1.5,1.5,0,0,1-1.5,1.5H208.21a1.51,1.51,0,0,1-1.51-1.5V7.89a1.51,1.51,0,0,1,1.51-1.5h17.11m0-.5H208.21a2,2,0,0,0-2,2V31.16a2,2,0,0,0,2,2h17.11a2,2,0,0,0,2-2V7.89a2,2,0,0,0-2-2Z"/><rect class="cls-1" x="182.52" y="9.94" width="20.62" height="26.77" rx="1.75"/><path d="M201.39,10.19a1.5,1.5,0,0,1,1.5,1.5V35a1.5,1.5,0,0,1-1.5,1.5H184.27a1.5,1.5,0,0,1-1.5-1.5V11.69a1.5,1.5,0,0,1,1.5-1.5h17.12m0-.5H184.27a2,2,0,0,0-2,2V35a2,2,0,0,0,2,2h17.12a2,2,0,0,0,2-2V11.69a2,2,0,0,0-2-2Z"/><rect class="cls-3" x="186.19" y="6.21" width="20.62" height="26.77" rx="1.75"/><path d="M205.05,6.46A1.52,1.52,0,0,1,206.56,8V31.23a1.52,1.52,0,0,1-1.51,1.51H187.94a1.51,1.51,0,0,1-1.5-1.51V8a1.51,1.51,0,0,1,1.5-1.51h17.11m0-.5H187.94a2,2,0,0,0-2,2V31.23a2,2,0,0,0,2,2h17.11a2,2,0,0,0,2-2V8a2,2,0,0,0-2-2Z"/><rect class="cls-1" x="162.26" y="9.9" width="20.62" height="26.77" rx="1.75"/><path d="M181.12,10.15a1.51,1.51,0,0,1,1.51,1.5V34.92a1.51,1.51,0,0,1-1.51,1.5H164a1.5,1.5,0,0,1-1.5-1.5V11.65a1.5,1.5,0,0,1,1.5-1.5h17.11m0-.5H164a2,2,0,0,0-2,2V34.92a2,2,0,0,0,2,2h17.11a2,2,0,0,0,2-2V11.65a2,2,0,0,0-2-2Z"/><rect class="cls-2" x="165.92" y="6.17" width="20.62" height="26.77" rx="1.75"/><path d="M184.79,6.42a1.51,1.51,0,0,1,1.51,1.5V31.19a1.51,1.51,0,0,1-1.51,1.5H167.68a1.5,1.5,0,0,1-1.5-1.5V7.92a1.5,1.5,0,0,1,1.5-1.5h17.11m0-.5H167.68a2,2,0,0,0-2,2V31.19a2,2,0,0,0,2,2h17.11a2,2,0,0,0,2-2V7.92a2,2,0,0,0-2-2Z"/><rect class="cls-1" x="142.51" y="9.91" width="20.62" height="26.77" rx="1.75"/><path d="M161.38,10.16a1.5,1.5,0,0,1,1.5,1.5V34.92a1.51,1.51,0,0,1-1.5,1.51H144.27a1.52,1.52,0,0,1-1.51-1.51V11.66a1.51,1.51,0,0,1,1.51-1.5h17.11m0-.5H144.27a2,2,0,0,0-2,2V34.92a2,2,0,0,0,2,2h17.11a2,2,0,0,0,2-2V11.66a2,2,0,0,0-2-2Z"/><rect class="cls-2" x="146.18" y="6.18" width="20.62" height="26.77" rx="1.75"/><path d="M165.05,6.43a1.5,1.5,0,0,1,1.5,1.5V31.2a1.5,1.5,0,0,1-1.5,1.5H147.94a1.51,1.51,0,0,1-1.51-1.5V7.93a1.51,1.51,0,0,1,1.51-1.5h17.11m0-.5H147.94a2,2,0,0,0-2,2V31.2a2,2,0,0,0,2,2h17.11a2,2,0,0,0,2-2V7.93a2,2,0,0,0-2-2Z"/><rect class="cls-1" x="122.25" y="9.86" width="20.62" height="26.77" rx="1.75"/><path d="M141.12,10.11a1.5,1.5,0,0,1,1.5,1.5V34.88a1.5,1.5,0,0,1-1.5,1.5H124a1.51,1.51,0,0,1-1.51-1.5V11.61a1.51,1.51,0,0,1,1.51-1.5h17.11m0-.5H124a2,2,0,0,0-2,2V34.88a2,2,0,0,0,2,2h17.11a2,2,0,0,0,2-2V11.61a2,2,0,0,0-2-2Z"/><rect class="cls-2" x="125.92" y="6.13" width="20.62" height="26.77" rx="1.75"/><path d="M144.79,6.38a1.51,1.51,0,0,1,1.5,1.51V31.15a1.51,1.51,0,0,1-1.5,1.51H127.67a1.51,1.51,0,0,1-1.5-1.51V7.89a1.51,1.51,0,0,1,1.5-1.51h17.12m0-.5H127.67a2,2,0,0,0-2,2V31.15a2,2,0,0,0,2,2h17.12a2,2,0,0,0,2-2V7.89a2,2,0,0,0-2-2Z"/><rect class="cls-1" x="101.99" y="9.93" width="20.62" height="26.77" rx="1.75"/><path d="M120.85,10.18a1.52,1.52,0,0,1,1.51,1.51V35a1.52,1.52,0,0,1-1.51,1.51H103.74a1.51,1.51,0,0,1-1.5-1.51V11.69a1.51,1.51,0,0,1,1.5-1.51h17.11m0-.5H103.74a2,2,0,0,0-2,2V35a2,2,0,0,0,2,2h17.11a2,2,0,0,0,2-2V11.69a2,2,0,0,0-2-2Z"/><rect class="cls-2" x="105.65" y="6.21" width="20.62" height="26.77" rx="1.75"/><path d="M124.52,6.46A1.5,1.5,0,0,1,126,8V31.23a1.5,1.5,0,0,1-1.5,1.5H107.41a1.51,1.51,0,0,1-1.51-1.5V8a1.51,1.51,0,0,1,1.51-1.5h17.11m0-.5H107.41a2,2,0,0,0-2,2V31.23a2,2,0,0,0,2,2h17.11a2,2,0,0,0,2-2V8a2,2,0,0,0-2-2Z"/><rect class="cls-1" x="81.72" y="9.89" width="20.62" height="26.77" rx="1.75"/><path d="M100.59,10.14a1.5,1.5,0,0,1,1.5,1.5V34.91a1.5,1.5,0,0,1-1.5,1.5H83.48A1.51,1.51,0,0,1,82,34.91V11.64a1.51,1.51,0,0,1,1.51-1.5h17.11m0-.5H83.48a2,2,0,0,0-2,2V34.91a2,2,0,0,0,2,2h17.11a2,2,0,0,0,2-2V11.64a2,2,0,0,0-2-2Z"/><rect class="cls-2" x="85.39" y="6.16" width="20.62" height="26.77" rx="1.75"/><path d="M104.26,6.41a1.51,1.51,0,0,1,1.5,1.51V31.18a1.5,1.5,0,0,1-1.5,1.5H87.14a1.5,1.5,0,0,1-1.5-1.5V7.92a1.51,1.51,0,0,1,1.5-1.51h17.12m0-.5H87.14a2,2,0,0,0-2,2V31.18a2,2,0,0,0,2,2h17.12a2,2,0,0,0,2-2V7.92a2,2,0,0,0-2-2Z"/><rect class="cls-1" x="61.04" y="9.92" width="20.62" height="26.77" rx="1.75"/><path d="M79.91,10.17a1.5,1.5,0,0,1,1.5,1.5V34.94a1.5,1.5,0,0,1-1.5,1.5H62.79a1.5,1.5,0,0,1-1.5-1.5V11.67a1.5,1.5,0,0,1,1.5-1.5H79.91m0-.5H62.79a2,2,0,0,0-2,2V34.94a2,2,0,0,0,2,2H79.91a2,2,0,0,0,2-2V11.67a2,2,0,0,0-2-2Z"/><rect class="cls-2" x="64.71" y="6.19" width="20.62" height="26.77" rx="1.75"/><path d="M83.58,6.44A1.51,1.51,0,0,1,85.08,8V31.21a1.5,1.5,0,0,1-1.5,1.5H66.46a1.5,1.5,0,0,1-1.5-1.5V8a1.51,1.51,0,0,1,1.5-1.51H83.58m0-.5H66.46a2,2,0,0,0-2,2V31.21a2,2,0,0,0,2,2H83.58a2,2,0,0,0,2-2V8a2,2,0,0,0-2-2Z"/><rect class="cls-1" x="40.78" y="9.87" width="20.62" height="26.77" rx="1.75"/><path d="M59.65,10.12a1.51,1.51,0,0,1,1.5,1.51V34.89a1.51,1.51,0,0,1-1.5,1.51H42.53A1.51,1.51,0,0,1,41,34.89V11.63a1.51,1.51,0,0,1,1.5-1.51H59.65m0-.5H42.53a2,2,0,0,0-2,2V34.89a2,2,0,0,0,2,2H59.65a2,2,0,0,0,2-2V11.63a2,2,0,0,0-2-2Z"/><rect class="cls-2" x="44.45" y="6.15" width="20.62" height="26.77" rx="1.75"/><path d="M63.31,6.4a1.51,1.51,0,0,1,1.51,1.5V31.17a1.51,1.51,0,0,1-1.51,1.5H46.2a1.5,1.5,0,0,1-1.5-1.5V7.9a1.5,1.5,0,0,1,1.5-1.5H63.31m0-.5H46.2a2,2,0,0,0-2,2V31.17a2,2,0,0,0,2,2H63.31a2,2,0,0,0,2-2V7.9a2,2,0,0,0-2-2Z"/><rect class="cls-1" x="20.51" y="9.95" width="20.62" height="26.77" rx="1.75"/><path d="M39.38,10.2a1.5,1.5,0,0,1,1.5,1.5V35a1.5,1.5,0,0,1-1.5,1.5H22.27A1.51,1.51,0,0,1,20.76,35V11.7a1.51,1.51,0,0,1,1.51-1.5H39.38m0-.5H22.27a2,2,0,0,0-2,2V35a2,2,0,0,0,2,2H39.38a2,2,0,0,0,2-2V11.7a2,2,0,0,0-2-2Z"/><rect class="cls-2" x="24.18" y="6.22" width="20.62" height="26.77" rx="1.75"/><path d="M43.05,6.47A1.5,1.5,0,0,1,44.55,8V31.24a1.5,1.5,0,0,1-1.5,1.5H25.93a1.5,1.5,0,0,1-1.5-1.5V8a1.51,1.51,0,0,1,1.5-1.5H43.05m0-.5H25.93a2,2,0,0,0-2,2V31.24a2,2,0,0,0,2,2H43.05a2,2,0,0,0,2-2V8a2,2,0,0,0-2-2Z"/><rect class="cls-1" x="0.25" y="9.9" width="20.62" height="26.77" rx="1.75"/><path d="M19.12,10.15a1.51,1.51,0,0,1,1.5,1.51V34.92a1.51,1.51,0,0,1-1.5,1.51H2A1.51,1.51,0,0,1,.5,34.92V11.66A1.51,1.51,0,0,1,2,10.15H19.12m0-.5H2a2,2,0,0,0-2,2V34.92a2,2,0,0,0,2,2H19.12a2,2,0,0,0,2-2V11.66a2,2,0,0,0-2-2Z"/><rect class="cls-2" x="3.92" y="6.18" width="20.62" height="26.77" rx="1.75"/><path d="M22.79,6.43a1.5,1.5,0,0,1,1.5,1.5V31.2a1.51,1.51,0,0,1-1.5,1.5H5.67a1.5,1.5,0,0,1-1.5-1.5V7.93a1.5,1.5,0,0,1,1.5-1.5H22.79m0-.5H5.67a2,2,0,0,0-2,2V31.2a2,2,0,0,0,2,2H22.79a2,2,0,0,0,2-2V7.93a2,2,0,0,0-2-2Z"/><rect class="cls-1" x="331.43" y="4.02" width="20.62" height="26.77" rx="1.75"/><path d="M350.3,4.27a1.5,1.5,0,0,1,1.5,1.5V29a1.5,1.5,0,0,1-1.5,1.5H333.18a1.5,1.5,0,0,1-1.5-1.5V5.77a1.5,1.5,0,0,1,1.5-1.5H350.3m0-.5H333.18a2,2,0,0,0-2,2V29a2,2,0,0,0,2,2H350.3a2,2,0,0,0,2-2V5.77a2,2,0,0,0-2-2Z"/><rect class="cls-2" x="335.1" y="0.29" width="20.62" height="26.77" rx="1.75"/><path d="M354,.54a1.52,1.52,0,0,1,1.51,1.51V25.31A1.52,1.52,0,0,1,354,26.82H336.85a1.51,1.51,0,0,1-1.5-1.51V2.05a1.51,1.51,0,0,1,1.5-1.51H354m0-.5H336.85a2,2,0,0,0-2,2V25.31a2,2,0,0,0,2,2H354a2,2,0,0,0,2-2V2.05a2,2,0,0,0-2-2Z"/><rect class="cls-1" x="310.49" y="4.02" width="20.62" height="26.77" rx="1.75"/><path d="M329.36,4.27a1.51,1.51,0,0,1,1.5,1.51V29a1.5,1.5,0,0,1-1.5,1.5H312.24a1.5,1.5,0,0,1-1.5-1.5V5.78a1.51,1.51,0,0,1,1.5-1.51h17.12m0-.5H312.24a2,2,0,0,0-2,2V29a2,2,0,0,0,2,2h17.12a2,2,0,0,0,2-2V5.78a2,2,0,0,0-2-2Z"/><rect class="cls-2" x="314.16" y="0.29" width="20.62" height="26.77" rx="1.75"/><path d="M333,.54a1.52,1.52,0,0,1,1.51,1.51V25.31A1.52,1.52,0,0,1,333,26.82H315.91a1.51,1.51,0,0,1-1.5-1.51V2.05a1.51,1.51,0,0,1,1.5-1.51H333m0-.5H315.91a2,2,0,0,0-2,2V25.31a2,2,0,0,0,2,2H333a2,2,0,0,0,2-2V2.05a2,2,0,0,0-2-2Z"/><rect class="cls-1" x="290.23" y="3.98" width="20.62" height="26.77" rx="1.75"/><path d="M309.09,4.23a1.51,1.51,0,0,1,1.51,1.5V29a1.51,1.51,0,0,1-1.51,1.5H292a1.5,1.5,0,0,1-1.5-1.5V5.73a1.5,1.5,0,0,1,1.5-1.5h17.11m0-.5H292a2,2,0,0,0-2,2V29a2,2,0,0,0,2,2h17.11a2,2,0,0,0,2-2V5.73a2,2,0,0,0-2-2Z"/><rect class="cls-2" x="293.9" y="0.25" width="20.62" height="26.77" rx="1.75"/><path d="M312.76.5A1.51,1.51,0,0,1,314.27,2V25.27a1.51,1.51,0,0,1-1.51,1.5H295.65a1.5,1.5,0,0,1-1.5-1.5V2a1.5,1.5,0,0,1,1.5-1.5h17.11m0-.5H295.65a2,2,0,0,0-2,2V25.27a2,2,0,0,0,2,2h17.11a2,2,0,0,0,2-2V2a2,2,0,0,0-2-2Z"/><rect class="cls-1" x="269.96" y="4.05" width="20.62" height="26.77" rx="1.75"/><path d="M288.83,4.3a1.5,1.5,0,0,1,1.5,1.5V29.07a1.5,1.5,0,0,1-1.5,1.5H271.71a1.5,1.5,0,0,1-1.5-1.5V5.8a1.5,1.5,0,0,1,1.5-1.5h17.12m0-.5H271.71a2,2,0,0,0-2,2V29.07a2,2,0,0,0,2,2h17.12a2,2,0,0,0,2-2V5.8a2,2,0,0,0-2-2Z"/><rect class="cls-2" x="273.63" y="0.32" width="20.62" height="26.77" rx="1.75"/><path d="M292.5.57A1.51,1.51,0,0,1,294,2.08V25.34a1.51,1.51,0,0,1-1.5,1.51H275.38a1.51,1.51,0,0,1-1.5-1.51V2.08a1.51,1.51,0,0,1,1.5-1.51H292.5m0-.5H275.38a2,2,0,0,0-2,2V25.34a2,2,0,0,0,2,2H292.5a2,2,0,0,0,2-2V2.08a2,2,0,0,0-2-2Z"/><rect class="cls-1" x="249.7" y="4.01" width="20.62" height="26.77" rx="1.75"/><path d="M268.56,4.26a1.51,1.51,0,0,1,1.51,1.5V29a1.51,1.51,0,0,1-1.51,1.5H251.45A1.5,1.5,0,0,1,250,29V5.76a1.5,1.5,0,0,1,1.5-1.5h17.11m0-.5H251.45a2,2,0,0,0-2,2V29a2,2,0,0,0,2,2h17.11a2,2,0,0,0,2-2V5.76a2,2,0,0,0-2-2Z"/><rect class="cls-2" x="253.37" y="0.28" width="20.62" height="26.77" rx="1.75"/><path d="M272.23.53A1.51,1.51,0,0,1,273.74,2V25.3a1.51,1.51,0,0,1-1.51,1.5H255.12a1.5,1.5,0,0,1-1.5-1.5V2a1.5,1.5,0,0,1,1.5-1.5h17.11m0-.5H255.12a2,2,0,0,0-2,2V25.3a2,2,0,0,0,2,2h17.11a2,2,0,0,0,2-2V2a2,2,0,0,0-2-2Z"/><rect class="cls-1" x="229.02" y="4.04" width="20.62" height="26.77" rx="1.75"/><path d="M247.88,4.29a1.51,1.51,0,0,1,1.51,1.5V29.06a1.51,1.51,0,0,1-1.51,1.5H230.77a1.5,1.5,0,0,1-1.5-1.5V5.79a1.5,1.5,0,0,1,1.5-1.5h17.11m0-.5H230.77a2,2,0,0,0-2,2V29.06a2,2,0,0,0,2,2h17.11a2,2,0,0,0,2-2V5.79a2,2,0,0,0-2-2Z"/><rect class="cls-2" x="232.69" y="0.31" width="20.62" height="26.77" rx="1.75"/><path d="M251.55.56a1.51,1.51,0,0,1,1.51,1.5V25.33a1.51,1.51,0,0,1-1.51,1.5H234.44a1.5,1.5,0,0,1-1.5-1.5V2.06a1.5,1.5,0,0,1,1.5-1.5h17.11m0-.5H234.44a2,2,0,0,0-2,2V25.33a2,2,0,0,0,2,2h17.11a2,2,0,0,0,2-2V2.06a2,2,0,0,0-2-2Z"/><rect class="cls-1" x="208.75" y="3.99" width="20.62" height="26.77" rx="1.75"/><path d="M227.62,4.24a1.5,1.5,0,0,1,1.5,1.5V29a1.5,1.5,0,0,1-1.5,1.5H210.51A1.51,1.51,0,0,1,209,29V5.74a1.51,1.51,0,0,1,1.51-1.5h17.11m0-.5H210.51a2,2,0,0,0-2,2V29a2,2,0,0,0,2,2h17.11a2,2,0,0,0,2-2V5.74a2,2,0,0,0-2-2Z"/><rect class="cls-3" x="212.42" y="0.26" width="20.62" height="26.77" rx="1.75"/><path d="M231.29.51A1.51,1.51,0,0,1,232.79,2V25.28a1.51,1.51,0,0,1-1.5,1.51H214.18a1.52,1.52,0,0,1-1.51-1.51V2A1.52,1.52,0,0,1,214.18.51h17.11m0-.5H214.18a2,2,0,0,0-2,2V25.28a2,2,0,0,0,2,2h17.11a2,2,0,0,0,2-2V2a2,2,0,0,0-2-2Z"/><rect class="cls-1" x="188.49" y="4.06" width="20.62" height="26.77" rx="1.75"/><path d="M207.35,4.31a1.52,1.52,0,0,1,1.51,1.51V29.08a1.52,1.52,0,0,1-1.51,1.51H190.24a1.51,1.51,0,0,1-1.5-1.51V5.82a1.51,1.51,0,0,1,1.5-1.51h17.11m0-.5H190.24a2,2,0,0,0-2,2V29.08a2,2,0,0,0,2,2h17.11a2,2,0,0,0,2-2V5.82a2,2,0,0,0-2-2Z"/><rect class="cls-3" x="192.16" y="0.34" width="20.62" height="26.77" rx="1.75"/><path d="M211,.59a1.51,1.51,0,0,1,1.51,1.5V25.36a1.51,1.51,0,0,1-1.51,1.5H193.91a1.5,1.5,0,0,1-1.5-1.5V2.09a1.5,1.5,0,0,1,1.5-1.5H211m0-.5H193.91a2,2,0,0,0-2,2V25.36a2,2,0,0,0,2,2H211a2,2,0,0,0,2-2V2.09a2,2,0,0,0-2-2Z"/><rect class="cls-1" x="168.22" y="4.02" width="20.62" height="26.77" rx="1.75"/><path d="M187.09,4.27a1.5,1.5,0,0,1,1.5,1.5V29a1.5,1.5,0,0,1-1.5,1.5H170a1.51,1.51,0,0,1-1.51-1.5V5.77A1.51,1.51,0,0,1,170,4.27h17.11m0-.5H170a2,2,0,0,0-2,2V29a2,2,0,0,0,2,2h17.11a2,2,0,0,0,2-2V5.77a2,2,0,0,0-2-2Z"/><rect class="cls-2" x="171.89" y="0.29" width="20.62" height="26.77" rx="1.75"/><path d="M190.76.54a1.51,1.51,0,0,1,1.5,1.51V25.31a1.51,1.51,0,0,1-1.5,1.51H173.65a1.52,1.52,0,0,1-1.51-1.51V2.05A1.52,1.52,0,0,1,173.65.54h17.11m0-.5H173.65a2,2,0,0,0-2,2V25.31a2,2,0,0,0,2,2h17.11a2,2,0,0,0,2-2V2.05a2,2,0,0,0-2-2Z"/><rect class="cls-1" x="148.48" y="4.03" width="20.62" height="26.77" rx="1.75"/><path d="M167.35,4.28a1.5,1.5,0,0,1,1.5,1.5V29.05a1.5,1.5,0,0,1-1.5,1.5H150.24a1.51,1.51,0,0,1-1.51-1.5V5.78a1.51,1.51,0,0,1,1.51-1.5h17.11m0-.5H150.24a2,2,0,0,0-2,2V29.05a2,2,0,0,0,2,2h17.11a2,2,0,0,0,2-2V5.78a2,2,0,0,0-2-2Z"/><rect class="cls-2" x="152.15" y="0.3" width="20.62" height="26.77" rx="1.75"/><path d="M171,.55a1.5,1.5,0,0,1,1.5,1.5V25.32a1.5,1.5,0,0,1-1.5,1.5H153.9a1.5,1.5,0,0,1-1.5-1.5V2.05a1.51,1.51,0,0,1,1.5-1.5H171m0-.5H153.9a2,2,0,0,0-2,2V25.32a2,2,0,0,0,2,2H171a2,2,0,0,0,2-2V2.05a2,2,0,0,0-2-2Z"/><rect class="cls-1" x="128.22" y="3.98" width="20.62" height="26.77" rx="1.75"/><path d="M147.09,4.23a1.51,1.51,0,0,1,1.5,1.51V29a1.51,1.51,0,0,1-1.5,1.51H130a1.51,1.51,0,0,1-1.5-1.51V5.74A1.51,1.51,0,0,1,130,4.23h17.12m0-.5H130a2,2,0,0,0-2,2V29a2,2,0,0,0,2,2h17.12a2,2,0,0,0,2-2V5.74a2,2,0,0,0-2-2Z"/><rect class="cls-2" x="131.89" y="0.26" width="20.62" height="26.77" rx="1.75"/><path d="M150.76.51a1.5,1.5,0,0,1,1.5,1.5V25.28a1.5,1.5,0,0,1-1.5,1.5H133.64a1.5,1.5,0,0,1-1.5-1.5V2a1.5,1.5,0,0,1,1.5-1.5h17.12m0-.5H133.64a2,2,0,0,0-2,2V25.28a2,2,0,0,0,2,2h17.12a2,2,0,0,0,2-2V2a2,2,0,0,0-2-2Z"/><rect class="cls-1" x="107.95" y="4.06" width="20.62" height="26.77" rx="1.75"/><path d="M126.82,4.31a1.5,1.5,0,0,1,1.5,1.5V29.08a1.5,1.5,0,0,1-1.5,1.5H109.71a1.51,1.51,0,0,1-1.51-1.5V5.81a1.51,1.51,0,0,1,1.51-1.5h17.11m0-.5H109.71a2,2,0,0,0-2,2V29.08a2,2,0,0,0,2,2h17.11a2,2,0,0,0,2-2V5.81a2,2,0,0,0-2-2Z"/><rect class="cls-2" x="111.62" y="0.33" width="20.62" height="26.77" rx="1.75"/><path d="M130.49.58a1.5,1.5,0,0,1,1.5,1.5V25.35a1.5,1.5,0,0,1-1.5,1.5H113.38a1.51,1.51,0,0,1-1.51-1.5V2.08a1.51,1.51,0,0,1,1.51-1.5h17.11m0-.5H113.38a2,2,0,0,0-2,2V25.35a2,2,0,0,0,2,2h17.11a2,2,0,0,0,2-2V2.08a2,2,0,0,0-2-2Z"/><rect class="cls-1" x="87.69" y="4.01" width="20.62" height="26.77" rx="1.75"/><path d="M106.56,4.26a1.51,1.51,0,0,1,1.5,1.51V29a1.51,1.51,0,0,1-1.5,1.51H89.44A1.51,1.51,0,0,1,87.94,29V5.77a1.51,1.51,0,0,1,1.5-1.51h17.12m0-.5H89.44a2,2,0,0,0-2,2V29a2,2,0,0,0,2,2h17.12a2,2,0,0,0,2-2V5.77a2,2,0,0,0-2-2Z"/><rect class="cls-2" x="91.36" y="0.29" width="20.62" height="26.77" rx="1.75"/><path d="M110.23.54a1.5,1.5,0,0,1,1.5,1.5V25.31a1.5,1.5,0,0,1-1.5,1.5H93.11a1.5,1.5,0,0,1-1.5-1.5V2a1.5,1.5,0,0,1,1.5-1.5h17.12m0-.5H93.11a2,2,0,0,0-2,2V25.31a2,2,0,0,0,2,2h17.12a2,2,0,0,0,2-2V2a2,2,0,0,0-2-2Z"/><rect class="cls-1" x="67.01" y="4.04" width="20.62" height="26.77" rx="1.75"/><path d="M85.88,4.29a1.51,1.51,0,0,1,1.5,1.51V29.06a1.51,1.51,0,0,1-1.5,1.51H68.76a1.51,1.51,0,0,1-1.5-1.51V5.8a1.51,1.51,0,0,1,1.5-1.51H85.88m0-.5H68.76a2,2,0,0,0-2,2V29.06a2,2,0,0,0,2,2H85.88a2,2,0,0,0,2-2V5.8a2,2,0,0,0-2-2Z"/><rect class="cls-2" x="70.68" y="0.32" width="20.62" height="26.77" rx="1.75"/><path d="M89.55.57a1.5,1.5,0,0,1,1.5,1.5V25.34a1.51,1.51,0,0,1-1.5,1.5H72.43a1.5,1.5,0,0,1-1.5-1.5V2.07a1.5,1.5,0,0,1,1.5-1.5H89.55m0-.5H72.43a2,2,0,0,0-2,2V25.34a2,2,0,0,0,2,2H89.55a2,2,0,0,0,2-2V2.07a2,2,0,0,0-2-2Z"/><rect class="cls-1" x="46.75" y="4" width="20.62" height="26.77" rx="1.75"/><path d="M65.61,4.25a1.51,1.51,0,0,1,1.51,1.5V29a1.51,1.51,0,0,1-1.51,1.5H48.5A1.5,1.5,0,0,1,47,29V5.75a1.5,1.5,0,0,1,1.5-1.5H65.61m0-.5H48.5a2,2,0,0,0-2,2V29a2,2,0,0,0,2,2H65.61a2,2,0,0,0,2-2V5.75a2,2,0,0,0-2-2Z"/><rect class="cls-2" x="50.42" y="0.27" width="20.62" height="26.77" rx="1.75"/><path d="M69.28.52A1.51,1.51,0,0,1,70.79,2V25.29a1.51,1.51,0,0,1-1.51,1.5H52.17a1.5,1.5,0,0,1-1.5-1.5V2a1.5,1.5,0,0,1,1.5-1.5H69.28m0-.5H52.17a2,2,0,0,0-2,2V25.29a2,2,0,0,0,2,2H69.28a2,2,0,0,0,2-2V2a2,2,0,0,0-2-2Z"/><rect class="cls-1" x="26.48" y="4.07" width="20.62" height="26.77" rx="1.75"/><path d="M45.35,4.32a1.51,1.51,0,0,1,1.5,1.51V29.09a1.5,1.5,0,0,1-1.5,1.5H28.23a1.5,1.5,0,0,1-1.5-1.5V5.83a1.51,1.51,0,0,1,1.5-1.51H45.35m0-.5H28.23a2,2,0,0,0-2,2V29.09a2,2,0,0,0,2,2H45.35a2,2,0,0,0,2-2V5.83a2,2,0,0,0-2-2Z"/><rect class="cls-2" x="30.15" y="0.34" width="20.62" height="26.77" rx="1.75"/><path d="M49,.59a1.51,1.51,0,0,1,1.5,1.51V25.36A1.51,1.51,0,0,1,49,26.87H31.9a1.51,1.51,0,0,1-1.5-1.51V2.1A1.51,1.51,0,0,1,31.9.59H49m0-.5H31.9a2,2,0,0,0-2,2V25.36a2,2,0,0,0,2,2H49a2,2,0,0,0,2-2V2.1a2,2,0,0,0-2-2Z"/><rect class="cls-1" x="6.22" y="4.03" width="20.62" height="26.77" rx="1.75"/><path d="M25.09,4.28a1.5,1.5,0,0,1,1.5,1.5V29.05a1.5,1.5,0,0,1-1.5,1.5H8a1.5,1.5,0,0,1-1.5-1.5V5.78A1.5,1.5,0,0,1,8,4.28H25.09m0-.5H8a2,2,0,0,0-2,2V29.05a2,2,0,0,0,2,2H25.09a2,2,0,0,0,2-2V5.78a2,2,0,0,0-2-2Z"/><rect class="cls-2" x="9.89" y="0.3" width="20.62" height="26.77" rx="1.75"/><path d="M28.75.55a1.51,1.51,0,0,1,1.51,1.5V25.32a1.51,1.51,0,0,1-1.51,1.5H11.64a1.5,1.5,0,0,1-1.5-1.5V2.05a1.5,1.5,0,0,1,1.5-1.5H28.75m0-.5H11.64a2,2,0,0,0-2,2V25.32a2,2,0,0,0,2,2H28.75a2,2,0,0,0,2-2V2.05a2,2,0,0,0-2-2Z"/></g></g></svg>