<svg xmlns="http://www.w3.org/2000/svg" viewBox="0 0 36.97 355.97"><defs><style>.cls-1{fill:#fff;}.cls-2{fill:aqua;}.cls-3{fill:#ff0;}</style></defs><g id="图层_2" data-name="图层 2"><g id="麻将牌-左"><rect class="cls-1" x="0.3" y="325.46" width="26.77" height="20.62" rx="1.75"/><path d="M25.32,325.71a1.5,1.5,0,0,1,1.5,1.5v17.12a1.5,1.5,0,0,1-1.5,1.5H2.05a1.5,1.5,0,0,1-1.5-1.5V327.21a1.51,1.51,0,0,1,1.5-1.5H25.32m0-.5H2.05a2,2,0,0,0-2,2v17.12a2,2,0,0,0,2,2H25.32a2,2,0,0,0,2-2V327.21a2,2,0,0,0-2-2Z"/><rect class="cls-2" x="4.03" y="329.13" width="26.77" height="20.62" rx="1.75"/><path d="M29.05,329.38a1.5,1.5,0,0,1,1.5,1.5V348a1.5,1.5,0,0,1-1.5,1.5H5.78a1.5,1.5,0,0,1-1.5-1.5V330.88a1.5,1.5,0,0,1,1.5-1.5H29.05m0-.5H5.78a2,2,0,0,0-2,2V348a2,2,0,0,0,2,2H29.05a2,2,0,0,0,2-2V330.88a2,2,0,0,0-2-2Z"/><rect class="cls-1" x="0.3" y="304.52" width="26.77" height="20.62" rx="1.75"/><path d="M25.32,304.77a1.5,1.5,0,0,1,1.5,1.5v17.12a1.5,1.5,0,0,1-1.5,1.5H2.05a1.5,1.5,0,0,1-1.5-1.5V306.27a1.5,1.5,0,0,1,1.5-1.5H25.32m0-.5H2.05a2,2,0,0,0-2,2v17.12a2,2,0,0,0,2,2H25.32a2,2,0,0,0,2-2V306.27a2,2,0,0,0-2-2Z"/><rect class="cls-2" x="4.03" y="308.19" width="26.77" height="20.62" rx="1.75"/><path d="M29.05,308.44a1.5,1.5,0,0,1,1.5,1.5v17.12a1.5,1.5,0,0,1-1.5,1.5H5.78a1.5,1.5,0,0,1-1.5-1.5V309.94a1.5,1.5,0,0,1,1.5-1.5H29.05m0-.5H5.78a2,2,0,0,0-2,2v17.12a2,2,0,0,0,2,2H29.05a2,2,0,0,0,2-2V309.94a2,2,0,0,0-2-2Z"/><rect class="cls-1" x="0.35" y="284.26" width="26.77" height="20.62" rx="1.75"/><path d="M25.36,284.51a1.51,1.51,0,0,1,1.51,1.5v17.12a1.51,1.51,0,0,1-1.51,1.5H2.1a1.51,1.51,0,0,1-1.51-1.5V286a1.51,1.51,0,0,1,1.51-1.5H25.36m0-.5H2.1a2,2,0,0,0-2,2v17.12a2,2,0,0,0,2,2H25.36a2,2,0,0,0,2-2V286a2,2,0,0,0-2-2Z"/><rect class="cls-2" x="4.07" y="287.93" width="26.77" height="20.62" rx="1.75"/><path d="M29.09,288.18a1.5,1.5,0,0,1,1.5,1.5v17.11a1.51,1.51,0,0,1-1.5,1.51H5.83a1.52,1.52,0,0,1-1.51-1.51V289.68a1.51,1.51,0,0,1,1.51-1.5H29.09m0-.5H5.83a2,2,0,0,0-2,2v17.11a2,2,0,0,0,2,2H29.09a2,2,0,0,0,2-2V289.68a2,2,0,0,0-2-2Z"/><rect class="cls-1" x="0.27" y="263.99" width="26.77" height="20.62" rx="1.75"/><path d="M25.29,264.24a1.51,1.51,0,0,1,1.5,1.51v17.11a1.5,1.5,0,0,1-1.5,1.5H2a1.5,1.5,0,0,1-1.5-1.5V265.75A1.51,1.51,0,0,1,2,264.24H25.29m0-.5H2a2,2,0,0,0-2,2v17.11a2,2,0,0,0,2,2H25.29a2,2,0,0,0,2-2V265.75a2,2,0,0,0-2-2Z"/><rect class="cls-2" x="4" y="267.66" width="26.77" height="20.62" rx="1.75"/><path d="M29,267.91a1.5,1.5,0,0,1,1.5,1.5v17.12A1.5,1.5,0,0,1,29,288H5.75a1.5,1.5,0,0,1-1.5-1.5V269.41a1.5,1.5,0,0,1,1.5-1.5H29m0-.5H5.75a2,2,0,0,0-2,2v17.12a2,2,0,0,0,2,2H29a2,2,0,0,0,2-2V269.41a2,2,0,0,0-2-2Z"/><rect class="cls-1" x="0.32" y="243.73" width="26.77" height="20.62" rx="1.75"/><path d="M25.34,244a1.5,1.5,0,0,1,1.5,1.5V262.6a1.5,1.5,0,0,1-1.5,1.5H2.07a1.5,1.5,0,0,1-1.5-1.5V245.48a1.5,1.5,0,0,1,1.5-1.5H25.34m0-.5H2.07a2,2,0,0,0-2,2V262.6a2,2,0,0,0,2,2H25.34a2,2,0,0,0,2-2V245.48a2,2,0,0,0-2-2Z"/><rect class="cls-2" x="4.04" y="247.4" width="26.77" height="20.62" rx="1.75"/><path d="M29.06,247.65a1.51,1.51,0,0,1,1.51,1.5v17.12a1.51,1.51,0,0,1-1.51,1.5H5.8a1.51,1.51,0,0,1-1.51-1.5V249.15a1.51,1.51,0,0,1,1.51-1.5H29.06m0-.5H5.8a2,2,0,0,0-2,2v17.12a2,2,0,0,0,2,2H29.06a2,2,0,0,0,2-2V249.15a2,2,0,0,0-2-2Z"/><rect class="cls-1" x="0.29" y="223.05" width="26.77" height="20.62" rx="1.75"/><path d="M25.31,223.3a1.5,1.5,0,0,1,1.5,1.5v17.12a1.51,1.51,0,0,1-1.5,1.5H2a1.5,1.5,0,0,1-1.5-1.5V224.8A1.5,1.5,0,0,1,2,223.3H25.31m0-.5H2a2,2,0,0,0-2,2v17.12a2,2,0,0,0,2,2H25.31a2,2,0,0,0,2-2V224.8a2,2,0,0,0-2-2Z"/><rect class="cls-2" x="4.01" y="226.72" width="26.77" height="20.62" rx="1.75"/><path d="M29,227a1.51,1.51,0,0,1,1.51,1.5v17.11A1.52,1.52,0,0,1,29,247.09H5.77a1.52,1.52,0,0,1-1.51-1.51V228.47A1.51,1.51,0,0,1,5.77,227H29m0-.5H5.77a2,2,0,0,0-2,2v17.11a2,2,0,0,0,2,2H29a2,2,0,0,0,2-2V228.47a2,2,0,0,0-2-2Z"/><rect class="cls-1" x="0.33" y="202.79" width="26.77" height="20.62" rx="1.75"/><path d="M25.35,203a1.5,1.5,0,0,1,1.5,1.5v17.11a1.51,1.51,0,0,1-1.5,1.51H2.08a1.51,1.51,0,0,1-1.5-1.51V204.54a1.5,1.5,0,0,1,1.5-1.5H25.35m0-.5H2.08a2,2,0,0,0-2,2v17.11a2,2,0,0,0,2,2H25.35a2,2,0,0,0,2-2V204.54a2,2,0,0,0-2-2Z"/><rect class="cls-2" x="4.06" y="206.45" width="26.77" height="20.62" rx="1.75"/><path d="M29.08,206.7a1.51,1.51,0,0,1,1.5,1.51v17.11a1.5,1.5,0,0,1-1.5,1.5H5.81a1.5,1.5,0,0,1-1.5-1.5V208.21a1.51,1.51,0,0,1,1.5-1.51H29.08m0-.5H5.81a2,2,0,0,0-2,2v17.11a2,2,0,0,0,2,2H29.08a2,2,0,0,0,2-2V208.21a2,2,0,0,0-2-2Z"/><rect class="cls-1" x="0.26" y="182.52" width="26.77" height="20.62" rx="1.75"/><path d="M25.28,182.77a1.5,1.5,0,0,1,1.5,1.5v17.12a1.5,1.5,0,0,1-1.5,1.5H2a1.5,1.5,0,0,1-1.5-1.5V184.27a1.5,1.5,0,0,1,1.5-1.5H25.28m0-.5H2a2,2,0,0,0-2,2v17.12a2,2,0,0,0,2,2H25.28a2,2,0,0,0,2-2V184.27a2,2,0,0,0-2-2Z"/><rect class="cls-2" x="3.98" y="186.19" width="26.77" height="20.62" rx="1.75"/><path d="M29,186.44a1.51,1.51,0,0,1,1.51,1.5v17.11A1.52,1.52,0,0,1,29,206.56H5.74a1.52,1.52,0,0,1-1.51-1.51V187.94a1.51,1.51,0,0,1,1.51-1.5H29m0-.5H5.74a2,2,0,0,0-2,2v17.11a2,2,0,0,0,2,2H29a2,2,0,0,0,2-2V187.94a2,2,0,0,0-2-2Z"/><rect class="cls-1" x="0.3" y="162.26" width="26.77" height="20.62" rx="1.75"/><path d="M25.32,162.51a1.5,1.5,0,0,1,1.5,1.5v17.11a1.51,1.51,0,0,1-1.5,1.51H2.05a1.51,1.51,0,0,1-1.5-1.51V164a1.5,1.5,0,0,1,1.5-1.5H25.32m0-.5H2.05a2,2,0,0,0-2,2v17.11a2,2,0,0,0,2,2H25.32a2,2,0,0,0,2-2V164a2,2,0,0,0-2-2Z"/><rect class="cls-2" x="4.03" y="165.93" width="26.77" height="20.62" rx="1.75"/><path d="M29.05,166.18a1.5,1.5,0,0,1,1.5,1.5v17.11a1.51,1.51,0,0,1-1.5,1.51H5.78a1.51,1.51,0,0,1-1.5-1.51V167.68a1.5,1.5,0,0,1,1.5-1.5H29.05m0-.5H5.78a2,2,0,0,0-2,2v17.11a2,2,0,0,0,2,2H29.05a2,2,0,0,0,2-2V167.68a2,2,0,0,0-2-2Z"/><rect class="cls-1" x="0.29" y="142.51" width="26.77" height="20.62" rx="1.75"/><path d="M25.31,142.76a1.52,1.52,0,0,1,1.51,1.51v17.11a1.51,1.51,0,0,1-1.51,1.5H2.05a1.51,1.51,0,0,1-1.51-1.5V144.27a1.52,1.52,0,0,1,1.51-1.51H25.31m0-.5H2.05a2,2,0,0,0-2,2v17.11a2,2,0,0,0,2,2H25.31a2,2,0,0,0,2-2V144.27a2,2,0,0,0-2-2Z"/><rect class="cls-2" x="4.02" y="146.18" width="26.77" height="20.62" rx="1.75"/><path d="M29,146.43a1.51,1.51,0,0,1,1.5,1.51v17.11a1.5,1.5,0,0,1-1.5,1.5H5.77a1.5,1.5,0,0,1-1.5-1.5V147.94a1.51,1.51,0,0,1,1.5-1.51H29m0-.5H5.77a2,2,0,0,0-2,2v17.11a2,2,0,0,0,2,2H29a2,2,0,0,0,2-2V147.94a2,2,0,0,0-2-2Z"/><rect class="cls-1" x="0.34" y="122.25" width="26.77" height="20.62" rx="1.75"/><path d="M25.36,122.5a1.51,1.51,0,0,1,1.5,1.51v17.11a1.5,1.5,0,0,1-1.5,1.5H2.09a1.5,1.5,0,0,1-1.5-1.5V124a1.51,1.51,0,0,1,1.5-1.51H25.36m0-.5H2.09a2,2,0,0,0-2,2v17.11a2,2,0,0,0,2,2H25.36a2,2,0,0,0,2-2V124a2,2,0,0,0-2-2Z"/><rect class="cls-3" x="4.06" y="125.92" width="26.77" height="20.62" rx="1.75"/><path d="M29.08,126.17a1.51,1.51,0,0,1,1.51,1.5v17.12a1.51,1.51,0,0,1-1.51,1.5H5.82a1.51,1.51,0,0,1-1.51-1.5V127.67a1.51,1.51,0,0,1,1.51-1.5H29.08m0-.5H5.82a2,2,0,0,0-2,2v17.12a2,2,0,0,0,2,2H29.08a2,2,0,0,0,2-2V127.67a2,2,0,0,0-2-2Z"/><rect class="cls-1" x="0.26" y="101.99" width="26.77" height="20.62" rx="1.75"/><path d="M25.28,102.24a1.51,1.51,0,0,1,1.51,1.5v17.11a1.52,1.52,0,0,1-1.51,1.51H2a1.52,1.52,0,0,1-1.51-1.51V103.74A1.51,1.51,0,0,1,2,102.24H25.28m0-.5H2a2,2,0,0,0-2,2v17.11a2,2,0,0,0,2,2H25.28a2,2,0,0,0,2-2V103.74a2,2,0,0,0-2-2Z"/><rect class="cls-3" x="3.99" y="105.65" width="26.77" height="20.62" rx="1.75"/><path d="M29,105.9a1.51,1.51,0,0,1,1.5,1.51v17.11A1.5,1.5,0,0,1,29,126H5.74a1.5,1.5,0,0,1-1.5-1.5V107.41a1.51,1.51,0,0,1,1.5-1.51H29m0-.5H5.74a2,2,0,0,0-2,2v17.11a2,2,0,0,0,2,2H29a2,2,0,0,0,2-2V107.41a2,2,0,0,0-2-2Z"/><rect class="cls-1" x="0.31" y="81.72" width="26.77" height="20.62" rx="1.75"/><path d="M25.33,82a1.51,1.51,0,0,1,1.5,1.51v17.11a1.5,1.5,0,0,1-1.5,1.5H2.06a1.5,1.5,0,0,1-1.5-1.5V83.48A1.51,1.51,0,0,1,2.06,82H25.33m0-.5H2.06a2,2,0,0,0-2,2v17.11a2,2,0,0,0,2,2H25.33a2,2,0,0,0,2-2V83.48a2,2,0,0,0-2-2Z"/><rect class="cls-2" x="4.04" y="85.39" width="26.77" height="20.62" rx="1.75"/><path d="M29.06,85.64a1.51,1.51,0,0,1,1.5,1.5v17.12a1.5,1.5,0,0,1-1.5,1.5H5.79a1.5,1.5,0,0,1-1.5-1.5V87.14a1.5,1.5,0,0,1,1.5-1.5H29.06m0-.5H5.79a2,2,0,0,0-2,2v17.12a2,2,0,0,0,2,2H29.06a2,2,0,0,0,2-2V87.14a2,2,0,0,0-2-2Z"/><rect class="cls-1" x="0.28" y="61.04" width="26.77" height="20.62" rx="1.75"/><path d="M25.3,61.29a1.5,1.5,0,0,1,1.5,1.5V79.91a1.5,1.5,0,0,1-1.5,1.5H2a1.5,1.5,0,0,1-1.5-1.5V62.79A1.5,1.5,0,0,1,2,61.29H25.3m0-.5H2a2,2,0,0,0-2,2V79.91a2,2,0,0,0,2,2H25.3a2,2,0,0,0,2-2V62.79a2,2,0,0,0-2-2Z"/><rect class="cls-2" x="4.01" y="64.71" width="26.77" height="20.62" rx="1.75"/><path d="M29,65a1.5,1.5,0,0,1,1.5,1.5V83.58a1.5,1.5,0,0,1-1.5,1.5H5.76a1.5,1.5,0,0,1-1.5-1.5V66.46A1.5,1.5,0,0,1,5.76,65H29m0-.5H5.76a2,2,0,0,0-2,2V83.58a2,2,0,0,0,2,2H29a2,2,0,0,0,2-2V66.46a2,2,0,0,0-2-2Z"/><rect class="cls-1" x="0.32" y="40.78" width="26.77" height="20.62" rx="1.75"/><path d="M25.34,41a1.51,1.51,0,0,1,1.51,1.5V59.65a1.51,1.51,0,0,1-1.51,1.5H2.08a1.51,1.51,0,0,1-1.51-1.5V42.53A1.51,1.51,0,0,1,2.08,41H25.34m0-.5H2.08a2,2,0,0,0-2,2V59.65a2,2,0,0,0,2,2H25.34a2,2,0,0,0,2-2V42.53a2,2,0,0,0-2-2Z"/><rect class="cls-2" x="4.05" y="44.45" width="26.77" height="20.62" rx="1.75"/><path d="M29.07,44.7a1.5,1.5,0,0,1,1.5,1.5V63.31a1.51,1.51,0,0,1-1.5,1.51H5.8a1.51,1.51,0,0,1-1.5-1.51V46.2a1.5,1.5,0,0,1,1.5-1.5H29.07m0-.5H5.8a2,2,0,0,0-2,2V63.31a2,2,0,0,0,2,2H29.07a2,2,0,0,0,2-2V46.2a2,2,0,0,0-2-2Z"/><rect class="cls-1" x="0.25" y="20.51" width="26.77" height="20.62" rx="1.75"/><path d="M25.27,20.76a1.51,1.51,0,0,1,1.5,1.51V39.38a1.5,1.5,0,0,1-1.5,1.5H2a1.5,1.5,0,0,1-1.5-1.5V22.27A1.51,1.51,0,0,1,2,20.76H25.27m0-.5H2a2,2,0,0,0-2,2V39.38a2,2,0,0,0,2,2H25.27a2,2,0,0,0,2-2V22.27a2,2,0,0,0-2-2Z"/><rect class="cls-2" x="3.98" y="24.18" width="26.77" height="20.62" rx="1.75"/><path d="M29,24.43a1.5,1.5,0,0,1,1.5,1.5V43.05a1.5,1.5,0,0,1-1.5,1.5H5.73a1.5,1.5,0,0,1-1.5-1.5V25.93a1.5,1.5,0,0,1,1.5-1.5H29m0-.5H5.73a2,2,0,0,0-2,2V43.05a2,2,0,0,0,2,2H29a2,2,0,0,0,2-2V25.93a2,2,0,0,0-2-2Z"/><rect class="cls-1" x="0.29" y="0.25" width="26.77" height="20.62" rx="1.75"/><path d="M25.31.5A1.51,1.51,0,0,1,26.82,2V19.12a1.51,1.51,0,0,1-1.51,1.5H2.05a1.51,1.51,0,0,1-1.51-1.5V2A1.51,1.51,0,0,1,2.05.5H25.31m0-.5H2.05A2,2,0,0,0,0,2V19.12a2,2,0,0,0,2,2H25.31a2,2,0,0,0,2-2V2a2,2,0,0,0-2-2Z"/><rect class="cls-2" x="4.02" y="3.92" width="26.77" height="20.62" rx="1.75"/><path d="M29,4.17a1.5,1.5,0,0,1,1.5,1.5V22.79a1.5,1.5,0,0,1-1.5,1.5H5.78a1.51,1.51,0,0,1-1.51-1.5V5.67a1.51,1.51,0,0,1,1.51-1.5H29m0-.5H5.78a2,2,0,0,0-2,2V22.79a2,2,0,0,0,2,2H29a2,2,0,0,0,2-2V5.67a2,2,0,0,0-2-2Z"/><rect class="cls-1" x="6.18" y="331.43" width="26.77" height="20.62" rx="1.75"/><path d="M31.2,331.68a1.5,1.5,0,0,1,1.5,1.5V350.3a1.5,1.5,0,0,1-1.5,1.5H7.93a1.5,1.5,0,0,1-1.5-1.5V333.18a1.5,1.5,0,0,1,1.5-1.5H31.2m0-.5H7.93a2,2,0,0,0-2,2V350.3a2,2,0,0,0,2,2H31.2a2,2,0,0,0,2-2V333.18a2,2,0,0,0-2-2Z"/><rect class="cls-2" x="9.9" y="335.1" width="26.77" height="20.62" rx="1.75"/><path d="M34.92,335.35a1.51,1.51,0,0,1,1.51,1.5V354a1.52,1.52,0,0,1-1.51,1.51H11.66A1.52,1.52,0,0,1,10.15,354V336.85a1.51,1.51,0,0,1,1.51-1.5H34.92m0-.5H11.66a2,2,0,0,0-2,2V354a2,2,0,0,0,2,2H34.92a2,2,0,0,0,2-2V336.85a2,2,0,0,0-2-2Z"/><rect class="cls-1" x="6.18" y="310.49" width="26.77" height="20.62" rx="1.75"/><path d="M31.2,310.74a1.5,1.5,0,0,1,1.5,1.5v17.12a1.5,1.5,0,0,1-1.5,1.5H7.93a1.5,1.5,0,0,1-1.5-1.5V312.24a1.5,1.5,0,0,1,1.5-1.5H31.2m0-.5H7.93a2,2,0,0,0-2,2v17.12a2,2,0,0,0,2,2H31.2a2,2,0,0,0,2-2V312.24a2,2,0,0,0-2-2Z"/><rect class="cls-2" x="9.9" y="314.16" width="26.77" height="20.62" rx="1.75"/><path d="M34.92,314.41a1.51,1.51,0,0,1,1.51,1.5V333a1.52,1.52,0,0,1-1.51,1.51H11.66A1.52,1.52,0,0,1,10.15,333V315.91a1.51,1.51,0,0,1,1.51-1.5H34.92m0-.5H11.66a2,2,0,0,0-2,2V333a2,2,0,0,0,2,2H34.92a2,2,0,0,0,2-2V315.91a2,2,0,0,0-2-2Z"/><rect class="cls-1" x="6.22" y="290.23" width="26.77" height="20.62" rx="1.75"/><path d="M31.24,290.48a1.5,1.5,0,0,1,1.5,1.5v17.11a1.51,1.51,0,0,1-1.5,1.51H8a1.51,1.51,0,0,1-1.5-1.51V292a1.5,1.5,0,0,1,1.5-1.5H31.24m0-.5H8a2,2,0,0,0-2,2v17.11a2,2,0,0,0,2,2H31.24a2,2,0,0,0,2-2V292a2,2,0,0,0-2-2Z"/><rect class="cls-2" x="9.95" y="293.9" width="26.77" height="20.62" rx="1.75"/><path d="M35,294.15a1.5,1.5,0,0,1,1.5,1.5v17.11a1.51,1.51,0,0,1-1.5,1.51H11.7a1.51,1.51,0,0,1-1.5-1.51V295.65a1.5,1.5,0,0,1,1.5-1.5H35m0-.5H11.7a2,2,0,0,0-2,2v17.11a2,2,0,0,0,2,2H35a2,2,0,0,0,2-2V295.65a2,2,0,0,0-2-2Z"/><rect class="cls-1" x="6.15" y="269.96" width="26.77" height="20.62" rx="1.75"/><path d="M31.17,270.21a1.5,1.5,0,0,1,1.5,1.5v17.12a1.5,1.5,0,0,1-1.5,1.5H7.9a1.5,1.5,0,0,1-1.5-1.5V271.71a1.5,1.5,0,0,1,1.5-1.5H31.17m0-.5H7.9a2,2,0,0,0-2,2v17.12a2,2,0,0,0,2,2H31.17a2,2,0,0,0,2-2V271.71a2,2,0,0,0-2-2Z"/><rect class="cls-2" x="9.88" y="273.63" width="26.77" height="20.62" rx="1.75"/><path d="M34.89,273.88a1.51,1.51,0,0,1,1.51,1.5V292.5a1.51,1.51,0,0,1-1.51,1.5H11.63a1.51,1.51,0,0,1-1.51-1.5V275.38a1.51,1.51,0,0,1,1.51-1.5H34.89m0-.5H11.63a2,2,0,0,0-2,2V292.5a2,2,0,0,0,2,2H34.89a2,2,0,0,0,2-2V275.38a2,2,0,0,0-2-2Z"/><rect class="cls-1" x="6.19" y="249.7" width="26.77" height="20.62" rx="1.75"/><path d="M31.21,250a1.5,1.5,0,0,1,1.5,1.5v17.11a1.51,1.51,0,0,1-1.5,1.51H8a1.52,1.52,0,0,1-1.51-1.51V251.45A1.51,1.51,0,0,1,8,250H31.21m0-.5H8a2,2,0,0,0-2,2v17.11a2,2,0,0,0,2,2H31.21a2,2,0,0,0,2-2V251.45a2,2,0,0,0-2-2Z"/><rect class="cls-2" x="9.92" y="253.37" width="26.77" height="20.62" rx="1.75"/><path d="M34.94,253.62a1.5,1.5,0,0,1,1.5,1.5v17.11a1.51,1.51,0,0,1-1.5,1.51H11.67a1.51,1.51,0,0,1-1.5-1.51V255.12a1.5,1.5,0,0,1,1.5-1.5H34.94m0-.5H11.67a2,2,0,0,0-2,2v17.11a2,2,0,0,0,2,2H34.94a2,2,0,0,0,2-2V255.12a2,2,0,0,0-2-2Z"/><rect class="cls-1" x="6.16" y="229.02" width="26.77" height="20.62" rx="1.75"/><path d="M31.18,229.27a1.5,1.5,0,0,1,1.5,1.5v17.11a1.51,1.51,0,0,1-1.5,1.51H7.92a1.52,1.52,0,0,1-1.51-1.51V230.77a1.51,1.51,0,0,1,1.51-1.5H31.18m0-.5H7.92a2,2,0,0,0-2,2v17.11a2,2,0,0,0,2,2H31.18a2,2,0,0,0,2-2V230.77a2,2,0,0,0-2-2Z"/><rect class="cls-2" x="9.89" y="232.69" width="26.77" height="20.62" rx="1.75"/><path d="M34.91,232.94a1.5,1.5,0,0,1,1.5,1.5v17.11a1.51,1.51,0,0,1-1.5,1.51H11.64a1.51,1.51,0,0,1-1.5-1.51V234.44a1.5,1.5,0,0,1,1.5-1.5H34.91m0-.5H11.64a2,2,0,0,0-2,2v17.11a2,2,0,0,0,2,2H34.91a2,2,0,0,0,2-2V234.44a2,2,0,0,0-2-2Z"/><rect class="cls-1" x="6.21" y="208.75" width="26.77" height="20.62" rx="1.75"/><path d="M31.23,209a1.51,1.51,0,0,1,1.5,1.51v17.11a1.5,1.5,0,0,1-1.5,1.5H8a1.5,1.5,0,0,1-1.5-1.5V210.51A1.51,1.51,0,0,1,8,209H31.23m0-.5H8a2,2,0,0,0-2,2v17.11a2,2,0,0,0,2,2H31.23a2,2,0,0,0,2-2V210.51a2,2,0,0,0-2-2Z"/><rect class="cls-2" x="9.93" y="212.42" width="26.77" height="20.62" rx="1.75"/><path d="M35,212.67a1.52,1.52,0,0,1,1.51,1.51v17.11a1.51,1.51,0,0,1-1.51,1.5H11.69a1.51,1.51,0,0,1-1.51-1.5V214.18a1.52,1.52,0,0,1,1.51-1.51H35m0-.5H11.69a2,2,0,0,0-2,2v17.11a2,2,0,0,0,2,2H35a2,2,0,0,0,2-2V214.18a2,2,0,0,0-2-2Z"/><rect class="cls-1" x="6.13" y="188.49" width="26.77" height="20.62" rx="1.75"/><path d="M31.15,188.74a1.51,1.51,0,0,1,1.51,1.5v17.11a1.52,1.52,0,0,1-1.51,1.51H7.89a1.52,1.52,0,0,1-1.51-1.51V190.24a1.51,1.51,0,0,1,1.51-1.5H31.15m0-.5H7.89a2,2,0,0,0-2,2v17.11a2,2,0,0,0,2,2H31.15a2,2,0,0,0,2-2V190.24a2,2,0,0,0-2-2Z"/><rect class="cls-2" x="9.86" y="192.16" width="26.77" height="20.62" rx="1.75"/><path d="M34.88,192.41a1.5,1.5,0,0,1,1.5,1.5V211a1.51,1.51,0,0,1-1.5,1.51H11.61a1.51,1.51,0,0,1-1.5-1.51V193.91a1.5,1.5,0,0,1,1.5-1.5H34.88m0-.5H11.61a2,2,0,0,0-2,2V211a2,2,0,0,0,2,2H34.88a2,2,0,0,0,2-2V193.91a2,2,0,0,0-2-2Z"/><rect class="cls-1" x="6.18" y="168.22" width="26.77" height="20.62" rx="1.75"/><path d="M31.2,168.47A1.51,1.51,0,0,1,32.7,170v17.11a1.5,1.5,0,0,1-1.5,1.5H7.93a1.5,1.5,0,0,1-1.5-1.5V170a1.51,1.51,0,0,1,1.5-1.51H31.2m0-.5H7.93a2,2,0,0,0-2,2v17.11a2,2,0,0,0,2,2H31.2a2,2,0,0,0,2-2V170a2,2,0,0,0-2-2Z"/><rect class="cls-2" x="9.91" y="171.89" width="26.77" height="20.62" rx="1.75"/><path d="M34.92,172.14a1.52,1.52,0,0,1,1.51,1.51v17.11a1.51,1.51,0,0,1-1.51,1.5H11.66a1.5,1.5,0,0,1-1.5-1.5V173.65a1.51,1.51,0,0,1,1.5-1.51H34.92m0-.5H11.66a2,2,0,0,0-2,2v17.11a2,2,0,0,0,2,2H34.92a2,2,0,0,0,2-2V173.65a2,2,0,0,0-2-2Z"/><rect class="cls-1" x="6.17" y="148.48" width="26.77" height="20.62" rx="1.75"/><path d="M31.19,148.73a1.51,1.51,0,0,1,1.5,1.51v17.11a1.5,1.5,0,0,1-1.5,1.5H7.92a1.5,1.5,0,0,1-1.5-1.5V150.24a1.51,1.51,0,0,1,1.5-1.51H31.19m0-.5H7.92a2,2,0,0,0-2,2v17.11a2,2,0,0,0,2,2H31.19a2,2,0,0,0,2-2V150.24a2,2,0,0,0-2-2Z"/><rect class="cls-2" x="9.9" y="152.15" width="26.77" height="20.62" rx="1.75"/><path d="M34.92,152.4a1.51,1.51,0,0,1,1.5,1.5V171a1.5,1.5,0,0,1-1.5,1.5H11.65a1.5,1.5,0,0,1-1.5-1.5V153.9a1.5,1.5,0,0,1,1.5-1.5H34.92m0-.5H11.65a2,2,0,0,0-2,2V171a2,2,0,0,0,2,2H34.92a2,2,0,0,0,2-2V153.9a2,2,0,0,0-2-2Z"/><rect class="cls-1" x="6.21" y="128.22" width="26.77" height="20.62" rx="1.75"/><path d="M31.23,128.47a1.51,1.51,0,0,1,1.51,1.5v17.12a1.51,1.51,0,0,1-1.51,1.5H8a1.51,1.51,0,0,1-1.51-1.5V130A1.51,1.51,0,0,1,8,128.47H31.23m0-.5H8a2,2,0,0,0-2,2v17.12a2,2,0,0,0,2,2H31.23a2,2,0,0,0,2-2V130a2,2,0,0,0-2-2Z"/><rect class="cls-3" x="9.94" y="131.89" width="26.77" height="20.62" rx="1.75"/><path d="M35,132.14a1.5,1.5,0,0,1,1.5,1.5v17.12a1.5,1.5,0,0,1-1.5,1.5H11.69a1.51,1.51,0,0,1-1.5-1.5V133.64a1.5,1.5,0,0,1,1.5-1.5H35m0-.5H11.69a2,2,0,0,0-2,2v17.12a2,2,0,0,0,2,2H35a2,2,0,0,0,2-2V133.64a2,2,0,0,0-2-2Z"/><rect class="cls-1" x="6.14" y="107.95" width="26.77" height="20.62" rx="1.75"/><path d="M31.16,108.2a1.51,1.51,0,0,1,1.5,1.51v17.11a1.5,1.5,0,0,1-1.5,1.5H7.89a1.5,1.5,0,0,1-1.5-1.5V109.71a1.51,1.51,0,0,1,1.5-1.51H31.16m0-.5H7.89a2,2,0,0,0-2,2v17.11a2,2,0,0,0,2,2H31.16a2,2,0,0,0,2-2V109.71a2,2,0,0,0-2-2Z"/><rect class="cls-3" x="9.87" y="111.62" width="26.77" height="20.62" rx="1.75"/><path d="M34.89,111.87a1.51,1.51,0,0,1,1.5,1.51v17.11a1.5,1.5,0,0,1-1.5,1.5H11.62a1.5,1.5,0,0,1-1.5-1.5V113.38a1.51,1.51,0,0,1,1.5-1.51H34.89m0-.5H11.62a2,2,0,0,0-2,2v17.11a2,2,0,0,0,2,2H34.89a2,2,0,0,0,2-2V113.38a2,2,0,0,0-2-2Z"/><rect class="cls-1" x="6.18" y="87.69" width="26.77" height="20.62" rx="1.75"/><path d="M31.2,87.94a1.51,1.51,0,0,1,1.51,1.5v17.12a1.51,1.51,0,0,1-1.51,1.5H7.94a1.5,1.5,0,0,1-1.5-1.5V89.44a1.5,1.5,0,0,1,1.5-1.5H31.2m0-.5H7.94a2,2,0,0,0-2,2v17.12a2,2,0,0,0,2,2H31.2a2,2,0,0,0,2-2V89.44a2,2,0,0,0-2-2Z"/><rect class="cls-2" x="9.91" y="91.36" width="26.77" height="20.62" rx="1.75"/><path d="M34.93,91.61a1.51,1.51,0,0,1,1.51,1.5v17.12a1.51,1.51,0,0,1-1.51,1.5H11.67a1.51,1.51,0,0,1-1.51-1.5V93.11a1.51,1.51,0,0,1,1.51-1.5H34.93m0-.5H11.67a2,2,0,0,0-2,2v17.12a2,2,0,0,0,2,2H34.93a2,2,0,0,0,2-2V93.11a2,2,0,0,0-2-2Z"/><rect class="cls-1" x="6.15" y="67.01" width="26.77" height="20.62" rx="1.75"/><path d="M31.17,67.26a1.51,1.51,0,0,1,1.51,1.5V85.88a1.51,1.51,0,0,1-1.51,1.5H7.91a1.51,1.51,0,0,1-1.51-1.5V68.76a1.51,1.51,0,0,1,1.51-1.5H31.17m0-.5H7.91a2,2,0,0,0-2,2V85.88a2,2,0,0,0,2,2H31.17a2,2,0,0,0,2-2V68.76a2,2,0,0,0-2-2Z"/><rect class="cls-2" x="9.88" y="70.68" width="26.77" height="20.62" rx="1.75"/><path d="M34.9,70.93a1.5,1.5,0,0,1,1.5,1.5V89.55a1.5,1.5,0,0,1-1.5,1.5H11.64a1.51,1.51,0,0,1-1.51-1.5V72.43a1.51,1.51,0,0,1,1.51-1.5H34.9m0-.5H11.64a2,2,0,0,0-2,2V89.55a2,2,0,0,0,2,2H34.9a2,2,0,0,0,2-2V72.43a2,2,0,0,0-2-2Z"/><rect class="cls-1" x="6.2" y="46.75" width="26.77" height="20.62" rx="1.75"/><path d="M31.22,47a1.5,1.5,0,0,1,1.5,1.5V65.61a1.51,1.51,0,0,1-1.5,1.51H8a1.51,1.51,0,0,1-1.5-1.51V48.5A1.5,1.5,0,0,1,8,47H31.22m0-.5H8a2,2,0,0,0-2,2V65.61a2,2,0,0,0,2,2H31.22a2,2,0,0,0,2-2V48.5a2,2,0,0,0-2-2Z"/><rect class="cls-2" x="9.93" y="50.42" width="26.77" height="20.62" rx="1.75"/><path d="M35,50.67a1.5,1.5,0,0,1,1.5,1.5V69.28A1.51,1.51,0,0,1,35,70.79H11.68a1.51,1.51,0,0,1-1.5-1.51V52.17a1.5,1.5,0,0,1,1.5-1.5H35m0-.5H11.68a2,2,0,0,0-2,2V69.28a2,2,0,0,0,2,2H35a2,2,0,0,0,2-2V52.17a2,2,0,0,0-2-2Z"/><rect class="cls-1" x="6.13" y="26.48" width="26.77" height="20.62" rx="1.75"/><path d="M31.15,26.73a1.51,1.51,0,0,1,1.5,1.5V45.35a1.5,1.5,0,0,1-1.5,1.5H7.88a1.5,1.5,0,0,1-1.5-1.5V28.23a1.5,1.5,0,0,1,1.5-1.5H31.15m0-.5H7.88a2,2,0,0,0-2,2V45.35a2,2,0,0,0,2,2H31.15a2,2,0,0,0,2-2V28.23a2,2,0,0,0-2-2Z"/><rect class="cls-2" x="9.85" y="30.15" width="26.77" height="20.62" rx="1.75"/><path d="M34.87,30.4a1.51,1.51,0,0,1,1.51,1.5V49a1.51,1.51,0,0,1-1.51,1.5H11.61A1.51,1.51,0,0,1,10.1,49V31.9a1.51,1.51,0,0,1,1.51-1.5H34.87m0-.5H11.61a2,2,0,0,0-2,2V49a2,2,0,0,0,2,2H34.87a2,2,0,0,0,2-2V31.9a2,2,0,0,0-2-2Z"/><rect class="cls-1" x="6.17" y="6.22" width="26.77" height="20.62" rx="1.75"/><path d="M31.19,6.47A1.5,1.5,0,0,1,32.69,8V25.09a1.5,1.5,0,0,1-1.5,1.5H7.92a1.51,1.51,0,0,1-1.5-1.5V8a1.5,1.5,0,0,1,1.5-1.5H31.19m0-.5H7.92a2,2,0,0,0-2,2V25.09a2,2,0,0,0,2,2H31.19a2,2,0,0,0,2-2V8a2,2,0,0,0-2-2Z"/><rect class="cls-2" x="9.9" y="9.89" width="26.77" height="20.62" rx="1.75"/><path d="M34.92,10.14a1.5,1.5,0,0,1,1.5,1.5V28.75a1.51,1.51,0,0,1-1.5,1.51H11.65a1.51,1.51,0,0,1-1.5-1.51V11.64a1.5,1.5,0,0,1,1.5-1.5H34.92m0-.5H11.65a2,2,0,0,0-2,2V28.75a2,2,0,0,0,2,2H34.92a2,2,0,0,0,2-2V11.64a2,2,0,0,0-2-2Z"/></g></g></svg>