<svg xmlns="http://www.w3.org/2000/svg" viewBox="0 0 100 100"><defs><style>.cls-1{fill:#fff;}.cls-2{fill:red;}</style></defs><g id="图层_2" data-name="图层 2"><g id="图层_1-2" data-name="图层 1"><rect class="cls-1" x="0.5" y="0.5" width="99" height="99" rx="20"/><path d="M79.5,1A19.53,19.53,0,0,1,99,20.5v59A19.53,19.53,0,0,1,79.5,99h-59A19.53,19.53,0,0,1,1,79.5v-59A19.53,19.53,0,0,1,20.5,1h59m0-1h-59A20.5,20.5,0,0,0,0,20.5v59A20.5,20.5,0,0,0,20.5,100h59A20.5,20.5,0,0,0,100,79.5v-59A20.5,20.5,0,0,0,79.5,0Z"/><circle class="cls-2" cx="50" cy="50" r="9.5"/><path d="M50,41a9,9,0,1,1-9,9,9,9,0,0,1,9-9m0-1A10,10,0,1,0,60,50,10,10,0,0,0,50,40Z"/></g></g></svg>