<svg xmlns="http://www.w3.org/2000/svg" viewBox="0 0 100 100"><defs><style>.cls-1{fill:#fff;}</style></defs><g id="图层_2" data-name="图层 2"><g id="图层_1-2" data-name="图层 1"><rect class="cls-1" x="0.5" y="0.5" width="99" height="99" rx="20"/><path d="M79.5,1A19.53,19.53,0,0,1,99,20.5v59A19.53,19.53,0,0,1,79.5,99h-59A19.53,19.53,0,0,1,1,79.5v-59A19.53,19.53,0,0,1,20.5,1h59m0-1h-59A20.5,20.5,0,0,0,0,20.5v59A20.5,20.5,0,0,0,20.5,100h59A20.5,20.5,0,0,0,100,79.5v-59A20.5,20.5,0,0,0,79.5,0Z"/><circle cx="65" cy="26" r="9.5"/><path d="M65,17a9,9,0,1,1-9,9,9,9,0,0,1,9-9m0-1A10,10,0,1,0,75,26,10,10,0,0,0,65,16Z"/><circle cx="65" cy="77" r="9.5"/><path d="M65,68a9,9,0,1,1-9,9,9,9,0,0,1,9-9m0-1A10,10,0,1,0,75,77,10,10,0,0,0,65,67Z"/><circle cx="65" cy="51" r="9.5"/><path d="M65,42a9,9,0,1,1-9,9,9,9,0,0,1,9-9m0-1A10,10,0,1,0,75,51,10,10,0,0,0,65,41Z"/><circle cx="36" cy="26" r="9.5"/><path d="M36,17a9,9,0,1,1-9,9,9,9,0,0,1,9-9m0-1A10,10,0,1,0,46,26,10,10,0,0,0,36,16Z"/><circle cx="36" cy="77" r="9.5"/><path d="M36,68a9,9,0,1,1-9,9,9,9,0,0,1,9-9m0-1A10,10,0,1,0,46,77,10,10,0,0,0,36,67Z"/><circle cx="36" cy="51" r="9.5"/><path d="M36,42a9,9,0,1,1-9,9,9,9,0,0,1,9-9m0-1A10,10,0,1,0,46,51,10,10,0,0,0,36,41Z"/></g></g></svg>