<svg xmlns="http://www.w3.org/2000/svg" viewBox="0 0 86.04 112.97"><defs><style>.cls-1{fill:none;stroke:#221815;}.cls-2{fill:#21983a;}.cls-3{fill:#d11228;}</style></defs><g id="图层_2" data-name="图层 2"><g id="图层_2-2" data-name="图层 2"><path class="cls-1" d="M85.54,106.73a5.7,5.7,0,0,1-5.66,5.74H6.16A5.7,5.7,0,0,1,.5,106.73V6.24A5.7,5.7,0,0,1,6.16.5H79.88a5.7,5.7,0,0,1,5.66,5.74Z"/><path class="cls-2" d="M32.13,16A10.73,10.73,0,1,0,42.86,26.76,10.73,10.73,0,0,0,32.13,16Zm0,17.94a7.21,7.21,0,1,1,7.21-7.21A7.21,7.21,0,0,1,32.13,34Z"/><path class="cls-2" d="M32.13,21.56a5.2,5.2,0,1,0,5.19,5.2A5.19,5.19,0,0,0,32.13,21.56Zm0,8.53a3.34,3.34,0,1,1,3.33-3.33A3.33,3.33,0,0,1,32.13,30.09Z"/><path class="cls-2" d="M32.13,25.32a1.44,1.44,0,1,1-1.44,1.44A1.44,1.44,0,0,1,32.13,25.32Z"/><path class="cls-2" d="M53.91,16A10.73,10.73,0,1,0,64.64,26.76,10.72,10.72,0,0,0,53.91,16Zm0,17.94a7.21,7.21,0,1,1,7.21-7.21A7.21,7.21,0,0,1,53.91,34Z"/><path class="cls-2" d="M53.91,21.56a5.2,5.2,0,1,0,5.19,5.2A5.19,5.19,0,0,0,53.91,21.56Zm0,8.53a3.34,3.34,0,1,1,3.33-3.33A3.34,3.34,0,0,1,53.91,30.09Z"/><path class="cls-2" d="M53.91,25.32a1.44,1.44,0,1,1-1.44,1.44A1.44,1.44,0,0,1,53.91,25.32Z"/><path class="cls-3" d="M32.13,55.5A10.73,10.73,0,1,0,42.86,66.23,10.74,10.74,0,0,0,32.13,55.5Zm0,17.94a7.21,7.21,0,1,1,7.21-7.21A7.21,7.21,0,0,1,32.13,73.44Z"/><path class="cls-3" d="M32.13,61a5.2,5.2,0,1,0,5.19,5.19A5.19,5.19,0,0,0,32.13,61Zm0,8.53a3.34,3.34,0,1,1,3.33-3.34A3.34,3.34,0,0,1,32.13,69.57Z"/><path class="cls-3" d="M32.13,64.8a1.44,1.44,0,1,1-1.44,1.43A1.44,1.44,0,0,1,32.13,64.8Z"/><path class="cls-3" d="M53.91,55.5A10.73,10.73,0,1,0,64.64,66.23,10.73,10.73,0,0,0,53.91,55.5Zm0,17.94a7.21,7.21,0,1,1,7.21-7.21A7.21,7.21,0,0,1,53.91,73.44Z"/><path class="cls-3" d="M53.91,61a5.2,5.2,0,1,0,5.19,5.19A5.19,5.19,0,0,0,53.91,61Zm0,8.53a3.34,3.34,0,1,1,3.33-3.34A3.35,3.35,0,0,1,53.91,69.57Z"/><path class="cls-3" d="M53.91,64.8a1.44,1.44,0,1,1-1.44,1.43A1.44,1.44,0,0,1,53.91,64.8Z"/><path class="cls-3" d="M32.13,75.48A10.73,10.73,0,1,0,42.86,86.21,10.73,10.73,0,0,0,32.13,75.48Zm0,17.94a7.21,7.21,0,1,1,7.21-7.21A7.21,7.21,0,0,1,32.13,93.42Z"/><path class="cls-3" d="M32.13,81a5.19,5.19,0,1,0,5.19,5.19A5.19,5.19,0,0,0,32.13,81Zm0,8.52a3.33,3.33,0,1,1,3.33-3.33A3.33,3.33,0,0,1,32.13,89.54Z"/><path class="cls-3" d="M32.13,84.77a1.44,1.44,0,1,1-1.44,1.44A1.45,1.45,0,0,1,32.13,84.77Z"/><path class="cls-3" d="M53.91,75.48A10.73,10.73,0,1,0,64.64,86.21,10.72,10.72,0,0,0,53.91,75.48Zm0,17.94a7.21,7.21,0,1,1,7.21-7.21A7.21,7.21,0,0,1,53.91,93.42Z"/><path class="cls-3" d="M53.91,81a5.19,5.19,0,1,0,5.19,5.19A5.19,5.19,0,0,0,53.91,81Zm0,8.52a3.33,3.33,0,1,1,3.33-3.33A3.34,3.34,0,0,1,53.91,89.54Z"/><path class="cls-3" d="M53.91,84.77a1.44,1.44,0,1,1-1.44,1.44A1.45,1.45,0,0,1,53.91,84.77Z"/></g></g></svg>