<svg xmlns="http://www.w3.org/2000/svg" viewBox="0 0 86.04 112.97"><defs><style>.cls-1{fill:none;stroke:#221815;}.cls-2{fill:#d11228;}.cls-3{fill:#21983a;}</style></defs><g id="图层_2" data-name="图层 2"><g id="图层_2-2" data-name="图层 2"><path class="cls-1" d="M85.54,106.73a5.7,5.7,0,0,1-5.66,5.74H6.16A5.7,5.7,0,0,1,.5,106.73V6.24A5.7,5.7,0,0,1,6.16.5H79.88a5.7,5.7,0,0,1,5.66,5.74Z"/><path class="cls-2" d="M49,67c-1.33-2.88-.25-4,.35-6.6s-1.08-7.44-1.08-9.47,2.07-4.64,1.08-9.49c-.79-3.88-3.06-4.9-5.33-5-2.83-.08-4.82,2.31-5.36,4.92-1,4.85,1.08,7.44,1.08,9.48S38,57.7,38.64,60.34s1.68,3.72.36,6.6-1,11,4.92,11.88h.31C50.11,78,50.29,69.86,49,67Zm-2.29-22.8c-.36,3.48-2,4.27-1.2,8.41a21.13,21.13,0,0,1,.12,9.83,11,11,0,0,0,.48,6.84c.86,2.86-.22,6.66-2.28,6.56-1.34-.07-3.22-1.95-1.93-6.6.6-2.16,1.2-3.36.48-6.84a21.3,21.3,0,0,1,.12-9.84c.81-4.14-.84-4.92-1.2-8.4s2.28-3.6,2.28-3.6l.85.05S47.05,40.71,46.69,44.18Z"/><path class="cls-3" d="M29.15,43.83c-1.32-2.88-.24-4,.36-6.6s-1.08-7.44-1.08-9.48,2.07-4.63,1.08-9.48c-.8-3.89-3.06-4.91-5.33-5-2.83-.08-4.83,2.31-5.36,4.92-1,4.85,1.08,7.44,1.08,9.48s-1.68,6.84-1.08,9.48,1.68,3.72.36,6.6-1,11,4.92,11.88h.3C30.28,54.82,30.47,46.71,29.15,43.83ZM26.87,21c-.36,3.48-2,4.26-1.2,8.4a21.3,21.3,0,0,1,.12,9.84,10.83,10.83,0,0,0,.48,6.84C27.13,49,26,52.77,24,52.66c-1.34-.07-3.22-1.94-1.92-6.6.6-2.16,1.2-3.36.48-6.84a21.17,21.17,0,0,1,.12-9.84c.8-4.13-.84-4.92-1.2-8.4s2.28-3.6,2.28-3.6l.85.05S27.23,17.55,26.87,21Z"/><path class="cls-3" d="M68.8,43.83c-1.32-2.88-.24-4,.36-6.6s-1.08-7.44-1.08-9.48,2.07-4.63,1.08-9.48c-.79-3.89-3.06-4.91-5.33-5C61,13.22,59,15.61,58.47,18.22c-1,4.85,1.08,7.44,1.08,9.48s-1.68,6.84-1.08,9.48,1.68,3.72.36,6.6-1,11,4.92,11.88h.3C69.93,54.82,70.12,46.71,68.8,43.83ZM66.52,21c-.36,3.48-2,4.26-1.2,8.4a21.3,21.3,0,0,1,.12,9.84,10.9,10.9,0,0,0,.48,6.84c.86,2.86-.22,6.66-2.29,6.55-1.34-.07-3.21-1.94-1.92-6.6.6-2.16,1.2-3.36.48-6.84a21.3,21.3,0,0,1,.12-9.84c.8-4.13-.84-4.92-1.2-8.4s2.28-3.6,2.28-3.6l.85.05S66.88,17.55,66.52,21Z"/><path class="cls-3" d="M29.15,90.14c-1.32-2.88-.24-4,.36-6.6s-1.08-7.44-1.08-9.48,2.07-4.63,1.08-9.48c-.8-3.89-3.06-4.9-5.33-5-2.83-.07-4.83,2.32-5.36,4.93C17.83,69.38,19.9,72,19.9,74s-1.68,6.84-1.08,9.47,1.68,3.72.36,6.6-1,11,4.92,11.88h.3C30.28,101.13,30.47,93,29.15,90.14Zm-2.28-22.8c-.36,3.48-2,4.26-1.2,8.4a21.3,21.3,0,0,1,.12,9.84,10.83,10.83,0,0,0,.48,6.84C27.13,95.28,26,99.08,24,99c-1.34-.06-3.22-1.94-1.92-6.59.6-2.17,1.2-3.37.48-6.84a21.17,21.17,0,0,1,.12-9.84c.8-4.14-.84-4.92-1.2-8.41s2.28-3.59,2.28-3.59l.85,0S27.23,63.86,26.87,67.34Z"/><path class="cls-3" d="M68.8,90.14c-1.32-2.88-.24-4,.36-6.6s-1.08-7.44-1.08-9.48,2.07-4.63,1.08-9.48c-.79-3.89-3.06-4.9-5.33-5C61,59.54,59,61.93,58.47,64.54c-1,4.84,1.08,7.43,1.08,9.48s-1.68,6.84-1.08,9.47,1.68,3.72.36,6.6-1,11,4.92,11.88h.3C69.93,101.13,70.12,93,68.8,90.14Zm-2.28-22.8c-.36,3.48-2,4.26-1.2,8.4a21.3,21.3,0,0,1,.12,9.84,10.9,10.9,0,0,0,.48,6.84c.86,2.86-.22,6.66-2.29,6.55-1.34-.06-3.21-1.94-1.92-6.59.6-2.17,1.2-3.37.48-6.84a21.3,21.3,0,0,1,.12-9.84c.8-4.14-.84-4.92-1.2-8.41s2.28-3.59,2.28-3.59l.85,0S66.88,63.86,66.52,67.34Z"/></g></g></svg>