<svg xmlns="http://www.w3.org/2000/svg" viewBox="0 0 86.04 112.97"><defs><style>.cls-1{fill:none;stroke:#221815;}.cls-2{fill:#2926a5;}</style></defs><g id="图层_2" data-name="图层 2"><g id="图层_2-2" data-name="图层 2"><path class="cls-1" d="M85.54,106.73a5.7,5.7,0,0,1-5.67,5.74H6.16A5.7,5.7,0,0,1,.5,106.73V6.24A5.7,5.7,0,0,1,6.16.5H79.87a5.7,5.7,0,0,1,5.67,5.74Z"/><path class="cls-2" d="M50.62,39.52a.81.81,0,0,0-.57.28.83.83,0,0,1-.57.29,9.08,9.08,0,0,0-1.44.29l-.57.28a6,6,0,0,0-2.29,1.15,8,8,0,0,0-1.15.86l-1.15-.57-.57.57L44,44.39h1.72l1.72,1.72.57-.57,2.3,2.29V51l1.43-.29h1.72c.19-.19.67,0,1.43.58L55.5,51a2.18,2.18,0,0,1,.86-.29c.38-.19,1,0,1.72.58a4.4,4.4,0,0,1,2.29,1.14,2.93,2.93,0,0,0,1.14.58c.39.38.67.67.86.86a22.83,22.83,0,0,1,2.87,2.58v1.14l-.57.58c-.39.19-.77.86-1.15,2A2.89,2.89,0,0,1,63,61.3,8.23,8.23,0,0,1,62.37,63a1.68,1.68,0,0,1-.57,1.15,2.78,2.78,0,0,0-.57,1.43,10.51,10.51,0,0,0-1.15,2.87,26.28,26.28,0,0,1-1.43,3.43,31.32,31.32,0,0,1-2,3.44c-.76,1.15-1.43,2.11-2,2.87a11,11,0,0,0-1.44,1.72,6.46,6.46,0,0,1-1.72.86,3.82,3.82,0,0,0-2.29.86l-.29-.86a1.67,1.67,0,0,1-.28-1.15,1.19,1.19,0,0,0-.29-.86c-.38-1-.86-2.29-1.43-4h-2a22.86,22.86,0,0,0-3.73.29,8.48,8.48,0,0,0-3.15.57,25.37,25.37,0,0,0-2.58.29c1-.19.67-.1-.86.28a8.2,8.2,0,0,0-3.72.86,9.21,9.21,0,0,0-3.16,1.15,5.69,5.69,0,0,1-2.58.57A2.52,2.52,0,0,1,24,78.5h-.58L22,77.06c-.19-.19-.48-.47-.86-.86a3.09,3.09,0,0,0-.57-1.14.87.87,0,0,0-.29-.58,6.51,6.51,0,0,1-.86-1.71,6.73,6.73,0,0,0-.86-2.58,3.24,3.24,0,0,1-.29-1.44A2.52,2.52,0,0,0,18,67.61a10.17,10.17,0,0,0-.86-2.87c-.19-.57-.48-1.34-.86-2.29.19.38.09.28-.29-.29A26.11,26.11,0,0,0,15.08,59a6.25,6.25,0,0,1,.29-3.44A10.12,10.12,0,0,1,16.8,52.7a5.59,5.59,0,0,1,2.58-2.58l-.86,1.15a4.45,4.45,0,0,0-1.15,2.29,5.48,5.48,0,0,0-.28,1.72l.57.86c0,.19.19.48.57.86a12.47,12.47,0,0,1,.86,1.43,21.42,21.42,0,0,0,2.58,3.16l.29-.86c.19-.77.29-1,.29-.58a2.31,2.31,0,0,1,.86-1.43A3.4,3.4,0,0,1,25.4,57a4.4,4.4,0,0,1,2.29-.86c-.57,0-.38-.09.58-.29a3.54,3.54,0,0,1,2-.86L30,54.13a1.12,1.12,0,0,1-.29-.86,1.19,1.19,0,0,0-.29-.86,2.14,2.14,0,0,0-.28-.85,1.2,1.2,0,0,0-.29-.87A4,4,0,0,1,28.55,49l.58-.29a1.65,1.65,0,0,1,1.14-.29l.58.58.57.28.86.86c.57.19,1.43,1.15,2.58,2.87l.29-.58a6.36,6.36,0,0,0,.85-2,7,7,0,0,1,.87-2c.38-.57,1.05-1.53,2-2.86V45h-.29a4.76,4.76,0,0,0-1.14.29h-.86a2.58,2.58,0,0,1-1.15.29l-1.72-1.15-.57.29a2.17,2.17,0,0,0-.86.28,2.23,2.23,0,0,1-.86.29,5.14,5.14,0,0,0-2.58.86,20.45,20.45,0,0,0-2.58.86,3.58,3.58,0,0,0-2,.57h-.57a2.23,2.23,0,0,1-.86.29L24,47a6,6,0,0,0,1.43-1.15A4.36,4.36,0,0,1,26.55,45a4.72,4.72,0,0,1,3.15-1.72l-.57-.57c0-.19-.2-.48-.58-.86q-.57-.29-.57-.57c-.38-.58-.86-1.34-1.43-2.3a8.62,8.62,0,0,1-.86-2L28,36.65a16.2,16.2,0,0,1,3.73-.57,7.69,7.69,0,0,1,2.86-.58,16.11,16.11,0,0,1,3.15-.86,7,7,0,0,1,2.58-.86c-.57,0-.38-.09.58-.28a4.92,4.92,0,0,1,2.29-.86,4.8,4.8,0,0,1,1.15-.29c.19-.19.67,0,1.43.57A6.67,6.67,0,0,1,48,34.07a2.67,2.67,0,0,1,1.72,1.43,7.47,7.47,0,0,1,.86,1.72,5,5,0,0,1,.29,2ZM24,61.59v.28L23.68,63a1.66,1.66,0,0,0-.29,1.15,2.52,2.52,0,0,0-.28,1.14,4.64,4.64,0,0,0,0,2.3,1.44,1.44,0,0,1,0,1.72c-.39.38-.29,1.62.28,3.72l1.72-.28.86-.29a5.49,5.49,0,0,1,1.72-.29,17.63,17.63,0,0,1,3.16-1.43L30.56,69a17.6,17.6,0,0,1-.29-2.58,17.6,17.6,0,0,1,.29-2.58c.38-1.15.38-1.91,0-2.29a8.35,8.35,0,0,0-1.43.28,2.47,2.47,0,0,0-1.72.86Zm16.33-4.3a1.15,1.15,0,0,0-1.14.57l-.58.29a15.78,15.78,0,0,0-2,.86l-.29,1.43A1.66,1.66,0,0,0,36,61.59a4.57,4.57,0,0,0-.28,1.14,3,3,0,0,0-.29,1.72,7.87,7.87,0,0,0-.28,1.72,22.93,22.93,0,0,0-.29,4.3l.86-.28h.57a8,8,0,0,1,2-.29v-.57a4.52,4.52,0,0,1,.28-1.15A1.61,1.61,0,0,0,38.87,67a4.76,4.76,0,0,0,.29-1.14,4.74,4.74,0,0,1,.28-1.44A3.19,3.19,0,0,1,39.73,63,4.75,4.75,0,0,1,40,61.59a1.67,1.67,0,0,1,.28-1.15,3.86,3.86,0,0,0,.29-1.72,4.75,4.75,0,0,0,.29-1.43ZM39.16,46.68a2.71,2.71,0,0,0-1.44,1.72c-.38.58-.47.67-.28.29A21.08,21.08,0,0,0,36.58,51c-.38.77-.48,1-.29.58A3.19,3.19,0,0,0,36,53l1.15,1.14.57-.28a18.33,18.33,0,0,1,4-1.15v-.57A4.8,4.8,0,0,1,42,50.69l.29-1.43A4.76,4.76,0,0,0,42,48.12a.82.82,0,0,0-.28-.58c0-.38-.1-.57-.29-.57A2.06,2.06,0,0,0,40,46.11Zm13.18,7.74-.57.29a2.17,2.17,0,0,0-.86.28,3.57,3.57,0,0,0-2,.58l-.57.86a2.94,2.94,0,0,1-.57,1.14c-.19.77-.39,1.44-.58,2a19.71,19.71,0,0,0-1.43,4q-.57,2-1.43,4.59l.86.86,1.14-1.15h.29a6.48,6.48,0,0,1,2,.58l.57.86a.83.83,0,0,0,.29.57,16.27,16.27,0,0,1,.86,1.43l.86-1.14c.57-1,1-1.72,1.43-2.3a15.78,15.78,0,0,0,.86-2,6.85,6.85,0,0,0,.86-2.58,6.59,6.59,0,0,1,.57-2,4.47,4.47,0,0,0,.58-1.72c.38-1.34.66-2.29.86-2.87a.81.81,0,0,1,.28-.57,11.16,11.16,0,0,1,.57-1.43l-1.14-.58-1.72,1.15L54.06,55a2.1,2.1,0,0,0-1.43-.86Z"/></g></g></svg>