<svg xmlns="http://www.w3.org/2000/svg" viewBox="0 0 86.04 112.97"><defs><style>.cls-1{fill:none;stroke:#221815;}.cls-2{fill:#2f6eb6;}.cls-3{fill:#fff;}</style></defs><g id="图层_2" data-name="图层 2"><g id="图层_2-2" data-name="图层 2"><path class="cls-1" d="M85.54,106.73a5.7,5.7,0,0,1-5.66,5.74H6.16A5.7,5.7,0,0,1,.5,106.73V6.24A5.7,5.7,0,0,1,6.16.5H79.88a5.7,5.7,0,0,1,5.66,5.74Z"/><path class="cls-2" d="M60.68,20.21H25.36a3.76,3.76,0,0,0-3.44,3.94V88.82a3.76,3.76,0,0,0,3.44,3.94H60.68A3.63,3.63,0,0,0,64.12,89V24A3.64,3.64,0,0,0,60.68,20.21Zm.57,62.31a33,33,0,0,0-3.31,2.93,26.59,26.59,0,0,0-3.26,4.87H47.24l-8.45-.13H31.36a26.59,26.59,0,0,0-3.26-4.87,33,33,0,0,0-3.31-2.93V30.59a32.39,32.39,0,0,0,3.31-2.94,26.29,26.29,0,0,0,3.26-4.86h7.43l8.45-.13h7.44a26.59,26.59,0,0,0,3.26,4.87,33,33,0,0,0,3.31,2.93Z"/><path class="cls-2" d="M65.2,15.3H20.84a4.32,4.32,0,0,0-4.32,4.32V93.35a4.32,4.32,0,0,0,4.32,4.32H65.2a4.33,4.33,0,0,0,4.32-4.32V19.62A4.33,4.33,0,0,0,65.2,15.3Zm1.25,75.6a3.94,3.94,0,0,1-3.82,4H23.41a3.94,3.94,0,0,1-3.82-4V22.06a3.93,3.93,0,0,1,3.82-4H62.63a3.93,3.93,0,0,1,3.82,4Z"/><path class="cls-3" d="M61.71,89.59a3,3,0,0,0,.68-1.75V84.25a10.74,10.74,0,0,0-3.13,2.48,20.16,20.16,0,0,0-2.43,3.88h3.32A3.07,3.07,0,0,0,61.71,89.59Z"/><path class="cls-3" d="M24.33,89.46a3,3,0,0,1-.68-1.75V84.12a10.89,10.89,0,0,1,3.13,2.48,20.39,20.39,0,0,1,2.43,3.88H25.89A3.07,3.07,0,0,1,24.33,89.46Z"/><path class="cls-3" d="M61.71,23.39a3,3,0,0,1,.68,1.75v3.59a10.74,10.74,0,0,1-3.13-2.48,20.16,20.16,0,0,1-2.43-3.88h3.32A3.07,3.07,0,0,1,61.71,23.39Z"/><path class="cls-3" d="M24.33,23.52a3,3,0,0,0-.68,1.75v3.59a10.89,10.89,0,0,0,3.13-2.48,20.73,20.73,0,0,0,2.43-3.88H25.89A3.07,3.07,0,0,0,24.33,23.52Z"/></g></g></svg>