<svg xmlns="http://www.w3.org/2000/svg" viewBox="0 0 86.04 112.97"><defs><style>.cls-1{fill:none;stroke:#221815;}.cls-2{fill:#21983a;}</style></defs><g id="图层_2" data-name="图层 2"><g id="图层_2-2" data-name="图层 2"><path class="cls-1" d="M85.54,106.73a5.7,5.7,0,0,1-5.67,5.74H6.16A5.7,5.7,0,0,1,.5,106.73V6.24A5.7,5.7,0,0,1,6.16.5H79.87a5.7,5.7,0,0,1,5.67,5.74Z"/><path class="cls-2" d="M46.6,18.83a8.39,8.39,0,0,1,2.5.31,1.25,1.25,0,0,1,1.25.63c.42,0,.73.42.94,1.25a7.87,7.87,0,0,1,.94,1.88,5.31,5.31,0,0,1,.31,2.19l-.31.31c-.21,0-.52.21-.94.62a5.1,5.1,0,0,0-1.25.32,2.78,2.78,0,0,1-1.25.31,5.12,5.12,0,0,0-2.82.63,2.56,2.56,0,0,0-1.56.93l1.25.63c.42.21,1.15.63,2.19,1.25a6.65,6.65,0,0,0,1.56,1.25H50l1.56-1.25a10.25,10.25,0,0,1,1.57-1.25l.93-.94c.21-.21.53-.52.94-.94l.31-.62a5.11,5.11,0,0,0,.32-2.5l.62-.63h.32a1.24,1.24,0,0,1,.93.31,2.61,2.61,0,0,1,1.57.94,3.07,3.07,0,0,1,1.56,1.25,3.93,3.93,0,0,1,.94,1.57,3.41,3.41,0,0,1,.31,1.56l-.31.31a2.43,2.43,0,0,0-.94.32c.42-.21.21,0-.62.62a10.77,10.77,0,0,0-2.82,1.25h-.31a19.68,19.68,0,0,0-4.38,1.88l.63.62A17.86,17.86,0,0,0,55,35.41c1,.62,2,1.25,2.82,1.87,1,.63,2.19,1.25,3.44,1.88.41.21,1.14.52,2.19.94a10.32,10.32,0,0,1,1.87.62,12.47,12.47,0,0,1,3.76.94,7.87,7.87,0,0,1,3.44.94A18,18,0,0,1,76,44.16a8.81,8.81,0,0,1,2.81,2.19V47l-.62.31-.94.31a5.89,5.89,0,0,0-1.88.32H73.18a9,9,0,0,1-2.19.31,9.18,9.18,0,0,1-2.19-.31H66.93A28.74,28.74,0,0,0,63.49,47L61.61,46a.9.9,0,0,0-.63-.31,12.88,12.88,0,0,0-2.5-1.88L57.23,42.6A20.14,20.14,0,0,1,55,40.72v.94a9,9,0,0,1-.31,2.19,1.27,1.27,0,0,0-.31.94,1.27,1.27,0,0,1-.32.94.88.88,0,0,0-.31.62,2.37,2.37,0,0,0-.31.94,3.47,3.47,0,0,0-.31,1.56l.62.63.94-.31A5.1,5.1,0,0,1,56,48.85a1.27,1.27,0,0,1,.94.32c.42,0,.83.31,1.25.94a2,2,0,0,1,.94,1.25c.21,0,.31.62.31,1.87l-.31.32-.63.31a2.37,2.37,0,0,0-.94.31,2.52,2.52,0,0,0-1.87.63,2.56,2.56,0,0,0-1.57.94,9.37,9.37,0,0,1-1.25.93c-.83.63-1.56,1.15-2.19,1.57h.94a3.49,3.49,0,0,1,1.57.31c.41,0,.83.31,1.25.94a2,2,0,0,1,.93,1.25,3.47,3.47,0,0,1,.32,1.56,5.18,5.18,0,0,1-.32,1.57,7.33,7.33,0,0,0-.93,1.87c-.21.63-.53,1.46-.94,2.51a5.82,5.82,0,0,0-.31,1.87l1.25.63,1.87.93a3.27,3.27,0,0,1,1.25.63l3.76,1.88c1.25.62,2.39,1.25,3.44,1.87a13.2,13.2,0,0,1,2.5,1.88,3.59,3.59,0,0,1,1.25,1.25,5.88,5.88,0,0,1,.31,1.88,5.82,5.82,0,0,1-.31,1.87.28.28,0,0,1-.31.32,1.81,1.81,0,0,1-.63,1.25h-.31a2.55,2.55,0,0,1-.94-.31,28.28,28.28,0,0,0-2.81-1.88q-.95-.63-2.82-2.19a9.9,9.9,0,0,1-1.25-.94A36.42,36.42,0,0,0,55.67,77c-.63-.41-1.36-.94-2.19-1.56a3.35,3.35,0,0,1-1.25-.63A3.94,3.94,0,0,0,50,73.87l-.31.32-.63.31a2,2,0,0,1-.94.94l-1.25.62a4.87,4.87,0,0,1-1.25.94,22,22,0,0,0-2.81.94H41.28a5.07,5.07,0,0,1-1.56.31,5.13,5.13,0,0,1-1.57-.31h-.93a.9.9,0,0,1-.63-.31.92.92,0,0,0-.62-.32.88.88,0,0,1-.32-.62.9.9,0,0,1-.31-.63A5,5,0,0,1,35,74.5l.62.31a3,3,0,0,1,1.57.63h.93a2.37,2.37,0,0,0,.94.31,2.37,2.37,0,0,0,.94-.31H41a7.69,7.69,0,0,1,1.88-.94l.93-.94.63-.31c0-.21.21-.42.62-.63l1.26-1.87-.63-.63c-.21-.62-.83-1-1.88-1.25a3.88,3.88,0,0,0-2.19-.94,5.82,5.82,0,0,0-1.87-.31,7.67,7.67,0,0,0-2.82.63l-.62,1.87h-.63l-.31.31c-.21,0-.52.63-.94,1.88a3.24,3.24,0,0,1-.62,1.25,9.62,9.62,0,0,1-.63,1.88l-.94,1.87a3.44,3.44,0,0,1-.62,1.26c-.21,0-.53.31-.94.93l-.94.94-.94.94-.62.31a1.29,1.29,0,0,1-.94.32,2.43,2.43,0,0,1-.94-.32l-.63-.31-.93-.94-.94-.94-.31-.62a.92.92,0,0,1-.32-.63,2.33,2.33,0,0,1-.31-.94,18.41,18.41,0,0,1-.31-2.81,8.55,8.55,0,0,1,.62-3.13l.32.94a.94.94,0,0,1,.31.63,1.24,1.24,0,0,0,.31.93,18.12,18.12,0,0,1,1.56,1.88h.63l.63-.31h.62l.31-.31c.21,0,.52-.32.94-.94a.94.94,0,0,1,.31-.63A6.85,6.85,0,0,0,30,71.68a23.49,23.49,0,0,1,.94-2.5l.31-1.25c.21-.21,0-.73-.62-1.56H30l-.94.62c-.62.42-1.45.94-2.5,1.57l-1.87.94a.9.9,0,0,1-.63.31h-.94a2.72,2.72,0,0,1-1.25.31l-.62-.62v-.63a9.94,9.94,0,0,1,.62-2.5h-.62v-.63l.62-.62a3,3,0,0,1,1.57-1.25A2.52,2.52,0,0,1,25,62.93l.62-.31.94-.94a14.1,14.1,0,0,0,2.19-2.82v-.62h-.31a4.92,4.92,0,0,0-1.25.31,2.13,2.13,0,0,0-1.57.63,1.8,1.8,0,0,0-1.25.62h-.31a2.37,2.37,0,0,1-.94.31l-.62-.62v-.63a3.47,3.47,0,0,1,.31-1.56,16.44,16.44,0,0,0,.94-1.56c.42-.63.83-.94,1.25-.94a4,4,0,0,1,1.56-.94l.94-.94a3.9,3.9,0,0,0,.94-.62A12.82,12.82,0,0,0,30,50.42a8.19,8.19,0,0,1,1.25-2.19h-.93a2.33,2.33,0,0,1-.94-.31h-.63A2,2,0,0,0,27.52,47l-.31.31c-.21,0-.63.63-1.25,1.88a3.35,3.35,0,0,0-.63,1.25q-.93,1.24-1.56,2.19a10,10,0,0,0-1.25,1.56,7.51,7.51,0,0,1-1.25,1.88A10,10,0,0,0,20,57.61l-.94.94a3.62,3.62,0,0,1-.94.63l-.94.93a3.93,3.93,0,0,0-1.56.94,5.42,5.42,0,0,0-1.25.31c.62-.2.2,0-1.25.63v-.63H11.88l-.62-.62v-.63l.62-.62h.63l.63-.31h.62q0-.32.63-.63c.41,0,.62-.1.62-.31a12.93,12.93,0,0,1,1.56-1.88c.21-.21.53-.52.94-.94a3.44,3.44,0,0,1,.63-1.25c.42-.62.94-1.46,1.56-2.5a36.42,36.42,0,0,1,2.19-3.75A42.5,42.5,0,0,0,25,42h-.94a2.43,2.43,0,0,1-.94-.32H22.2a16,16,0,0,0-1.56-.94c0-.2-.21-.52-.62-.93q-.63-.32-.63-.63a7.87,7.87,0,0,0-.94-1.88,5,5,0,0,1-.31-1.56l.62-.63h1.57a5.34,5.34,0,0,1,2.19.32h.62l.63.31h.62a2.37,2.37,0,0,1,.94-.31,7.87,7.87,0,0,1,1.88-.94l1.25-1.25a1.27,1.27,0,0,0,.31-.94,11.37,11.37,0,0,1,.63-1.56l-.63-.63h-.94a2.29,2.29,0,0,1-.93-.31h-.63a3.62,3.62,0,0,0-.94-.63,3.63,3.63,0,0,1-.94-.62l-.93-.94c-.42-.42-.73-.63-.94-.63v-.62l.31-.32a2.58,2.58,0,0,1,1.88-.62,7.12,7.12,0,0,1,2.5-.63,6.8,6.8,0,0,1,2.19-.93,3.62,3.62,0,0,1,.94-.63,3.73,3.73,0,0,0,.93-.63h.63a2.76,2.76,0,0,1,1.25.32q.63,0,1.56,1.56a15.27,15.27,0,0,1,2.19,3.13l.63-.31A5.11,5.11,0,0,1,40,27l.63-.62a6.64,6.64,0,0,1,2.19-1.88l1.25-1.25a20.14,20.14,0,0,0,2.19-1.88v-.62L45,19.46v-.63ZM34.71,30.09A7.27,7.27,0,0,0,33.78,32q0,.31-.63.93l-.94,1.88a15.79,15.79,0,0,0-1.87,3.75,29.17,29.17,0,0,0-1.57,3.76l-.31.62a3.49,3.49,0,0,0-.31,1.57H29.4a2.38,2.38,0,0,1,.94-.32,7.76,7.76,0,0,1,1.87-.93,2.56,2.56,0,0,1,1.57-.94A2.72,2.72,0,0,1,35,42a2.78,2.78,0,0,1,1.25.31c.41,0,.94.41,1.56,1.25a3,3,0,0,1,1.25,1.56,1.81,1.81,0,0,1,.32,1.25L33.78,52v.63l.93.62A1.9,1.9,0,0,1,36,54.48,5.36,5.36,0,0,1,36.28,57L36,57.3c-.21,0-.63.31-1.26.94-.2-.21-1.77,1.25-4.69,4.38H31a5.88,5.88,0,0,1,1.88.31,1.83,1.83,0,0,1,1.56.94,3.89,3.89,0,0,1,.94,1.56,2.37,2.37,0,0,0,.31.94l.63,1.88.62-.94c.42-.84.84-1.25,1.25-1.25,0-.21,1.26-.32,3.76-.32v-.62H40.66L40,64.49a2,2,0,0,0-.94-1.25A4.92,4.92,0,0,1,38.78,62l.94-.31a6.81,6.81,0,0,1,2.19-.94,5,5,0,0,0,1.25-.94l1.25-.62a3.55,3.55,0,0,0,1.25-1.26A5.06,5.06,0,0,1,46.91,57a14.88,14.88,0,0,1,3.75-3.13L50,53.55a1,1,0,0,0-.94-.63.9.9,0,0,1-.31-.62L48.48,52a5.1,5.1,0,0,1-.32-1.25,13.46,13.46,0,0,1,.32-2.5,20.81,20.81,0,0,0,.31-2.5l-.63-.63h-2.5l-.63.63V47a32.78,32.78,0,0,1-.31,3.44,8.47,8.47,0,0,1-.31,1.88,3.47,3.47,0,0,1-.31,1.56c-.21.62-.53,1.56-.94,2.81a14.34,14.34,0,0,1-1.25,1.88,3.62,3.62,0,0,1-.63.94h-.62l-.32-.31a.9.9,0,0,1-.31-.63l-.31-.31a1.27,1.27,0,0,1-.31-.94,1.27,1.27,0,0,0-.32-.94,14.9,14.9,0,0,1-.31-1.88,1.81,1.81,0,0,1,.31-1.25A6.81,6.81,0,0,0,40,51L41,48.23a14.9,14.9,0,0,0,.31-1.88A5.82,5.82,0,0,0,41,44.48a10.25,10.25,0,0,1-.31-2.5l.62.31a3.78,3.78,0,0,1,1.88.94l.62-.32A3.91,3.91,0,0,1,45.35,42a4.9,4.9,0,0,1,1.87-1.26,3.9,3.9,0,0,1,.94-.62l1.25-1.25.63.31h.31a11.6,11.6,0,0,0,2.82.31l-.94-.94a18.58,18.58,0,0,0-4.07-3.44l-1.87.63a11,11,0,0,0-3.13.94,2.72,2.72,0,0,0-1.25.31h-.63l5-3.13L46,33.53A3.62,3.62,0,0,0,45,32.9a3.47,3.47,0,0,1-.93-.62A21.21,21.21,0,0,0,41,30.72a6,6,0,0,0-3.13-.94A11.51,11.51,0,0,0,35,29.47Zm15,30.65c-.21-.21-.73,0-1.57.62l-1.87.94-.63.63c-.42.21-1.15.62-2.19,1.25.42-.21-.1.1-1.56.94v.62l1.25.32A4.58,4.58,0,0,1,46,67l.63.32a3.47,3.47,0,0,0,1.56.31l.63-1.56c.41-1.25.73-2.19.94-2.82a10.69,10.69,0,0,0,.31-2.5Z"/></g></g></svg>