<svg xmlns="http://www.w3.org/2000/svg" viewBox="0 0 86.04 112.97"><defs><style>.cls-1{fill:none;stroke:#221815;}.cls-2{fill:#2926a5;}</style></defs><g id="图层_2" data-name="图层 2"><g id="图层_2-2" data-name="图层 2"><path class="cls-1" d="M85.54,106.73a5.7,5.7,0,0,1-5.67,5.74H6.16A5.7,5.7,0,0,1,.5,106.73V6.24A5.7,5.7,0,0,1,6.16.5H79.87a5.7,5.7,0,0,1,5.67,5.74Z"/><path class="cls-2" d="M43.88,26.48c1.15.57,2.2,1.15,3.16,1.72l1.72.86a.83.83,0,0,0,.57.29h.86a2.53,2.53,0,0,0,1.15.28l1.14,1.72v.57l1.15,1.15-1.15,1.72v1.43a38.8,38.8,0,0,1-.28,4A8,8,0,0,1,51.91,42c-.19,1.33-.38,2.58-.57,3.72L52.48,48l.58-1.72.86-.58a3.09,3.09,0,0,1,2.29-.86c.95-.38,1.72-.67,2.29-.86a2.49,2.49,0,0,1,1.72-.86,4.61,4.61,0,0,1,1.15-.28,6.55,6.55,0,0,1,2,.57l.58.86a6.33,6.33,0,0,1,.86,2A5.39,5.39,0,0,1,65.09,48c.2.19,0,1-.57,2.29l-.86.57a.83.83,0,0,0-.57.29,6.33,6.33,0,0,0-1.72.86c-1,.38-2,.86-3.16,1.43a3.09,3.09,0,0,1-1.14.57,3.5,3.5,0,0,0-1.72.86,8.21,8.21,0,0,0-2.87,1.72h-.57l-1.72-1.14-.29.86a1.65,1.65,0,0,0-.28,1.14,2.48,2.48,0,0,0-.29,1.15A3.19,3.19,0,0,0,49,60a4.74,4.74,0,0,0-.28,1.44,12.43,12.43,0,0,0-.29,2.29,8.59,8.59,0,0,0,.29,2c.19.57.28.76.28.57a4.22,4.22,0,0,0,.86,1.43,12.86,12.86,0,0,0,3.16,1.72c-.2-.19.19-.09,1.14.29l.86-.29a6.33,6.33,0,0,1,2-.86q.57-.57,4.58-1.72L62.23,68l.57-1.15,1.15.58c1,.19,1.53.47,1.72.86.38,0,1.53.86,3.44,2.57l.28,1.15a5.49,5.49,0,0,1,.29,1.72,7.94,7.94,0,0,1-.57,1.72l-.58,1.15-.86.28a8.7,8.7,0,0,0-2.86.86,22.41,22.41,0,0,1-3.16.29,3.7,3.7,0,0,0-2.86,0H56.21a5.49,5.49,0,0,0-1.72-.29h-.86a12.36,12.36,0,0,0-2.29-.28,4.8,4.8,0,0,1-1.44-.29,4.75,4.75,0,0,0-1.43-.29c-.19-.38-.76-.66-1.72-.86A7.16,7.16,0,0,1,45,74.34a2.78,2.78,0,0,0-.57-1.43,1.62,1.62,0,0,1-.58-1.14A9.85,9.85,0,0,0,43,68.9,18,18,0,0,1,42.74,66,12.11,12.11,0,0,1,43,63.17a5,5,0,0,0,.29-2,7.94,7.94,0,0,0,.29-1.72c.19-1.72.28-2.67.28-2.87a12.22,12.22,0,0,0-.57-2.86l-.86.86c-.19.19-.76.67-1.72,1.43l-.86.57q-1.42.59-8,7.46l-.29,2a5,5,0,0,0-.29,2,11.83,11.83,0,0,0-.28,2,3.83,3.83,0,0,0-.29,1.72,4,4,0,0,1-.29,1.71,4.52,4.52,0,0,1-.28,1.15,1.68,1.68,0,0,1-.29,1.15,17.11,17.11,0,0,0-1.43,3.15l-.58-.57c0-.19-.19-.48-.57-.86-.57-.77-1.15-1.63-1.72-2.58l-1.72,1.14-.29.86c-.19.39-.67,1.15-1.43,2.3a18.81,18.81,0,0,1-4,3.44h-.86a6.41,6.41,0,0,0-2-.29l-.28-.29a10.4,10.4,0,0,1-1.15-2c-.19-.39-.48-1-.86-2a2.23,2.23,0,0,1-.29-.86,13.74,13.74,0,0,1-.28-1.72,3.12,3.12,0,0,1,.57-1.72c.38-1,.67-1.72.86-2.29a15.44,15.44,0,0,0,.86-3.15c.19-.58.48-1.44.86-2.58a2.22,2.22,0,0,0,.28-.86,23.46,23.46,0,0,1,1.15-2.58l.57-1.15-.85-.29a7.32,7.32,0,0,1-2-1.14A3.82,3.82,0,0,1,13.22,58a1.63,1.63,0,0,1-.29-1.15,3.36,3.36,0,0,0-.57-.86,3.11,3.11,0,0,0-.58-1.15L10.64,52h1.72a8.44,8.44,0,0,1,2-.29,31,31,0,0,1,3.44-.29,4.69,4.69,0,0,0,1.43-.28h.86c.2-.19,1.25-.29,3.16-.29l.86-.57a4.26,4.26,0,0,1,2-1.15l-.28-.57a4.8,4.8,0,0,1-.29-1.15,15.13,15.13,0,0,0-.29-1.72c.19.58.1.29-.28-.86a19.68,19.68,0,0,1-.58-2.29,2.78,2.78,0,0,1-.57-1.43c-.19-1-.57-2.49-1.15-4.59l.86.29a2.17,2.17,0,0,1,.86.28H25a12.22,12.22,0,0,1,2,.29q1.16-.28,3.73,2.58h.57l.86,1.15a4.27,4.27,0,0,1,1.15,2.29,1.66,1.66,0,0,1,.29,1.15,4.57,4.57,0,0,1,.28,1.14,6.45,6.45,0,0,1,.29,2,17.6,17.6,0,0,1-.29,2.58,4.69,4.69,0,0,1-.28,1.43,3.19,3.19,0,0,1-.29,1.43A2.3,2.3,0,0,0,33,54.57,4.69,4.69,0,0,0,32.71,56a9.71,9.71,0,0,0-.29,2.87,12.43,12.43,0,0,0-.29,2.29L33,60.3a13.16,13.16,0,0,0,2.3-2c1-.76,1.71-1.43,2.29-2,.76-.77,1.81-1.72,3.15-2.87l3.73-3.73.28-4.29q.28-4.3.29-5.74a21.11,21.11,0,0,0-.29-3.44,4.69,4.69,0,0,0-.28-1.43,4.75,4.75,0,0,0-.29-1.43,7.09,7.09,0,0,0-.86-1.72A1.68,1.68,0,0,1,43,30.49a3.36,3.36,0,0,0-.57-.86,2.07,2.07,0,0,0-.29-.86c-.19-.76-.38-1.43-.57-2l.57-1.15ZM23.53,59.73a19.93,19.93,0,0,1-2,1.72A8.61,8.61,0,0,0,19,63.74a16.29,16.29,0,0,0-2,2.29c0,.19-.19.48-.57.86s-.58.67-.58.86c-.38.58-.47.67-.28.29a21.08,21.08,0,0,0-.86,2.29q-.28.87,0,.57a7.76,7.76,0,0,0-.57,2.87l1.43-.57,1.72-.86a11.16,11.16,0,0,0,1.43-.57,3.12,3.12,0,0,1,.86-.58,3.09,3.09,0,0,1,1.72-.57A18.55,18.55,0,0,0,25,67.47l.28-1.72a19.52,19.52,0,0,0,.29-3.16,8.86,8.86,0,0,0-1.15-3.72Z"/></g></g></svg>