<svg xmlns="http://www.w3.org/2000/svg" viewBox="0 0 86.04 112.97"><defs><style>.cls-1{fill:none;stroke:#221815;}.cls-2{fill:#21983a;}.cls-3{fill:#1f489b;}</style></defs><g id="图层_2" data-name="图层 2"><g id="图层_2-2" data-name="图层 2"><path class="cls-1" d="M85.54,106.73a5.7,5.7,0,0,1-5.67,5.74H6.16A5.7,5.7,0,0,1,.5,106.73V6.24A5.7,5.7,0,0,1,6.16.5H79.87a5.7,5.7,0,0,1,5.67,5.74Z"/><path class="cls-2" d="M43,61.48a16.7,16.7,0,1,0,16.69,16.7A16.7,16.7,0,0,0,43,61.48Zm0,27.91A11.22,11.22,0,1,1,54.23,78.18,11.21,11.21,0,0,1,43,89.39Z"/><path class="cls-2" d="M43,70.1a8.08,8.08,0,1,0,8.08,8.08A8.08,8.08,0,0,0,43,70.1Zm0,13.26a5.19,5.19,0,1,1,5.18-5.18A5.18,5.18,0,0,1,43,83.36Z"/><path class="cls-2" d="M43,75.94a2.24,2.24,0,1,1-2.24,2.24A2.23,2.23,0,0,1,43,75.94Z"/><path class="cls-3" d="M43,18.1A16.7,16.7,0,1,0,59.71,34.79,16.69,16.69,0,0,0,43,18.1ZM43,46A11.22,11.22,0,1,1,54.23,34.79,11.21,11.21,0,0,1,43,46Z"/><path class="cls-3" d="M43,26.71a8.08,8.08,0,1,0,8.08,8.08A8.08,8.08,0,0,0,43,26.71ZM43,40a5.19,5.19,0,1,1,5.18-5.19A5.19,5.19,0,0,1,43,40Z"/><path class="cls-3" d="M43,32.56a2.24,2.24,0,1,1-2.24,2.23A2.23,2.23,0,0,1,43,32.56Z"/></g></g></svg>