<svg xmlns="http://www.w3.org/2000/svg" viewBox="0 0 86.04 112.97"><defs><style>.cls-1{fill:none;stroke:#221815;}.cls-2{fill:#1f489b;}</style></defs><g id="图层_2" data-name="图层 2"><g id="图层_2-2" data-name="图层 2"><path class="cls-1" d="M85.54,106.73a5.7,5.7,0,0,1-5.67,5.74H6.16A5.7,5.7,0,0,1,.5,106.73V6.24A5.7,5.7,0,0,1,6.16.5H79.87a5.7,5.7,0,0,1,5.67,5.74Z"/><path class="cls-2" d="M31.85,17.1a10.6,10.6,0,1,0,10.6,10.6A10.6,10.6,0,0,0,31.85,17.1Zm0,17.71A7.12,7.12,0,1,1,39,27.7,7.11,7.11,0,0,1,31.85,34.81Z"/><path class="cls-2" d="M31.85,22.57A5.13,5.13,0,1,0,37,27.7,5.13,5.13,0,0,0,31.85,22.57Zm0,8.42a3.29,3.29,0,1,1,3.29-3.29A3.3,3.3,0,0,1,31.85,31Z"/><path class="cls-2" d="M31.85,26.28a1.42,1.42,0,1,1-1.42,1.42A1.41,1.41,0,0,1,31.85,26.28Z"/><path class="cls-2" d="M54.19,17.1A10.6,10.6,0,1,0,64.78,27.7,10.61,10.61,0,0,0,54.19,17.1Zm0,17.71A7.12,7.12,0,1,1,61.3,27.7,7.11,7.11,0,0,1,54.19,34.81Z"/><path class="cls-2" d="M54.19,22.57a5.13,5.13,0,1,0,5.12,5.13A5.13,5.13,0,0,0,54.19,22.57Zm0,8.42a3.29,3.29,0,1,1,3.29-3.29A3.3,3.3,0,0,1,54.19,31Z"/><path class="cls-2" d="M54.19,26.28a1.42,1.42,0,1,1-1.42,1.42A1.41,1.41,0,0,1,54.19,26.28Z"/><path class="cls-2" d="M31.85,36.3a10.59,10.59,0,1,0,10.6,10.59A10.59,10.59,0,0,0,31.85,36.3Zm0,17.7A7.12,7.12,0,1,1,39,46.89,7.11,7.11,0,0,1,31.85,54Z"/><path class="cls-2" d="M31.85,41.76A5.13,5.13,0,1,0,37,46.89,5.13,5.13,0,0,0,31.85,41.76Zm0,8.42a3.29,3.29,0,1,1,3.29-3.29A3.29,3.29,0,0,1,31.85,50.18Z"/><path class="cls-2" d="M31.85,45.47a1.42,1.42,0,1,1-1.42,1.42A1.41,1.41,0,0,1,31.85,45.47Z"/><path class="cls-2" d="M54.19,36.3A10.59,10.59,0,1,0,64.78,46.89,10.6,10.6,0,0,0,54.19,36.3Zm0,17.7a7.12,7.12,0,1,1,7.11-7.11A7.11,7.11,0,0,1,54.19,54Z"/><path class="cls-2" d="M54.19,41.76a5.13,5.13,0,1,0,5.12,5.13A5.13,5.13,0,0,0,54.19,41.76Zm0,8.42a3.29,3.29,0,1,1,3.29-3.29A3.29,3.29,0,0,1,54.19,50.18Z"/><path class="cls-2" d="M54.19,45.47a1.42,1.42,0,1,1-1.42,1.42A1.41,1.41,0,0,1,54.19,45.47Z"/><path class="cls-2" d="M31.85,55.49a10.59,10.59,0,1,0,10.6,10.59A10.59,10.59,0,0,0,31.85,55.49Zm0,17.71A7.12,7.12,0,1,1,39,66.08,7.11,7.11,0,0,1,31.85,73.2Z"/><path class="cls-2" d="M31.85,61A5.13,5.13,0,1,0,37,66.08,5.13,5.13,0,0,0,31.85,61Zm0,8.42a3.29,3.29,0,1,1,3.29-3.29A3.29,3.29,0,0,1,31.85,69.37Z"/><path class="cls-2" d="M31.85,64.66a1.42,1.42,0,1,1-1.42,1.42A1.42,1.42,0,0,1,31.85,64.66Z"/><path class="cls-2" d="M54.19,55.49A10.59,10.59,0,1,0,64.78,66.08,10.6,10.6,0,0,0,54.19,55.49Zm0,17.71a7.12,7.12,0,1,1,7.11-7.12A7.12,7.12,0,0,1,54.19,73.2Z"/><path class="cls-2" d="M54.19,61a5.13,5.13,0,1,0,5.12,5.13A5.13,5.13,0,0,0,54.19,61Zm0,8.42a3.29,3.29,0,1,1,3.29-3.29A3.29,3.29,0,0,1,54.19,69.37Z"/><path class="cls-2" d="M54.19,64.66a1.42,1.42,0,1,1-1.42,1.42A1.42,1.42,0,0,1,54.19,64.66Z"/><path class="cls-2" d="M31.85,74.68a10.6,10.6,0,1,0,10.6,10.59A10.59,10.59,0,0,0,31.85,74.68Zm0,17.71A7.12,7.12,0,1,1,39,85.27,7.11,7.11,0,0,1,31.85,92.39Z"/><path class="cls-2" d="M31.85,80.15A5.13,5.13,0,1,0,37,85.27,5.12,5.12,0,0,0,31.85,80.15Zm0,8.41a3.29,3.29,0,1,1,3.29-3.29A3.29,3.29,0,0,1,31.85,88.56Z"/><path class="cls-2" d="M31.85,83.85a1.42,1.42,0,1,1-1.42,1.42A1.42,1.42,0,0,1,31.85,83.85Z"/><path class="cls-2" d="M54.19,74.68A10.6,10.6,0,1,0,64.78,85.27,10.6,10.6,0,0,0,54.19,74.68Zm0,17.71a7.12,7.12,0,1,1,7.11-7.12A7.12,7.12,0,0,1,54.19,92.39Z"/><path class="cls-2" d="M54.19,80.15a5.13,5.13,0,1,0,5.12,5.12A5.12,5.12,0,0,0,54.19,80.15Zm0,8.41a3.29,3.29,0,1,1,3.29-3.29A3.29,3.29,0,0,1,54.19,88.56Z"/><path class="cls-2" d="M54.19,83.85a1.42,1.42,0,1,1-1.42,1.42A1.42,1.42,0,0,1,54.19,83.85Z"/></g></g></svg>