<svg xmlns="http://www.w3.org/2000/svg" viewBox="0 0 86.04 112.97"><defs><style>.cls-1{fill:none;stroke:#221815;}.cls-2{fill:#21983a;}.cls-3{fill:#d11228;}.cls-4{fill:#1f489b;}</style></defs><g id="图层_2" data-name="图层 2"><g id="图层_2-2" data-name="图层 2"><path class="cls-1" d="M85.54,106.73a5.7,5.7,0,0,1-5.67,5.74H6.16A5.7,5.7,0,0,1,.5,106.73V6.24A5.7,5.7,0,0,1,6.16.5H79.87a5.7,5.7,0,0,1,5.67,5.74Z"/><path class="cls-2" d="M27.75,62.64c-1.19-1.89-.21-2.61.33-4.35s-1-4.9-1-6.24,1.87-3,1-6.25c-.72-2.56-2.76-3.23-4.81-3.27a4.78,4.78,0,0,0-4.84,3.24c-.89,3.2,1,4.91,1,6.25s-1.52,4.51-1,6.24,1.52,2.46.33,4.35a5.39,5.39,0,0,0,4.44,7.83h.27C28.78,69.88,29,64.54,27.75,62.64Zm-2.05-15c-.33,2.29-1.81,2.81-1.09,5.54a10.29,10.29,0,0,1,.11,6.48,5.37,5.37,0,0,0,.44,4.5c.77,1.89-.21,4.39-2.07,4.32-1.21,0-2.9-1.28-1.73-4.35.54-1.42,1.08-2.21.43-4.5a10.36,10.36,0,0,1,.11-6.48c.72-2.73-.76-3.25-1.08-5.54a2,2,0,0,1,2.05-2.37l.77,0A2,2,0,0,1,25.7,47.62Z"/><path class="cls-2" d="M27.75,92.62c-1.19-1.9-.21-2.61.33-4.35s-1-4.9-1-6.25,1.87-3,1-6.24c-.72-2.56-2.76-3.23-4.81-3.27a4.77,4.77,0,0,0-4.84,3.24c-.89,3.19,1,4.9,1,6.25s-1.52,4.5-1,6.24,1.52,2.45.33,4.35a5.38,5.38,0,0,0,4.44,7.82h.27C28.78,99.86,29,94.52,27.75,92.62Zm-2.05-15c-.33,2.29-1.81,2.81-1.09,5.53a10.29,10.29,0,0,1,.11,6.48,5.39,5.39,0,0,0,.44,4.51c.77,1.88-.21,4.39-2.07,4.32-1.21,0-2.9-1.28-1.73-4.35.54-1.42,1.08-2.21.43-4.51a10.36,10.36,0,0,1,.11-6.48c.72-2.72-.76-3.24-1.08-5.53a2,2,0,0,1,2.05-2.37l.77,0A2,2,0,0,1,25.7,77.6Z"/><path class="cls-3" d="M47.6,32.67c-1.2-1.9-.22-2.61.32-4.35s-1-4.9-1-6.25,1.86-3.05,1-6.24c-.72-2.56-2.76-3.23-4.81-3.27a4.76,4.76,0,0,0-4.84,3.24c-.89,3.19,1,4.9,1,6.24s-1.52,4.51-1,6.25,1.52,2.45.33,4.35A5.38,5.38,0,0,0,43,40.46h.27C48.62,39.91,48.79,34.56,47.6,32.67Zm-2.06-15c-.33,2.29-1.81,2.8-1.08,5.53a10.35,10.35,0,0,1,.1,6.48A5.4,5.4,0,0,0,45,34.17c.77,1.88-.21,4.39-2.07,4.32-1.21-.05-2.9-1.28-1.73-4.35.54-1.42,1.08-2.21.43-4.51a10.36,10.36,0,0,1,.11-6.48c.72-2.73-.76-3.24-1.08-5.53a2,2,0,0,1,2.05-2.37l.77,0A2,2,0,0,1,45.54,17.65Z"/><path class="cls-4" d="M47.6,62.64c-1.2-1.89-.22-2.61.32-4.35s-1-4.9-1-6.24,1.86-3,1-6.25c-.72-2.56-2.76-3.23-4.81-3.27a4.78,4.78,0,0,0-4.84,3.24c-.89,3.2,1,4.91,1,6.25s-1.52,4.51-1,6.24,1.52,2.46.33,4.35A5.39,5.39,0,0,0,43,70.44h.27C48.62,69.88,48.79,64.54,47.6,62.64Zm-2.06-15c-.33,2.29-1.81,2.81-1.08,5.54a10.35,10.35,0,0,1,.1,6.48,5.37,5.37,0,0,0,.44,4.5c.77,1.89-.21,4.39-2.07,4.32-1.21,0-2.9-1.28-1.73-4.35.54-1.42,1.08-2.21.43-4.5a10.36,10.36,0,0,1,.11-6.48c.72-2.73-.76-3.25-1.08-5.54a2,2,0,0,1,2.05-2.37l.77,0A2,2,0,0,1,45.54,47.62Z"/><path class="cls-4" d="M47.6,92.62c-1.2-1.9-.22-2.61.32-4.35s-1-4.9-1-6.25,1.86-3,1-6.24c-.72-2.56-2.76-3.23-4.81-3.27a4.77,4.77,0,0,0-4.84,3.24c-.89,3.19,1,4.9,1,6.25s-1.52,4.5-1,6.24,1.52,2.45.33,4.35A5.38,5.38,0,0,0,43,100.41h.27C48.62,99.86,48.79,94.52,47.6,92.62Zm-2.06-15c-.33,2.29-1.81,2.81-1.08,5.53a10.35,10.35,0,0,1,.1,6.48A5.39,5.39,0,0,0,45,94.12c.77,1.88-.21,4.39-2.07,4.32-1.21,0-2.9-1.28-1.73-4.35.54-1.42,1.08-2.21.43-4.51a10.36,10.36,0,0,1,.11-6.48c.72-2.72-.76-3.24-1.08-5.53a2,2,0,0,1,2.05-2.37l.77,0A2,2,0,0,1,45.54,77.6Z"/><path class="cls-2" d="M67.25,62.64c-1.2-1.89-.22-2.61.32-4.35s-1-4.9-1-6.24,1.86-3,1-6.25c-.72-2.56-2.76-3.23-4.81-3.27a4.78,4.78,0,0,0-4.84,3.24c-.89,3.2,1,4.91,1,6.25s-1.52,4.51-1,6.24,1.52,2.46.33,4.35a5.39,5.39,0,0,0,4.44,7.83H63C68.27,69.88,68.44,64.54,67.25,62.64Zm-2.06-15c-.33,2.29-1.81,2.81-1.08,5.54a10.35,10.35,0,0,1,.1,6.48,5.37,5.37,0,0,0,.44,4.5c.77,1.89-.2,4.39-2.07,4.32-1.21,0-2.9-1.28-1.73-4.35.54-1.42,1.08-2.21.43-4.5a10.36,10.36,0,0,1,.11-6.48c.73-2.73-.76-3.25-1.08-5.54a2,2,0,0,1,2-2.37l.77,0A2,2,0,0,1,65.19,47.62Z"/><path class="cls-2" d="M67.25,92.62c-1.2-1.9-.22-2.61.32-4.35s-1-4.9-1-6.25,1.86-3,1-6.24c-.72-2.56-2.76-3.23-4.81-3.27a4.77,4.77,0,0,0-4.84,3.24c-.89,3.19,1,4.9,1,6.25s-1.52,4.5-1,6.24,1.52,2.45.33,4.35a5.38,5.38,0,0,0,4.44,7.82H63C68.27,99.86,68.44,94.52,67.25,92.62Zm-2.06-15c-.33,2.29-1.81,2.81-1.08,5.53a10.35,10.35,0,0,1,.1,6.48,5.39,5.39,0,0,0,.44,4.51c.77,1.88-.2,4.39-2.07,4.32-1.21,0-2.9-1.28-1.73-4.35.54-1.42,1.08-2.21.43-4.51a10.36,10.36,0,0,1,.11-6.48c.73-2.72-.76-3.24-1.08-5.53a2,2,0,0,1,2-2.37l.77,0A2,2,0,0,1,65.19,77.6Z"/></g></g></svg>