<svg xmlns="http://www.w3.org/2000/svg" viewBox="0 0 86.04 112.97"><defs><style>.cls-1{fill:none;stroke:#221815;}.cls-2{fill:#21983a;}.cls-3{fill:#d11228;}</style></defs><g id="图层_2" data-name="图层 2"><g id="图层_2-2" data-name="图层 2"><path class="cls-1" d="M85.54,106.73a5.7,5.7,0,0,1-5.66,5.74H6.16A5.7,5.7,0,0,1,.5,106.73V6.24A5.7,5.7,0,0,1,6.16.5H79.88a5.7,5.7,0,0,1,5.66,5.74Z"/><path class="cls-2" d="M28.41,32.67c-1.19-1.9-.22-2.61.32-4.35s-1-4.9-1-6.25,1.86-3.05,1-6.24C28,13.27,26,12.6,23.92,12.56a4.75,4.75,0,0,0-4.83,3.24c-.9,3.19,1,4.9,1,6.24s-1.52,4.51-1,6.25,1.51,2.45.32,4.35a5.38,5.38,0,0,0,4.44,7.82h.27C29.43,39.91,29.6,34.56,28.41,32.67Zm-2.06-15c-.33,2.29-1.81,2.8-1.08,5.53a10.35,10.35,0,0,1,.1,6.48,5.43,5.43,0,0,0,.44,4.51c.77,1.88-.2,4.39-2.07,4.32-1.21-.05-2.9-1.28-1.73-4.35.54-1.42,1.08-2.21.43-4.51a10.36,10.36,0,0,1,.11-6.48c.73-2.73-.76-3.24-1.08-5.53a2,2,0,0,1,2.05-2.38l.77,0A2,2,0,0,1,26.35,17.65Z"/><path class="cls-2" d="M28.41,62.64c-1.19-1.9-.22-2.61.32-4.35s-1-4.9-1-6.24,1.86-3,1-6.25C28,43.24,26,42.57,23.92,42.53a4.77,4.77,0,0,0-4.83,3.24c-.9,3.2,1,4.91,1,6.25s-1.52,4.51-1,6.24,1.51,2.46.32,4.35a5.39,5.39,0,0,0,4.44,7.83h.27C29.43,69.88,29.6,64.54,28.41,62.64Zm-2.06-15c-.33,2.29-1.81,2.81-1.08,5.53a10.38,10.38,0,0,1,.1,6.49,5.41,5.41,0,0,0,.44,4.5c.77,1.89-.2,4.39-2.07,4.32-1.21,0-2.9-1.28-1.73-4.35.54-1.42,1.08-2.21.43-4.5a10.36,10.36,0,0,1,.11-6.48c.73-2.73-.76-3.25-1.08-5.54a2,2,0,0,1,2.05-2.37l.77,0A2,2,0,0,1,26.35,47.62Z"/><path class="cls-2" d="M28.41,92.62c-1.19-1.9-.22-2.61.32-4.35s-1-4.9-1-6.25,1.86-3,1-6.24C28,73.22,26,72.55,23.92,72.51a4.76,4.76,0,0,0-4.83,3.24c-.9,3.19,1,4.9,1,6.24s-1.52,4.51-1,6.25,1.51,2.45.32,4.35a5.38,5.38,0,0,0,4.44,7.82h.27C29.43,99.86,29.6,94.52,28.41,92.62Zm-2.06-15c-.33,2.29-1.81,2.8-1.08,5.53a10.35,10.35,0,0,1,.1,6.48,5.43,5.43,0,0,0,.44,4.51c.77,1.88-.2,4.39-2.07,4.32-1.21,0-2.9-1.28-1.73-4.35.54-1.42,1.08-2.21.43-4.51a10.36,10.36,0,0,1,.11-6.48c.73-2.72-.76-3.24-1.08-5.53a2,2,0,0,1,2.05-2.37l.77,0A2,2,0,0,1,26.35,77.6Z"/><path class="cls-3" d="M47.25,32.67c-1.19-1.9-.22-2.61.32-4.35s-1-4.9-1-6.25,1.87-3.05,1-6.24c-.71-2.56-2.76-3.23-4.81-3.27a4.75,4.75,0,0,0-4.83,3.24c-.9,3.19,1,4.9,1,6.24s-1.52,4.51-1,6.25,1.51,2.45.32,4.35a5.38,5.38,0,0,0,4.44,7.82H43C48.27,39.91,48.44,34.56,47.25,32.67Zm-2.06-15c-.32,2.29-1.81,2.8-1.08,5.53a10.36,10.36,0,0,1,.11,6.48,5.4,5.4,0,0,0,.43,4.51c.77,1.88-.2,4.39-2.06,4.32-1.21-.05-2.91-1.28-1.74-4.35.54-1.42,1.08-2.21.43-4.51a10.36,10.36,0,0,1,.11-6.48c.73-2.73-.76-3.24-1.08-5.53a2,2,0,0,1,2.06-2.38l.76,0A2,2,0,0,1,45.19,17.65Z"/><path class="cls-3" d="M47.25,62.64c-1.19-1.9-.22-2.61.32-4.35s-1-4.9-1-6.24,1.87-3,1-6.25c-.71-2.56-2.76-3.23-4.81-3.27a4.77,4.77,0,0,0-4.83,3.24c-.9,3.2,1,4.91,1,6.25s-1.52,4.51-1,6.24,1.51,2.46.32,4.35a5.39,5.39,0,0,0,4.44,7.83H43C48.27,69.88,48.44,64.54,47.25,62.64Zm-2.06-15c-.32,2.29-1.81,2.81-1.08,5.53a10.39,10.39,0,0,1,.11,6.49,5.38,5.38,0,0,0,.43,4.5c.77,1.89-.2,4.39-2.06,4.32-1.21,0-2.91-1.28-1.74-4.35.54-1.42,1.08-2.21.43-4.5a10.36,10.36,0,0,1,.11-6.48c.73-2.73-.76-3.25-1.08-5.54s2.06-2.37,2.06-2.37l.76,0S45.52,45.33,45.19,47.62Z"/><path class="cls-3" d="M47.25,92.62c-1.19-1.9-.22-2.61.32-4.35s-1-4.9-1-6.25,1.87-3,1-6.24c-.71-2.56-2.76-3.23-4.81-3.27a4.76,4.76,0,0,0-4.83,3.24c-.9,3.19,1,4.9,1,6.24s-1.52,4.51-1,6.25,1.51,2.45.32,4.35a5.38,5.38,0,0,0,4.44,7.82H43C48.27,99.86,48.44,94.52,47.25,92.62Zm-2.06-15c-.32,2.29-1.81,2.8-1.08,5.53a10.36,10.36,0,0,1,.11,6.48,5.4,5.4,0,0,0,.43,4.51c.77,1.88-.2,4.39-2.06,4.32-1.21,0-2.91-1.28-1.74-4.35.54-1.42,1.08-2.21.43-4.51a10.36,10.36,0,0,1,.11-6.48c.73-2.72-.76-3.24-1.08-5.53a2,2,0,0,1,2.06-2.37l.76,0S45.52,75.31,45.19,77.6Z"/><path class="cls-2" d="M66.59,32.67c-1.19-1.9-.21-2.61.33-4.35s-1-4.9-1-6.25,1.87-3.05,1-6.24c-.72-2.56-2.76-3.23-4.81-3.27a4.76,4.76,0,0,0-4.84,3.24c-.89,3.19,1,4.9,1,6.24s-1.52,4.51-1,6.25,1.52,2.45.33,4.35A5.38,5.38,0,0,0,62,40.46h.27C67.62,39.91,67.79,34.56,66.59,32.67Zm-2-15c-.33,2.29-1.81,2.8-1.09,5.53a10.29,10.29,0,0,1,.11,6.48A5.4,5.4,0,0,0,64,34.17c.77,1.88-.21,4.39-2.07,4.32-1.21-.05-2.9-1.28-1.73-4.35.54-1.42,1.08-2.21.43-4.51a10.36,10.36,0,0,1,.11-6.48c.72-2.73-.76-3.24-1.08-5.53a2,2,0,0,1,2.05-2.38l.77,0A2,2,0,0,1,64.54,17.65Z"/><path class="cls-2" d="M66.59,62.64c-1.19-1.9-.21-2.61.33-4.35s-1-4.9-1-6.24,1.87-3,1-6.25c-.72-2.56-2.76-3.23-4.81-3.27a4.78,4.78,0,0,0-4.84,3.24c-.89,3.2,1,4.91,1,6.25s-1.52,4.51-1,6.24,1.52,2.46.33,4.35A5.39,5.39,0,0,0,62,70.44h.27C67.62,69.88,67.79,64.54,66.59,62.64Zm-2-15c-.33,2.29-1.81,2.81-1.09,5.53a10.32,10.32,0,0,1,.11,6.49,5.37,5.37,0,0,0,.44,4.5c.77,1.89-.21,4.39-2.07,4.32-1.21,0-2.9-1.28-1.73-4.35.54-1.42,1.08-2.21.43-4.5a10.36,10.36,0,0,1,.11-6.48c.72-2.73-.76-3.25-1.08-5.54a2,2,0,0,1,2.05-2.37l.77,0A2,2,0,0,1,64.54,47.62Z"/><path class="cls-2" d="M66.59,92.62c-1.19-1.9-.21-2.61.33-4.35s-1-4.9-1-6.25,1.87-3,1-6.24c-.72-2.56-2.76-3.23-4.81-3.27a4.77,4.77,0,0,0-4.84,3.24c-.89,3.19,1,4.9,1,6.24s-1.52,4.51-1,6.25,1.52,2.45.33,4.35A5.38,5.38,0,0,0,62,100.41h.27C67.62,99.86,67.79,94.52,66.59,92.62Zm-2-15c-.33,2.29-1.81,2.8-1.09,5.53a10.29,10.29,0,0,1,.11,6.48A5.4,5.4,0,0,0,64,94.12c.77,1.88-.21,4.39-2.07,4.32-1.21,0-2.9-1.28-1.73-4.35.54-1.42,1.08-2.21.43-4.51a10.36,10.36,0,0,1,.11-6.48c.72-2.72-.76-3.24-1.08-5.53a2,2,0,0,1,2.05-2.37l.77,0A2,2,0,0,1,64.54,77.6Z"/></g></g></svg>