<svg xmlns="http://www.w3.org/2000/svg" viewBox="0 0 86.04 112.97"><defs><style>.cls-1{fill:#21983a;}.cls-2,.cls-3{fill:none;}.cls-3{stroke:#221815;}</style></defs><g id="图层_2" data-name="图层 2"><g id="图层_2-2" data-name="图层 2"><path class="cls-1" d="M67.75,42.68c-1.27-2.86-.23-3.93.35-6.56s-1-7.39-1-9.42,2-4.6,1-9.42c-.77-3.86-2.94-4.87-5.13-4.93-2.72-.08-4.64,2.29-5.16,4.89-1,4.81,1,7.39,1,9.42s-1.61,6.8-1,9.42,1.62,3.7.35,6.56-.92,11,4.73,11.8h.3C68.84,53.6,69,45.54,67.75,42.68ZM65.56,20c-.35,3.45-1.93,4.23-1.15,8.34a21.87,21.87,0,0,1,.11,9.78A11.16,11.16,0,0,0,65,45c.83,2.84-.21,6.62-2.2,6.51-1.29-.07-3.09-1.93-1.85-6.56.58-2.14,1.16-3.34.46-6.79a21.88,21.88,0,0,1,.12-9.78c.77-4.11-.81-4.89-1.16-8.35s2.2-3.58,2.2-3.58l.82.05S65.91,16.57,65.56,20Z"/><path class="cls-2" d="M39.75,25.13c-1.94,2.75-1.29,4.34-4.45,6.85A21,21,0,0,0,29,39.05"/><path class="cls-1" d="M43.15,28.91c-.86,0-3.91,1.79-5.73,4.91A21.09,21.09,0,0,1,31.32,41a10.28,10.28,0,0,0-3,3.25s0,1.47-.09,3.13a13.09,13.09,0,0,1-.65,3.38,10.63,10.63,0,0,0,3.18-4.35c.9-2.92,2.32-3,4.4-4.57s3.92-6.08,5.2-7.56c.52-.6,1.84-1.9,2.51-1.9s2.18,1.23,2.77,1.9c1.28,1.48,3.13,6,5.2,7.56s3.5,1.65,4.4,4.57a10.54,10.54,0,0,0,3.18,4.35,11.63,11.63,0,0,1-.73-3.38c-.05-1.66,0-3.13,0-3.13a10.28,10.28,0,0,0-3-3.25,21.09,21.09,0,0,1-6.1-7.22C46.89,30.85,44,28.91,43.15,28.91Z"/><path class="cls-1" d="M39.58,21.2c-3.73,2.9-3.85,6.36-5.14,7.84-1.11,1.29-4.44,3.32-6.1,5.33a3.92,3.92,0,0,0-.29,1.38c-.06.91-.74,2.71-.86,3.84a3.08,3.08,0,0,0,.25,1.79A13.56,13.56,0,0,0,29,39.05,21,21,0,0,1,35.3,32c3.16-2.51,2.51-4.1,4.45-6.85a3.85,3.85,0,0,1,2.83-1.88,5.25,5.25,0,0,1,2,.41,3.88,3.88,0,0,1,1.67,1.47c1.94,2.75,1.29,4.34,4.45,6.85A21.08,21.08,0,0,1,57,39.05a13.56,13.56,0,0,0,1.6,2.33,4.19,4.19,0,0,0,.13-1.79c-.13-1.13-.91-2.93-1-3.84s0-1.38,0-1.38c-1.66-2-5-4-6.1-5.33-1.29-1.48-1.48-4.66-5.21-7.56C43.4,19.15,41.19,19.83,39.58,21.2Z"/><path class="cls-1" d="M28.23,36.08c.57-2.62-1-7.39-1-9.42s2-4.61,1-9.42c-.52-2.6-2.44-5-5.16-4.89-2.19.06-4.37,1.07-5.13,4.93-1,4.82,1,7.39,1,9.42s-1.62,6.8-1,9.42,1.62,3.7.35,6.56S17.2,53.6,22.85,54.44h.3c5.65-.83,6-8.94,4.73-11.8S27.65,38.7,28.23,36.08ZM25.69,20c-.35,3.46-1.93,4.24-1.16,8.35a21.88,21.88,0,0,1,.12,9.78c-.7,3.45-.12,4.65.46,6.79,1.24,4.63-.56,6.49-1.85,6.56-2,.11-3-3.67-2.2-6.51a11.16,11.16,0,0,0,.46-6.8,21.87,21.87,0,0,1,.11-9.78c.78-4.11-.8-4.89-1.15-8.34s2.19-3.58,2.19-3.58l.82-.05S26,16.52,25.69,20Z"/><path class="cls-1" d="M68.1,76.84c-.58-2.62-1.62-3.69-.35-6.55s1.09-10.93-4.56-11.76h-.3c-5.65.83-6,8.94-4.73,11.8s.23,3.94-.35,6.56,1,7.39,1,9.42-2,4.6-1,9.42c.52,2.59,2.44,5,5.16,4.89,2.19-.06,4.36-1.07,5.13-4.93,1-4.82-1-7.4-1-9.43S68.68,79.47,68.1,76.84ZM63.37,96.52l-.82,0S60,96.45,60.35,93s1.93-4.24,1.16-8.35a21.88,21.88,0,0,1-.12-9.78c.7-3.46.12-4.65-.46-6.79-1.24-4.63.56-6.49,1.85-6.56,2-.11,3,3.67,2.2,6.51a11.15,11.15,0,0,0-.46,6.8,21.87,21.87,0,0,1-.11,9.78c-.78,4.11.8,4.88,1.15,8.34S63.37,96.52,63.37,96.52Z"/><path class="cls-2" d="M39.75,87.84c-1.94-2.75-1.29-4.35-4.45-6.85A21,21,0,0,1,29,73.92"/><path class="cls-1" d="M48.62,79.15a21.09,21.09,0,0,1,6.1-7.22,10.19,10.19,0,0,0,3-3.26s0-1.46,0-3.12a11.63,11.63,0,0,1,.73-3.38,10.54,10.54,0,0,0-3.18,4.35c-.9,2.92-2.32,3-4.4,4.57s-3.92,6.08-5.2,7.56c-.59.67-2.1,1.89-2.77,1.89s-2-1.29-2.51-1.89c-1.28-1.48-3.13-6-5.2-7.56s-3.5-1.65-4.4-4.57a10.63,10.63,0,0,0-3.18-4.35,13.09,13.09,0,0,1,.65,3.38c.05,1.66.09,3.12.09,3.12a10.19,10.19,0,0,0,3,3.26,21.09,21.09,0,0,1,6.1,7.22c1.82,3.12,4.87,4.91,5.73,4.91S46.89,82.12,48.62,79.15Z"/><path class="cls-1" d="M46.39,91.49c3.73-2.91,3.92-6.08,5.21-7.56,1.11-1.29,4.44-3.32,6.1-5.34,0,0,0-.45,0-1.37s.85-2.71,1-3.85a4.22,4.22,0,0,0-.13-1.79A14.11,14.11,0,0,0,57,73.92,21.08,21.08,0,0,1,50.74,81c-3.16,2.5-2.51,4.1-4.45,6.85a3.88,3.88,0,0,1-1.67,1.47,5.36,5.36,0,0,1-2,.4,3.8,3.8,0,0,1-2.83-1.87c-1.94-2.75-1.29-4.35-4.45-6.85A21,21,0,0,1,29,73.92a14.11,14.11,0,0,0-1.6-2.34,3.1,3.1,0,0,0-.25,1.79c.12,1.14.8,2.93.86,3.85a3.81,3.81,0,0,0,.29,1.37c1.66,2,5,4,6.1,5.34,1.29,1.48,1.41,4.94,5.14,7.84C41.19,93.14,43.4,93.82,46.39,91.49Z"/><path class="cls-1" d="M27.19,86.31c0-2,1.61-6.8,1-9.42s-1.62-3.7-.35-6.56.92-11-4.73-11.8h-.3c-5.65.83-5.83,8.89-4.56,11.76s.23,3.93-.35,6.55,1,7.4,1,9.42-2,4.61-1,9.43c.76,3.86,2.94,4.87,5.13,4.93,2.72.08,4.64-2.3,5.16-4.89C29.18,90.91,27.19,88.34,27.19,86.31Zm-3.7,10.26-.82,0s-2.54-.12-2.19-3.58,1.93-4.23,1.15-8.34a21.87,21.87,0,0,1-.11-9.78,11.15,11.15,0,0,0-.46-6.8c-.83-2.84.21-6.62,2.2-6.51,1.29.07,3.09,1.93,1.85,6.56-.58,2.14-1.16,3.33-.46,6.79a21.88,21.88,0,0,1-.12,9.78c-.77,4.11.81,4.89,1.16,8.35S23.49,96.57,23.49,96.57Z"/><path class="cls-3" d="M85.54,106.73a5.7,5.7,0,0,1-5.67,5.74H6.16A5.7,5.7,0,0,1,.5,106.73V6.24A5.7,5.7,0,0,1,6.16.5H79.87a5.7,5.7,0,0,1,5.67,5.74Z"/></g></g></svg>