<svg xmlns="http://www.w3.org/2000/svg" viewBox="0 0 86.04 112.97"><defs><style>.cls-1{fill:none;stroke:#221815;}.cls-2{fill:#1f489b;}.cls-3{fill:#d11228;}.cls-4{fill:#21983a;}</style></defs><g id="图层_2" data-name="图层 2"><g id="图层_2-2" data-name="图层 2"><path class="cls-1" d="M85.54,106.73a5.7,5.7,0,0,1-5.66,5.74H6.16A5.7,5.7,0,0,1,.5,106.73V6.24A5.7,5.7,0,0,1,6.16.5H79.88a5.7,5.7,0,0,1,5.66,5.74Z"/><path class="cls-2" d="M24.46,16.75a10.6,10.6,0,1,0,10.59,10.6A10.6,10.6,0,0,0,24.46,16.75Zm0,17.71a7.12,7.12,0,1,1,7.11-7.11A7.11,7.11,0,0,1,24.46,34.46Z"/><path class="cls-2" d="M24.46,22.22a5.13,5.13,0,1,0,5.12,5.13A5.13,5.13,0,0,0,24.46,22.22Zm0,8.42a3.3,3.3,0,1,1,3.29-3.29A3.29,3.29,0,0,1,24.46,30.64Z"/><path class="cls-2" d="M24.46,25.93A1.42,1.42,0,1,1,23,27.35,1.42,1.42,0,0,1,24.46,25.93Z"/><path class="cls-2" d="M43.08,16.75a10.6,10.6,0,1,0,10.59,10.6A10.6,10.6,0,0,0,43.08,16.75Zm0,17.71a7.12,7.12,0,1,1,7.12-7.11A7.11,7.11,0,0,1,43.08,34.46Z"/><path class="cls-2" d="M43.08,22.22a5.13,5.13,0,1,0,5.13,5.13A5.12,5.12,0,0,0,43.08,22.22Zm0,8.42a3.3,3.3,0,1,1,3.29-3.29A3.29,3.29,0,0,1,43.08,30.64Z"/><path class="cls-2" d="M43.08,25.93a1.42,1.42,0,1,1-1.42,1.42A1.41,1.41,0,0,1,43.08,25.93Z"/><path class="cls-2" d="M61.58,16.75a10.6,10.6,0,1,0,10.59,10.6A10.6,10.6,0,0,0,61.58,16.75Zm0,17.71a7.12,7.12,0,1,1,7.12-7.11A7.11,7.11,0,0,1,61.58,34.46Z"/><path class="cls-2" d="M61.58,22.22a5.13,5.13,0,1,0,5.13,5.13A5.12,5.12,0,0,0,61.58,22.22Zm0,8.42a3.3,3.3,0,1,1,3.29-3.29A3.29,3.29,0,0,1,61.58,30.64Z"/><path class="cls-2" d="M61.58,25.93a1.42,1.42,0,1,1-1.42,1.42A1.41,1.41,0,0,1,61.58,25.93Z"/><path class="cls-3" d="M24.46,45.2A10.6,10.6,0,1,0,35.05,55.79,10.59,10.59,0,0,0,24.46,45.2Zm0,17.71a7.12,7.12,0,1,1,7.11-7.12A7.12,7.12,0,0,1,24.46,62.91Z"/><path class="cls-3" d="M24.46,50.67a5.13,5.13,0,1,0,5.12,5.12A5.13,5.13,0,0,0,24.46,50.67Zm0,8.41a3.29,3.29,0,1,1,3.29-3.29A3.29,3.29,0,0,1,24.46,59.08Z"/><path class="cls-3" d="M24.46,54.37A1.42,1.42,0,1,1,23,55.79,1.43,1.43,0,0,1,24.46,54.37Z"/><path class="cls-3" d="M43.08,45.2A10.6,10.6,0,1,0,53.67,55.79,10.59,10.59,0,0,0,43.08,45.2Zm0,17.71a7.12,7.12,0,1,1,7.12-7.12A7.11,7.11,0,0,1,43.08,62.91Z"/><path class="cls-3" d="M43.08,50.67a5.13,5.13,0,1,0,5.13,5.12A5.12,5.12,0,0,0,43.08,50.67Zm0,8.41a3.29,3.29,0,1,1,3.29-3.29A3.29,3.29,0,0,1,43.08,59.08Z"/><path class="cls-3" d="M43.08,54.37a1.42,1.42,0,1,1-1.42,1.42A1.42,1.42,0,0,1,43.08,54.37Z"/><path class="cls-3" d="M61.58,45.2A10.6,10.6,0,1,0,72.17,55.79,10.59,10.59,0,0,0,61.58,45.2Zm0,17.71a7.12,7.12,0,1,1,7.12-7.12A7.11,7.11,0,0,1,61.58,62.91Z"/><path class="cls-3" d="M61.58,50.67a5.13,5.13,0,1,0,5.13,5.12A5.12,5.12,0,0,0,61.58,50.67Zm0,8.41a3.29,3.29,0,1,1,3.29-3.29A3.29,3.29,0,0,1,61.58,59.08Z"/><path class="cls-3" d="M61.58,54.37a1.42,1.42,0,1,1-1.42,1.42A1.42,1.42,0,0,1,61.58,54.37Z"/><path class="cls-4" d="M24.46,75A10.6,10.6,0,1,0,35.05,85.62,10.59,10.59,0,0,0,24.46,75Zm0,17.71a7.12,7.12,0,1,1,7.11-7.12A7.12,7.12,0,0,1,24.46,92.74Z"/><path class="cls-4" d="M24.46,80.5a5.13,5.13,0,1,0,5.12,5.12A5.13,5.13,0,0,0,24.46,80.5Zm0,8.41a3.29,3.29,0,1,1,3.29-3.29A3.29,3.29,0,0,1,24.46,88.91Z"/><path class="cls-4" d="M24.46,84.2A1.42,1.42,0,1,1,23,85.62,1.43,1.43,0,0,1,24.46,84.2Z"/><path class="cls-4" d="M43.08,75A10.6,10.6,0,1,0,53.67,85.62,10.59,10.59,0,0,0,43.08,75Zm0,17.71a7.12,7.12,0,1,1,7.12-7.12A7.11,7.11,0,0,1,43.08,92.74Z"/><path class="cls-4" d="M43.08,80.5a5.13,5.13,0,1,0,5.13,5.12A5.12,5.12,0,0,0,43.08,80.5Zm0,8.41a3.29,3.29,0,1,1,3.29-3.29A3.29,3.29,0,0,1,43.08,88.91Z"/><path class="cls-4" d="M43.08,84.2a1.42,1.42,0,1,1-1.42,1.42A1.42,1.42,0,0,1,43.08,84.2Z"/><path class="cls-4" d="M61.58,75A10.6,10.6,0,1,0,72.17,85.62,10.59,10.59,0,0,0,61.58,75Zm0,17.71a7.12,7.12,0,1,1,7.12-7.12A7.11,7.11,0,0,1,61.58,92.74Z"/><path class="cls-4" d="M61.58,80.5a5.13,5.13,0,1,0,5.13,5.12A5.12,5.12,0,0,0,61.58,80.5Zm0,8.41a3.29,3.29,0,1,1,3.29-3.29A3.29,3.29,0,0,1,61.58,88.91Z"/><path class="cls-4" d="M61.58,84.2a1.42,1.42,0,1,1-1.42,1.42A1.42,1.42,0,0,1,61.58,84.2Z"/></g></g></svg>