<svg xmlns="http://www.w3.org/2000/svg" viewBox="0 0 86.04 112.97"><defs><style>.cls-1,.cls-4{fill:none;}.cls-1{stroke:#221815;}.cls-2{fill:#1a449a;}.cls-3{fill:#e51e28;}.cls-4{stroke:#179e4b;stroke-width:2.1px;}</style></defs><g id="图层_2" data-name="图层 2"><g id="图层_2-2" data-name="图层 2"><path class="cls-1" d="M85.54,106.73a5.7,5.7,0,0,1-5.66,5.74H6.16A5.7,5.7,0,0,1,.5,106.73V6.24A5.7,5.7,0,0,1,6.16.5H79.88a5.7,5.7,0,0,1,5.66,5.74Z"/><path class="cls-2" d="M43,27.67A28.82,28.82,0,1,0,71.83,56.48,28.81,28.81,0,0,0,43,27.67Zm0,55A26.15,26.15,0,1,1,69.17,56.48,26.15,26.15,0,0,1,43,82.63Z"/><path class="cls-3" d="M43,44.26A12.22,12.22,0,1,0,55.24,56.48,12.22,12.22,0,0,0,43,44.26ZM43,67A10.55,10.55,0,1,1,53.57,56.48,10.55,10.55,0,0,1,43,67Z"/><path class="cls-3" d="M42.05,48a8.55,8.55,0,0,0-7.57,7.79h7.57Z"/><path class="cls-3" d="M44,48a8.56,8.56,0,0,1,7.57,7.79H44Z"/><path class="cls-3" d="M42.05,65a8.56,8.56,0,0,1-7.57-7.79h7.57Z"/><path class="cls-3" d="M44,65a8.57,8.57,0,0,0,7.57-7.79H44Z"/><path class="cls-4" d="M43,42.38a14.1,14.1,0,1,1-14.1,14.1A14.1,14.1,0,0,1,43,42.38Z"/><path class="cls-4" d="M43,42.38v-6.9a2.76,2.76,0,0,0,1.86-1.36c.54-1.11,1.07-1.54,1.43-1.55a19.71,19.71,0,0,1,3.2.91C50,33.7,49,36.09,51,37l-2.67,6.45"/><path class="cls-4" d="M48.32,43.45,51,37a2.76,2.76,0,0,0,2.24-.54c.92-.83,1.56-1,1.9-.9a20.08,20.08,0,0,1,2.62,2c.4.41-1.31,2.37.16,4L53,46.51"/><path class="cls-4" d="M53,46.51l4.88-4.88a2.78,2.78,0,0,0,2.28.36c1.17-.41,1.84-.34,2.1-.09a20.53,20.53,0,0,1,1.63,2.91c.21.53-2.19,1.5-1.45,3.54L56,51"/><path class="cls-4" d="M56,51l6.41-2.66a2.75,2.75,0,0,0,2,1.2c1.24.07,1.83.39,2,.71a19.73,19.73,0,0,1,.4,3.31c0,.57-2.6.74-2.68,2.9H57.12"/><path class="cls-4" d="M57.12,56.48H64a2.79,2.79,0,0,0,1.36,1.87c1.11.54,1.54,1.06,1.55,1.42A20.09,20.09,0,0,1,66,63c-.23.52-2.61-.49-3.52,1.48l-6.45-2.68"/><path class="cls-4" d="M56.05,61.78l6.41,2.66A2.76,2.76,0,0,0,63,66.68c.83.92,1,1.57.9,1.91a20.92,20.92,0,0,1-2.06,2.62c-.4.4-2.36-1.32-3.94.15L53,66.45"/><path class="cls-4" d="M53,66.45l4.88,4.88a2.78,2.78,0,0,0-.36,2.28c.41,1.17.34,1.84.09,2.11a20.54,20.54,0,0,1-2.91,1.62c-.53.21-1.51-2.19-3.54-1.44l-2.67-6.45"/><path class="cls-4" d="M48.48,69.45l2.65,6.41a2.76,2.76,0,0,0-1.19,2c-.07,1.23-.39,1.83-.71,2a20.83,20.83,0,0,1-3.31.4c-.57,0-.74-2.6-2.9-2.68v-7"/><path class="cls-4" d="M43,70.58v6.91a2.76,2.76,0,0,0-1.87,1.35c-.54,1.11-1.06,1.54-1.42,1.56a20.87,20.87,0,0,1-3.21-.91C36,79.26,37,76.87,35,76l2.67-6.44"/><path class="cls-4" d="M37.71,69.52l-2.65,6.4a2.78,2.78,0,0,0-2.24.55c-.92.82-1.57,1-1.91.9a20.22,20.22,0,0,1-2.62-2.06c-.4-.41,1.32-2.36-.15-4l4.91-4.91"/><path class="cls-4" d="M33.05,66.45l-4.89,4.88A2.75,2.75,0,0,0,25.89,71c-1.17.41-1.85.34-2.11.1a21.11,21.11,0,0,1-1.62-2.91c-.21-.53,2.19-1.51,1.44-3.54L30.05,62"/><path class="cls-4" d="M30.05,62,23.64,64.6a2.75,2.75,0,0,0-2-1.2c-1.23-.06-1.83-.38-2-.71a19.73,19.73,0,0,1-.4-3.31c0-.57,2.6-.74,2.68-2.9h7"/><path class="cls-4" d="M28.92,56.48H22a2.8,2.8,0,0,0-1.35-1.87c-1.12-.53-1.55-1.06-1.56-1.42A20.77,20.77,0,0,1,20,50c.23-.53,2.62.48,3.53-1.48L30,51.18"/><path class="cls-4" d="M30,51.18l-6.4-2.66A2.78,2.78,0,0,0,23,46.28c-.82-.92-1-1.56-.9-1.9a19.56,19.56,0,0,1,2.06-2.62c.41-.4,2.36,1.31,3.95-.16l4.91,4.91"/><path class="cls-4" d="M33.05,46.51l-4.89-4.88a2.77,2.77,0,0,0,.37-2.28c-.41-1.17-.34-1.84-.1-2.1a19.59,19.59,0,0,1,2.91-1.63c.53-.21,1.51,2.19,3.54,1.45l2.67,6.45"/><path class="cls-4" d="M37.55,43.52,34.9,37.11a2.79,2.79,0,0,0,1.2-2c.06-1.24.38-1.83.71-2a19.73,19.73,0,0,1,3.31-.4c.57,0,.74,2.6,2.9,2.68v6.94"/></g></g></svg>