<svg xmlns="http://www.w3.org/2000/svg" viewBox="0 0 86.04 112.97"><defs><style>.cls-1{fill:none;stroke:#221815;}.cls-2{fill:#21983a;}</style></defs><g id="图层_2" data-name="图层 2"><g id="图层_2-2" data-name="图层 2"><path class="cls-1" d="M85.54,106.73a5.7,5.7,0,0,1-5.67,5.74H6.16A5.7,5.7,0,0,1,.5,106.73V6.24A5.7,5.7,0,0,1,6.16.5H79.87a5.7,5.7,0,0,1,5.67,5.74Z"/><path class="cls-2" d="M48,42.83c-1.32-2.88-.24-4,.36-6.6s-1.08-7.44-1.08-9.48,2.07-4.64,1.08-9.48c-.8-3.89-3.06-4.91-5.34-5-2.82-.08-4.82,2.31-5.35,4.92-1,4.85,1.08,7.44,1.08,9.48s-1.68,6.84-1.08,9.48,1.67,3.72.36,6.6-1,11,4.92,11.88h.3C49.12,53.82,49.31,45.71,48,42.83ZM45.71,20c-.36,3.48-2,4.26-1.2,8.4a21.3,21.3,0,0,1,.12,9.84,10.83,10.83,0,0,0,.48,6.84c.85,2.86-.23,6.66-2.29,6.55-1.34-.07-3.22-1.94-1.92-6.6.6-2.16,1.2-3.36.48-6.84a21.17,21.17,0,0,1,.12-9.84c.8-4.14-.84-4.92-1.2-8.4s2.28-3.6,2.28-3.6l.85.05S46.07,16.55,45.71,20Z"/><path class="cls-2" d="M48,88.84c-1.32-2.88-.24-4,.36-6.6s-1.08-7.44-1.08-9.48,2.07-4.64,1.08-9.48c-.8-3.89-3.06-4.91-5.34-5-2.82-.08-4.82,2.31-5.35,4.92-1,4.85,1.08,7.44,1.08,9.48s-1.68,6.84-1.08,9.48,1.67,3.72.36,6.6-1,11,4.92,11.88h.3C49.12,99.83,49.31,91.72,48,88.84ZM45.71,66c-.36,3.48-2,4.26-1.2,8.4a21.3,21.3,0,0,1,.12,9.84,10.83,10.83,0,0,0,.48,6.84c.85,2.85-.23,6.65-2.29,6.55-1.34-.07-3.22-1.94-1.92-6.6.6-2.16,1.2-3.36.48-6.84a21.17,21.17,0,0,1,.12-9.84c.8-4.14-.84-4.92-1.2-8.4s2.28-3.6,2.28-3.6l.85,0S46.07,62.56,45.71,66Z"/></g></g></svg>