<svg xmlns="http://www.w3.org/2000/svg" viewBox="0 0 86.04 112.97"><defs><style>.cls-1{fill:#2926a5;}.cls-2{fill:#d11228;}.cls-3{fill:none;stroke:#221815;}</style></defs><g id="图层_2" data-name="图层 2"><g id="图层_2-2" data-name="图层 2"><path class="cls-1" d="M38.29,12.05c0-1.38,1-1.93,2.9-1.66,1.65.55,2.48,1.52,2.48,2.9-.28,2.2.07,3.17,1,2.89a11,11,0,0,0,4.55-.83q2.49-.82,3.93.42a2.36,2.36,0,0,1,.21,3.31q-5.39,7-1.86,12,4.13,5.18,16.75,2.28c.82-.14,1.37-.07,1.65.2s.14.55,0,1.24c-1.65,4.83-4.76,7.17-9.3,7q-10.35-1.23-13.24-9.09-.62-2.28,0-12c.14-.69-.41-1.1-1.65-1.24-1.93-.14-2.76.42-2.48,1.66a18.83,18.83,0,0,1-7.45,15.71q-9.51,6.41-15.09,1.65c-.56-.55-.76-1-.62-1.24s.62-.69,1.44-.82q17.79-2.28,17.58-15.3.41-3.52-9.93.82c-1.24.55-2.13.62-2.68.21s-.35-1.45.2-2.69C28.09,17,29.88,16,32.09,16.6a10.74,10.74,0,0,0,3.31-.21,8.77,8.77,0,0,1,1.65-.21C38.15,16.6,38.57,15.22,38.29,12.05Z"/><path class="cls-2" d="M46.09,46.65a8.67,8.67,0,0,1,2.13.24,3.16,3.16,0,0,1,1.9.71c.79.16,1.26.48,1.42.95a1.51,1.51,0,0,1,.71,1,1,1,0,0,1,.24.71l-.24.71a10.45,10.45,0,0,1-.71,1.18,5.72,5.72,0,0,1-.71,1.42,2.66,2.66,0,0,0-.24,1.19l.95-.24c.63-.31.79-.39.48-.23A2.58,2.58,0,0,1,53.2,54a2.52,2.52,0,0,1,1.42-.48,4.16,4.16,0,0,1,1.19-.23,2.17,2.17,0,0,1,.94.23c.16,0,.4.16.71.48a3.09,3.09,0,0,1,.72.47l.23.24a4.74,4.74,0,0,1,1.66,1.42v.47H59.6c-.16,0-.87.08-2.14.24a7.57,7.57,0,0,0-2.84.48,8.1,8.1,0,0,0-2.6.47H50.83a6.84,6.84,0,0,1-1.66.24l-.47.47a3.89,3.89,0,0,0-1.19,1.42l-.71.71a6.27,6.27,0,0,1-.71.95,6.24,6.24,0,0,0-1.18,1.66h.71a2.06,2.06,0,0,1,1-.24,8.52,8.52,0,0,1,3.08-.47,24.75,24.75,0,0,1,2.84-.24,5.23,5.23,0,0,1,1.66.24,4.24,4.24,0,0,1,1.18.47l.48.48a3,3,0,0,1,1.42,1.42,6.28,6.28,0,0,1,.71,1.42,2.61,2.61,0,0,1,.24,1.18l-.72,1A8.78,8.78,0,0,0,56,70.58,17.41,17.41,0,0,0,54.62,73a9.2,9.2,0,0,0-1.18,2.14,13.71,13.71,0,0,1-2.37,2.84h-.48l-1.42-1.42-.47.24a1.35,1.35,0,0,0-1,.47,1.81,1.81,0,0,0-.71.24,1.93,1.93,0,0,1-.71.23c-.63,0-1,.16-1.19.48-.15,0-.31.47-.47,1.42a8.67,8.67,0,0,1-.24,2.13l1-.24a10.76,10.76,0,0,1,3.32-.71,15.81,15.81,0,0,1,4.5-.71A34.13,34.13,0,0,1,57,79.83a10.15,10.15,0,0,0,1.9-.24h.23a2.63,2.63,0,0,1,1.19-.24,6.53,6.53,0,0,1,2.61.71l.47.48A3,3,0,0,1,64.81,82l.48.47a1,1,0,0,0,.23.71,1.38,1.38,0,0,1,.24,1l-.24.24c-.16,0-.39.39-.71,1.18a9.19,9.19,0,0,0-1,2.61,3.56,3.56,0,0,1-.47,1.42,5.25,5.25,0,0,0-.47,1.66A22.87,22.87,0,0,1,61.73,94a24.59,24.59,0,0,1-1.42,2.13,2.9,2.9,0,0,0-.48.71,11,11,0,0,1-1.18,1.66,7.73,7.73,0,0,0-.95,1.19l-.71.71-.71.71-.47.24a2.6,2.6,0,0,1-1.43.23l-.71-.94a3.31,3.31,0,0,0-.71-1,3.91,3.91,0,0,1-.71-1,3.67,3.67,0,0,0-.71-1,3.73,3.73,0,0,1-.71-1,8.11,8.11,0,0,0-1.66-1.65h3.08a20.71,20.71,0,0,0,2.37.23,2.77,2.77,0,0,0,1.19-.23H56a2.55,2.55,0,0,0,.71-.48q.48-.7.24-.24a15.13,15.13,0,0,0,.71-1.89,7.18,7.18,0,0,1,.24-1.19c.31-.94.55-1.73.71-2.36.32-1.43.55-2.61.71-3.56a14.76,14.76,0,0,0,.24-2.37l-.48-.47H57a32.23,32.23,0,0,0-4,.24,16.09,16.09,0,0,0-3.79.71l.48.47a12.52,12.52,0,0,0,1.42,1.18,8.7,8.7,0,0,1,1.66,1.66,3.07,3.07,0,0,1,.71,1.19c0-.32.08-.16.23.47A4.46,4.46,0,0,1,53.91,90a3.89,3.89,0,0,1-.24,1.19l-.23.23a2.79,2.79,0,0,1-.48.72h-.23a.21.21,0,0,1-.24-.24H52l-.24-.24a13.54,13.54,0,0,1-1.19-1.42l-1.42.24a9.09,9.09,0,0,0-2.84.47,7.69,7.69,0,0,0-3.32,1,34.17,34.17,0,0,0-3.31,1.42l-1,.47-1,.48h-.24a.66.66,0,0,1-.47.23h-.24a1.87,1.87,0,0,0-.71-.23A11.42,11.42,0,0,0,35,93.57a1,1,0,0,1-.24-.71l-.47-.48A3.84,3.84,0,0,1,34,91.2l.47-.48.71.24a1.76,1.76,0,0,1,.71.24h.24a.65.65,0,0,0,.47-.24,1.84,1.84,0,0,1,.72-.24A6,6,0,0,1,39,89.78c.48-.48.79-.71,1-.71a.69.69,0,0,0,.24-.48l.24-.24a8.14,8.14,0,0,0,.23-2.84l-.71.24a4.09,4.09,0,0,0-1.89.71,6.77,6.77,0,0,1-1.43.47l-1.42.71a2.48,2.48,0,0,1-.94.48,17.28,17.28,0,0,0-3.08,1.18l.47,1.42a18.55,18.55,0,0,1,.71,2.85,13.54,13.54,0,0,1,.24,3.31l-.48.48v1l-.71-1c-.16-.16-.39-.4-.71-.71a2.56,2.56,0,0,0-.47-1,1.57,1.57,0,0,0-.71-.71,3.84,3.84,0,0,1-.24-1.19A4.46,4.46,0,0,0,29,92.38a.72.72,0,0,0-.23-.47,9.11,9.11,0,0,0-.48-1.19h-.24a1.86,1.86,0,0,0-.71.24c-.15,0-.47.24-.94.71h-.24a.21.21,0,0,1-.24-.24h-.47l-.24-.23a14.86,14.86,0,0,1-1.18-1.42v-1l.47-.48.47.48H26a1.86,1.86,0,0,1,.71-.24,2.9,2.9,0,0,1,.71-.47.69.69,0,0,0,.48-.24v-.95a2.56,2.56,0,0,1,.23-1.42,1.45,1.45,0,0,1,1-1,10.82,10.82,0,0,1,1.42-.94,1,1,0,0,0,.72-.24c.94-.47,1.81-.95,2.6-1.42a24,24,0,0,1,2.61-1.66l-.48-.24a.75.75,0,0,0-.71-.47,9,9,0,0,1-.71-1,.7.7,0,0,0-.23-.47,5.64,5.64,0,0,1-.72-1.42,3.55,3.55,0,0,0-.47-1.43,3.51,3.51,0,0,1-.47-1.42,18.26,18.26,0,0,0-.71-2.13l-.24-.24a6.28,6.28,0,0,0-.71-1.42,3.84,3.84,0,0,1-.24-1.18,1.36,1.36,0,0,1,.24-1l.24-.24a.75.75,0,0,1,.47-.71h.47l1,1,.24-.24c.16-.16.55-.47,1.18-.95a.72.72,0,0,0,.48-.23,5.89,5.89,0,0,1,2.37-1.43v-.47L36.85,64c-.16-.47-.47-1.34-1-2.61h-.23a5.28,5.28,0,0,0-1.42.71l-1,.48a13.49,13.49,0,0,1-1.19.71,3.76,3.76,0,0,0-1.42.95h-.24a.21.21,0,0,1-.23-.24h-.48l-.47-.24L28.56,63a3.69,3.69,0,0,1-.95-1.42,5.19,5.19,0,0,1-.24-1.66l.48-.47.95.23a3.84,3.84,0,0,1,1.18.24h.71a3.89,3.89,0,0,1,1.19-.24,5.57,5.57,0,0,1,1.89-.47,5.55,5.55,0,0,1,1.66-.71V56.84a8.27,8.27,0,0,0-.24-2.37,5.55,5.55,0,0,0-.71-1.42,4.18,4.18,0,0,0-1.42-1.66v-.47H34a5.23,5.23,0,0,1,1.66.24,1.57,1.57,0,0,1,1.18.47c.32,0,.71.32,1.19.95a6.08,6.08,0,0,1,1.18,1.66,24.56,24.56,0,0,1,1,2.84h.47a2.09,2.09,0,0,1,1-.24A5.35,5.35,0,0,1,44,56.37a2.61,2.61,0,0,1,1.18-.24l.48-.24a.65.65,0,0,0,.24-.47.72.72,0,0,0,.23-.47,5.61,5.61,0,0,0,.71-2.14,2.05,2.05,0,0,1,.24-.94,2.09,2.09,0,0,0,.24-.95A1.36,1.36,0,0,0,47,50a1,1,0,0,1-.24-.71c-.16-.16-.31-.32-.47-.47a4.11,4.11,0,0,0-1.42-1.66v-.48Zm-5,32.7h-.24a5.28,5.28,0,0,0-1.42.71,5.22,5.22,0,0,1-1.42.71,16.05,16.05,0,0,0-1.66,1,13.69,13.69,0,0,0-1.66.71,10,10,0,0,1-1.9.95c-.63.16-.79.24-.47.24a10.36,10.36,0,0,1-1.66.47l-.71.47a5.1,5.1,0,0,0-1.18,1V86l.94.94H30a1.87,1.87,0,0,0,.71-.23,1.81,1.81,0,0,1,.71-.24,3.63,3.63,0,0,1,1.9-.71c-.48,0-.32-.08.47-.24a18.32,18.32,0,0,1,1.9-.71l.94-.47a9.73,9.73,0,0,1,1.19-.48c1.11-.47,2.05-.87,2.84-1.18ZM38.51,66.79a2.52,2.52,0,0,0-1.42.48h-.71a1.93,1.93,0,0,1-.71.23A1.84,1.84,0,0,0,34,68l-.24.47a1,1,0,0,0-.24.71l.24,1a.69.69,0,0,1,.24.47,1,1,0,0,0,.24.72,1,1,0,0,1,.23.71,1.76,1.76,0,0,1,.24.71A6,6,0,0,1,35,74.61a10.5,10.5,0,0,0,.47,2.85h.24a.67.67,0,0,0,.47-.24h.24a1.33,1.33,0,0,1,.95-.47c0-.16.15-.32.47-.48.32,0,.47-.08.47-.24s.16-.39.48-.71c.31-.16.47-.31.47-.47a12,12,0,0,1,1.42-1.66H39.46a2.09,2.09,0,0,1-1-.24H37.33c-.95-.31-1.74-.55-2.37-.71v-.47l.71-.47a3.54,3.54,0,0,1,1.89-1,4,4,0,0,1,1.9-.71,4.9,4.9,0,0,1,1.66-.71v-.48L40.64,68c-.16-.16-.39-.4-.71-.71s-.55-.56-.71-.71Zm6.4-9.71h-.48a12,12,0,0,0-1.42.24,2.91,2.91,0,0,0-1.66.47,1,1,0,0,0-.94.47.21.21,0,0,0-.24.24c0-.16-.08,0-.24.47a.68.68,0,0,0-.23.48,1.76,1.76,0,0,0-.24.71,6.28,6.28,0,0,1-.71,1.42A14.4,14.4,0,0,1,38,63.24a4.88,4.88,0,0,0-.24,1.89L39,64.66a4.12,4.12,0,0,1,1.9-.71,11.42,11.42,0,0,1,1.18-.71,10,10,0,0,1,1.19-1.42c.47-.79.87-1.42,1.18-1.9a8.92,8.92,0,0,0,.48-1.18,9.22,9.22,0,0,1,.47-1.19ZM52,64.66H51.3a10.06,10.06,0,0,0-1.89.24,6.45,6.45,0,0,0-2.37.47,10,10,0,0,0-2.37.48c.16,0-.08.07-.71.23l.47.24a.75.75,0,0,1,.71.47q.24,0,.48.48a1,1,0,0,0,.24.71h.94l.71.47a2.32,2.32,0,0,1,1.19,1v.95l-.24.23c-.16,0-.39.16-.71.48a2.34,2.34,0,0,0-1.18.47,1,1,0,0,0-1,.48c-.16,0-.32.39-.48,1.18a4.4,4.4,0,0,1-.23,1.42h2.37l.47.48a2.9,2.9,0,0,0,.71.47,3,3,0,0,1,.71.47V74.85a3.12,3.12,0,0,1,.24-1.66,6.28,6.28,0,0,0,.71-1.42c.32-.79.71-1.66,1.18-2.61.16-.47.32-1,.48-1.66a2.52,2.52,0,0,0,.47-.94,11.64,11.64,0,0,0,.24-1.43ZM46.57,83.85a4.29,4.29,0,0,0-2.14.71L44,88.35l1.42-.23a18.92,18.92,0,0,1,3.79-.24v-.24a2.34,2.34,0,0,0-.47-1.18c-.16-.63-.48-1.58-1-2.84Z"/><path class="cls-3" d="M85.54,106.73a5.7,5.7,0,0,1-5.67,5.74H6.16A5.7,5.7,0,0,1,.5,106.73V6.24A5.7,5.7,0,0,1,6.16.5H79.87a5.7,5.7,0,0,1,5.67,5.74Z"/></g></g></svg>