<svg xmlns="http://www.w3.org/2000/svg" viewBox="0 0 86.04 112.97"><defs><style>.cls-1{fill:none;stroke:#221815;}.cls-2{fill:#d11228;}.cls-3{fill:#1f489b;}.cls-4{fill:#21983a;}</style></defs><g id="图层_2" data-name="图层 2"><g id="图层_2-2" data-name="图层 2"><path class="cls-1" d="M85.54,106.73a5.7,5.7,0,0,1-5.67,5.74H6.16A5.7,5.7,0,0,1,.5,106.73V6.24A5.7,5.7,0,0,1,6.16.5H79.87a5.7,5.7,0,0,1,5.67,5.74Z"/><path class="cls-2" d="M43,45.75A10.74,10.74,0,1,0,53.75,56.49,10.73,10.73,0,0,0,43,45.75Zm0,17.94a7.21,7.21,0,1,1,7.21-7.2A7.2,7.2,0,0,1,43,63.69Z"/><path class="cls-2" d="M43,51.29a5.2,5.2,0,1,0,5.19,5.19A5.19,5.19,0,0,0,43,51.29Zm0,8.53a3.34,3.34,0,1,1,3.33-3.34A3.34,3.34,0,0,1,43,59.82Z"/><path class="cls-2" d="M43,55.05a1.44,1.44,0,1,1-1.44,1.43A1.44,1.44,0,0,1,43,55.05Z"/><path class="cls-3" d="M56.61,21.84A10.73,10.73,0,1,0,67.34,32.57,10.73,10.73,0,0,0,56.61,21.84Zm0,17.94a7.21,7.21,0,1,1,7.21-7.21A7.21,7.21,0,0,1,56.61,39.78Z"/><path class="cls-3" d="M56.61,27.37a5.2,5.2,0,1,0,5.19,5.2A5.19,5.19,0,0,0,56.61,27.37Zm0,8.53a3.34,3.34,0,1,1,3.33-3.33A3.33,3.33,0,0,1,56.61,35.9Z"/><path class="cls-3" d="M56.61,31.13a1.44,1.44,0,1,1-1.44,1.44A1.44,1.44,0,0,1,56.61,31.13Z"/><path class="cls-3" d="M29.43,69.67A10.73,10.73,0,1,0,40.16,80.4,10.73,10.73,0,0,0,29.43,69.67Zm0,17.94a7.21,7.21,0,1,1,7.2-7.21A7.21,7.21,0,0,1,29.43,87.61Z"/><path class="cls-3" d="M29.43,75.21a5.19,5.19,0,1,0,5.19,5.19A5.19,5.19,0,0,0,29.43,75.21Zm0,8.53a3.34,3.34,0,1,1,3.33-3.34A3.34,3.34,0,0,1,29.43,83.74Z"/><path class="cls-3" d="M29.43,79A1.44,1.44,0,1,1,28,80.4,1.44,1.44,0,0,1,29.43,79Z"/><path class="cls-4" d="M29.43,21.84A10.73,10.73,0,1,0,40.16,32.57,10.72,10.72,0,0,0,29.43,21.84Zm0,17.94a7.21,7.21,0,1,1,7.2-7.21A7.21,7.21,0,0,1,29.43,39.78Z"/><path class="cls-4" d="M29.43,27.37a5.2,5.2,0,1,0,5.19,5.2A5.2,5.2,0,0,0,29.43,27.37Zm0,8.53a3.34,3.34,0,1,1,3.33-3.33A3.33,3.33,0,0,1,29.43,35.9Z"/><path class="cls-4" d="M29.43,31.13A1.44,1.44,0,1,1,28,32.57,1.43,1.43,0,0,1,29.43,31.13Z"/><path class="cls-4" d="M56.61,69.67A10.73,10.73,0,1,0,67.34,80.4,10.74,10.74,0,0,0,56.61,69.67Zm0,17.94a7.21,7.21,0,1,1,7.21-7.21A7.21,7.21,0,0,1,56.61,87.61Z"/><path class="cls-4" d="M56.61,75.21A5.19,5.19,0,1,0,61.8,80.4,5.19,5.19,0,0,0,56.61,75.21Zm0,8.53a3.34,3.34,0,1,1,3.33-3.34A3.34,3.34,0,0,1,56.61,83.74Z"/><path class="cls-4" d="M56.61,79a1.44,1.44,0,1,1-1.44,1.44A1.45,1.45,0,0,1,56.61,79Z"/></g></g></svg>