<svg xmlns="http://www.w3.org/2000/svg" viewBox="0 0 86.04 112.97"><defs><style>.cls-1{fill:none;stroke:#221815;}.cls-2{fill:#1f489b;}.cls-3{fill:#d11228;}.cls-4{fill:#21983a;}</style></defs><g id="图层_2" data-name="图层 2"><g id="图层_2-2" data-name="图层 2"><path class="cls-1" d="M85.54,106.73a5.7,5.7,0,0,1-5.67,5.74H6.16A5.7,5.7,0,0,1,.5,106.73V6.24A5.7,5.7,0,0,1,6.16.5H79.87a5.7,5.7,0,0,1,5.67,5.74Z"/><path class="cls-2" d="M29.39,19.82A12.6,12.6,0,1,0,42,32.41,12.59,12.59,0,0,0,29.39,19.82Zm0,21a8.46,8.46,0,1,1,8.46-8.46A8.46,8.46,0,0,1,29.39,40.87Z"/><path class="cls-2" d="M29.39,26.32a6.1,6.1,0,1,0,6.1,6.09A6.09,6.09,0,0,0,29.39,26.32Zm0,10a3.92,3.92,0,1,1,3.92-3.92A3.92,3.92,0,0,1,29.39,36.33Z"/><path class="cls-2" d="M29.39,30.73a1.69,1.69,0,1,1-1.68,1.68A1.68,1.68,0,0,1,29.39,30.73Z"/><path class="cls-3" d="M42.77,43.56A12.6,12.6,0,1,0,55.36,56.15,12.59,12.59,0,0,0,42.77,43.56Zm0,21a8.46,8.46,0,1,1,8.46-8.46A8.46,8.46,0,0,1,42.77,64.61Z"/><path class="cls-3" d="M42.77,50.06a6.09,6.09,0,1,0,6.09,6.09A6.09,6.09,0,0,0,42.77,50.06Zm0,10a3.91,3.91,0,1,1,3.91-3.91A3.92,3.92,0,0,1,42.77,60.06Z"/><path class="cls-3" d="M42.77,54.46a1.69,1.69,0,1,1-1.69,1.69A1.69,1.69,0,0,1,42.77,54.46Z"/><path class="cls-4" d="M56.64,68a12.6,12.6,0,1,0,12.6,12.6A12.6,12.6,0,0,0,56.64,68Zm0,21.06a8.46,8.46,0,1,1,8.46-8.46A8.46,8.46,0,0,1,56.64,89Z"/><path class="cls-4" d="M56.64,74.46a6.1,6.1,0,1,0,6.1,6.1A6.1,6.1,0,0,0,56.64,74.46Zm0,10a3.92,3.92,0,1,1,3.91-3.91A3.91,3.91,0,0,1,56.64,84.47Z"/><path class="cls-4" d="M56.64,78.87A1.69,1.69,0,1,1,55,80.56,1.69,1.69,0,0,1,56.64,78.87Z"/></g></g></svg>