<svg xmlns="http://www.w3.org/2000/svg" viewBox="0 0 86.04 112.97"><defs><style>.cls-1{fill:none;stroke:#221815;}.cls-2{fill:#d11228;}</style></defs><g id="图层_2" data-name="图层 2"><g id="图层_2-2" data-name="图层 2"><path class="cls-1" d="M85.54,106.73a5.7,5.7,0,0,1-5.66,5.74H6.16A5.7,5.7,0,0,1,.5,106.73V6.24A5.7,5.7,0,0,1,6.16.5H79.88a5.7,5.7,0,0,1,5.66,5.74Z"/><path class="cls-2" d="M41.15,12.23,43,11l-.62.62.31.31a2.43,2.43,0,0,1,.94.32c-.42-.21-.21,0,.63.62a4.66,4.66,0,0,1,2.18,1.25,8.19,8.19,0,0,1,2.19,1.25L49,16.61a6.11,6.11,0,0,1,.31,1.87,2.55,2.55,0,0,1-.31.94,2.43,2.43,0,0,0-.32.94c-.2.42-.62,1.67-1.25,3.75l1.25.63-1.25,2.5,1.88-.31c1.25-.42,1.46-.53.63-.32a10.13,10.13,0,0,1,2.5-.31A19.27,19.27,0,0,1,56.16,26a14.08,14.08,0,0,0,2.5-.31h.94a3.62,3.62,0,0,1,.94-.63.86.86,0,0,0,.62-.31l.63.62.63.32.93.93c.63.42,1.46.94,2.5,1.57a3.81,3.81,0,0,0,.94.62,7.26,7.26,0,0,1,1.57.94A1.91,1.91,0,0,1,69.61,31a.9.9,0,0,1,.31.63,2.33,2.33,0,0,1,.31.94,3.41,3.41,0,0,1,.32,1.56L69.3,35.68a10.5,10.5,0,0,1-2.82,2.5q-1.24.95-3.75,3.13l-1.88,1.88a6.92,6.92,0,0,1-1.56,1.25C58,45.27,57,46,56.16,46.63l.63.94c0,.21.2.52.62.94l1.25,1.87-.31.63a9.18,9.18,0,0,0-.94,1.25c.42-.63.21-.21-.62,1.25h-.94L54,52.88a5.06,5.06,0,0,0-3.13-.62,7.79,7.79,0,0,0-2.81.62l-.31,1.26c-.21.2-.32.83-.32,1.87a12.86,12.86,0,0,0-.31,2.19A14.33,14.33,0,0,0,46.78,62a25.9,25.9,0,0,0-.32,3.44,32.71,32.71,0,0,1-.31,3.76,12.62,12.62,0,0,1-.31,3.44,9.4,9.4,0,0,0-.31,2.81,9.46,9.46,0,0,1-.32,2.82,13.12,13.12,0,0,1-.31,2.19,6.49,6.49,0,0,1-.31,2.5,5.39,5.39,0,0,1-.31,1.56A3.41,3.41,0,0,1,44,86a.9.9,0,0,1-.31.63A2.56,2.56,0,0,1,43,88.54l-.62-1.25c-.21-.84-.52-2.3-.94-4.38A8.38,8.38,0,0,0,41.15,81a7.23,7.23,0,0,0-.31-2.19,9.06,9.06,0,0,1-.32-3.13V71.34a28.7,28.7,0,0,0-.31-4.07,35.52,35.52,0,0,1-.31-5V54.76l-.94.31a7.12,7.12,0,0,0-2.5.63,2.72,2.72,0,0,0-1.25.31h-.94a2.37,2.37,0,0,0-.94-.31c-.63-.42-1.77-1.15-3.44-2.19V56a11,11,0,0,1-.31,3.13l-.32.31a3.63,3.63,0,0,1-.62.94l-2.5-2.5A18.17,18.17,0,0,1,24.57,56,12.88,12.88,0,0,1,23,54.14a3,3,0,0,0-.63-1.57,1.82,1.82,0,0,1-.62-1.25,24.49,24.49,0,0,0-.94-3.75,8.14,8.14,0,0,1-.31-2.51,6.81,6.81,0,0,0-.32-2.18A8.38,8.38,0,0,0,19.88,41a5.88,5.88,0,0,0-.31-1.88,2.55,2.55,0,0,0-.31-.94,1.81,1.81,0,0,0-.32-1.25,12.52,12.52,0,0,1-.31-3.44l.94.63A4,4,0,0,1,21.45,36l.93.93a8.56,8.56,0,0,0,.94,1.25,7.57,7.57,0,0,1,2.19,3.45l.31-1.26a6.82,6.82,0,0,1,2.51-3.44c1.66-1.45,2.91-2.5,3.75-3.12,1-.63,2-1.15,2.81-1.57a7.17,7.17,0,0,1,1.88-.94,2.15,2.15,0,0,1,1.56-.62,15.24,15.24,0,0,1,1.57-.94,3.63,3.63,0,0,0,.62-.94.9.9,0,0,1,.32-.62,9.87,9.87,0,0,0,.31-2.82,11,11,0,0,1,.31-3.13,9,9,0,0,0,.31-2.18,5.88,5.88,0,0,0-.31-1.88.9.9,0,0,0-.31-.63A12.53,12.53,0,0,0,40.52,16l-.31,1.25a2.47,2.47,0,0,0-.31,1.56,8.63,8.63,0,0,0-.32,1.88,7.23,7.23,0,0,0-.31,2.19v4.38L39,24.74a45.57,45.57,0,0,1-.31-5,12.19,12.19,0,0,1,.62-4.38l-.62-1.25.31-.62c0-.42.94-1.25,2.81-2.5Zm-.63,25-.94.31a7.14,7.14,0,0,0-2.81.94q-2.19.63-5.63,1.87l-.63.94a16.3,16.3,0,0,1-.93,2.19,1.81,1.81,0,0,0-.32,1.25A5.13,5.13,0,0,0,29,46.32a9,9,0,0,0-.31,2.19,4.88,4.88,0,0,0,.62,1.87l1.88-1.25h1.25V47.88h2.5a17.42,17.42,0,0,0,5.63-1.25Zm16.27-8.13-.63,1.25L52.41,31l-.63-.62-.31.31a.9.9,0,0,0-.63.31.88.88,0,0,1-.62.31,7.78,7.78,0,0,0-2.82,1.57v2.5a12.57,12.57,0,0,1-.31,3.44,3.87,3.87,0,0,0,0,2.19,2.37,2.37,0,0,0,.31.94q.32,1.25.63,2.19l1.56-1.25,1.25-1.25A20.45,20.45,0,0,0,53,39.75l-.62-.63.93-.62.94-.94.63-.31a3.39,3.39,0,0,0,.62-.94,3.62,3.62,0,0,1,.63-.94l1.25-.63-.62-1.25.93-.93a10.24,10.24,0,0,0,1.57-2.82Z"/></g></g></svg>