<svg xmlns="http://www.w3.org/2000/svg" viewBox="0 0 86.04 112.97"><defs><style>.cls-1{fill:none;stroke:#221815;}.cls-2{fill:#2926a5;}.cls-3{fill:#21983a;}.cls-4{fill:#d11228;}</style></defs><g id="图层_2" data-name="图层 2"><g id="图层_2-2" data-name="图层 2"><path class="cls-1" d="M85.54,106.73a5.7,5.7,0,0,1-5.66,5.74H6.16A5.7,5.7,0,0,1,.5,106.73V6.24A5.7,5.7,0,0,1,6.16.5H79.88a5.7,5.7,0,0,1,5.66,5.74Z"/><path class="cls-2" d="M38.89,40.77a2.08,2.08,0,0,1,2-.36c1,.45,1.89,9.18,2.07,11.52l-.81-.45A75.6,75.6,0,0,1,38.89,40.77Z"/><path class="cls-2" d="M37.09,42.3s-.09-1.08.45-1.08,1.53.27,2.25,4.77a26,26,0,0,1,.27,7.38s-.63.36-1.17-1.62S37.09,42.3,37.09,42.3Z"/><path class="cls-2" d="M35.65,41.76c.4-.22,1.35,1.17,1.53,3s.45,8.46,0,9.45-1.53-.63-1.53-2S34.66,42.3,35.65,41.76Z"/><path class="cls-2" d="M32.5,41.85s.18-1.17,1-1.17.9,1.17.9,2,.36,11.16-.09,12.06S33,52.11,32.77,50.49,32.41,42.93,32.5,41.85Z"/><path class="cls-2" d="M30.34,41.94s1.26-1.8,2-.45-.63,11.61-.63,12.42S29.44,52.11,30.34,41.94Z"/><path class="cls-2" d="M28.27,40.59c.18-1.52,1.62-1.44,1.71-.63A69.35,69.35,0,0,1,28.54,50C28,51.75,27.64,45.9,28.27,40.59Z"/><path class="cls-2" d="M30.7,30.78a4.36,4.36,0,0,0,1.53,6.12c1.08.36,4.55.8,5-3.33C37.69,28.38,31.87,28.55,30.7,30.78Zm4.14,3.51a1.74,1.74,0,0,1-2.79-1.89,1.56,1.56,0,0,1,2.25-.9A1.79,1.79,0,0,1,34.84,34.29Z"/><path class="cls-2" d="M57.44,47.34c11.64-1.28,15.7-4.27,15.77-4.33A2.27,2.27,0,0,0,74,40.86,38.33,38.33,0,0,1,67.59,43a24.57,24.57,0,0,1-6.06.26l-6.73-5,3.28-1.94a3.66,3.66,0,0,0,1.31-2.14c.53-3.22-.09-4.54.33-5.44s3.59-3.7,4.19-4.42c.3-.36.27-2.28.87-3.79a7.56,7.56,0,0,1,1.82-2.54l2.83-2.34s-4-.21-4.68-.09S63,17,62.17,18.73s-1,4.37-1.64,5.09A17.33,17.33,0,0,1,57.3,26.2c-1.51,1-3,2-3,2a9.38,9.38,0,0,0-3.61,1.83,20.55,20.55,0,0,0-2.44,2.71,17.61,17.61,0,0,0-2.51.82c-1.22.59-1.8,1.23-2.12,1.2-.54-.06-.23-3-1.83-5.87a14,14,0,0,0-3.91-4.21,4.1,4.1,0,0,0-3.53.23c-.9.56-.2,2.06-.2,2.06s7.06.33,8.29,12.79a11.33,11.33,0,0,0,5.55,8.6s-6.17,6.89-9.48,7.86c-2.64.78-5.86,0-9-1.33s-3.72-9.17-2.34-13.07c.61-1.72,0-3.1,2-7.87s-1.28-6.62-1.28-6.62a5.34,5.34,0,0,0-2.19.14c-.6.3-.35,1.34-.35,1.34s1.92,1.42,1.92,2.45-2.06,5.3-2.95,11.19c-1.6,10.68,2.22,12.92,2.22,12.92A6.71,6.71,0,0,0,25,57.84a15.31,15.31,0,0,0-.19,4.62s-5.71.45-8.31-2.27c-3.3-3.43-2.41-10.48-3.57-10.48s-1.63,9.31,1,12.17a11.49,11.49,0,0,0,11.31,3.75s-5.47,9-4.63,15.69c1.3,10.38,6.71,14.55,6.71,14.55s1.79,0,1.08-1C21,83.84,25,77.22,25,77.22s4.31-2,6.16-4.82a11.59,11.59,0,0,0,1.4-6s6.12,5.54,10,6.19c4.73.79,11.45-2.23,11.45-2.23s-.44-1.15-1.37-1.15-8.14.72-10.37.14-7.85-6.91-7.85-6.91l-.07-2.88a15.14,15.14,0,0,0,4-.43,17.4,17.4,0,0,0,2.69-1s6.52,3,14,11.24c6.52,7.17,13.32,19.08,15.61,27.12.55,1.93,2.1,1.41,2,.46C70.76,81.61,61.21,68.11,59.82,64.82S50,47.45,50,47.45A52.19,52.19,0,0,0,57.44,47.34ZM27.7,56.7a6.26,6.26,0,0,0,2.08,1.08s.36,2.73-.65,3.6a7.73,7.73,0,0,1-2.51.29S26.62,58.21,27.7,56.7Zm1.22,13.75A34.63,34.63,0,0,1,24,74.7s1.73-6.48,4-8.79a5.2,5.2,0,0,0,2.24-.36S30.07,68.94,28.92,70.45Zm3.89-8.57a4.21,4.21,0,0,1-1.88-.07,8.1,8.1,0,0,0,.8-3.17,1.33,1.33,0,0,0,1.15.43S32.52,61.45,32.81,61.88ZM54.19,45.47,50,40.86l.94-.43,4.75,4.68Zm5.9-.87L58,45l-6-5.32.94-.63s.78.68,1.49,1.25C57,42.39,60.09,44.6,60.09,44.6ZM54.42,30.1a2.64,2.64,0,0,1,3.25,2.24c.13,1.57-4.16,4.58-4.16,4.58L50,33.76A43.87,43.87,0,0,1,54.42,30.1ZM44.11,36.36s1.08-.49,2-.77a6.89,6.89,0,0,0,1.89-1l.68,1a5.15,5.15,0,0,1-1.42,1,30.14,30.14,0,0,1-3,1.19Zm.48,3.27a34.23,34.23,0,0,0,3.85-1.86c1.24-.75,1.45-1.23,1.45-1.23l1.23,1c-.51.65-5.81,3.79-5.81,3.79Zm13.2,26.21-5.28-2.06a9.12,9.12,0,0,0-3.46-2.67,40.28,40.28,0,0,0,5,.63l-.8-1s-5.54-1.08-9-3.46c0,0,.36-.36,1.8,0s7.13,2.38,7.13,2.38l-.86-1.73-4-1.35c-1.65-.56-4.17-1.46-4.17-1.46L46,54l4.83,2.23V55l-3.94-2.42,1.8-2S56.47,63.08,57.79,65.84ZM47.85,45.25c-.79-.22-2.28-2.6-2.28-2.6l2.72-1.29,3.76,4.39S48.65,45.47,47.85,45.25Z"/><path class="cls-3" d="M52.68,69.23c-.94,0-8.14.72-10.37.14s-7.85-6.91-7.85-6.91c-.5.29-1.65-.58-1.65-.58a4.21,4.21,0,0,1-1.88-.07l-1.8-.43a4.74,4.74,0,0,1-2.16.36v-1.3a4.49,4.49,0,0,1-2.2-1.08c0,.45-.05.9-.05,1.3a17.21,17.21,0,0,0,.09,1.8s-5.71.45-8.31-2.27c-3.3-3.43-2.41-10.48-3.57-10.48s-1.63,9.31,1,12.17a11.49,11.49,0,0,0,11.31,3.75s-5.47,9-4.63,15.69c1.3,10.38,6.71,14.55,6.71,14.55s1.79,0,1.08-1C21,83.84,25,77.22,25,77.22s4.31-2,6.16-4.82a11.59,11.59,0,0,0,1.4-6s6.12,5.54,10,6.19c4.73.79,11.45-2.23,11.45-2.23S53.61,69.23,52.68,69.23ZM28.92,70.45A34.63,34.63,0,0,1,24,74.7s1.73-6.48,4-8.79a5.2,5.2,0,0,0,2.24-.36S30.07,68.94,28.92,70.45Z"/><path class="cls-4" d="M39.39,17.84a52.83,52.83,0,0,1-6.62-2.09s-2.5-.95-3.5-.44c-1.72.87-2.48,3.43-1.9,4.22S30.27,24,30.27,24a24,24,0,0,1-6.92-2.46,8.87,8.87,0,0,0-4.06-1.17s-.09,1.6,2.21,4c1.81,1.91,3.84,4.52,3.84,4.52a1.07,1.07,0,0,1,.59-1.31,4.65,4.65,0,0,1,1.91-.17l-1.46-1.92s2.63,2.34,3.78,2.34a22.65,22.65,0,0,0,4-.81s-.53-1.28.29-1.94a4.13,4.13,0,0,1,2.86-.54L33,23.85l-.22-2.59,9.13,0s1.61-.75,3.43-1.82,3.59-2.32,3.59-2.32S41.91,18.05,39.39,17.84Z"/><path class="cls-4" d="M72.67,97C70.76,81.61,61.21,68.11,59.82,64.82l-4.75,4.56c6.52,7.17,13.32,19.08,15.61,27.12C71.23,98.43,72.78,97.91,72.67,97Z"/><path class="cls-3" d="M59.39,34.11c.53-3.22-.09-4.54.33-5.44s3.59-3.7,4.19-4.42c.3-.36.27-2.28.87-3.79a7.56,7.56,0,0,1,1.82-2.54l2.83-2.34s-4-.21-4.68-.09S63,17,62.17,18.73s-1,4.37-1.64,5.09A17.33,17.33,0,0,1,57.3,26.2c-1.51,1-3,2-3,2a9.38,9.38,0,0,0-3.61,1.83,20.55,20.55,0,0,0-2.44,2.71l1.77,1a43.87,43.87,0,0,1,4.45-3.66,2.64,2.64,0,0,1,3.25,2.24c.13,1.57-4.16,4.58-4.16,4.58l1.29,1.27,3.28-1.94A3.66,3.66,0,0,0,59.39,34.11Z"/></g></g></svg>