<svg xmlns="http://www.w3.org/2000/svg" viewBox="0 0 86.04 112.97"><defs><style>.cls-1{fill:none;stroke:#221815;}.cls-2{fill:#21983a;}</style></defs><g id="图层_2" data-name="图层 2"><g id="图层_2-2" data-name="图层 2"><path class="cls-1" d="M85.54,106.73a5.7,5.7,0,0,1-5.67,5.74H6.16A5.7,5.7,0,0,1,.5,106.73V6.24A5.7,5.7,0,0,1,6.16.5H79.87a5.7,5.7,0,0,1,5.67,5.74Z"/><path class="cls-2" d="M48.24,42.34c-1.32-2.88-.24-4,.36-6.6s-1.08-7.44-1.08-9.48,2.07-4.63,1.08-9.48c-.8-3.88-3.06-4.9-5.33-5-2.83-.08-4.83,2.31-5.36,4.92-1,4.85,1.08,7.44,1.08,9.48s-1.68,6.84-1.08,9.48,1.68,3.72.36,6.6-1,11,4.92,11.88h.3C49.37,53.33,49.56,45.22,48.24,42.34ZM46,19.54c-.36,3.48-2,4.27-1.2,8.4a21.3,21.3,0,0,1,.12,9.84,10.82,10.82,0,0,0,.48,6.84c.85,2.86-.23,6.66-2.29,6.56-1.34-.07-3.22-2-1.92-6.6.6-2.16,1.2-3.36.48-6.84a21.17,21.17,0,0,1,.12-9.84c.8-4.14-.84-4.92-1.2-8.4s2.28-3.6,2.28-3.6l.85,0S46.32,16.06,46,19.54Z"/><path class="cls-2" d="M28,89.32c-1.32-2.88-.24-4,.36-6.6s-1.08-7.44-1.08-9.48,2.07-4.63,1.08-9.48c-.8-3.89-3.06-4.91-5.34-5-2.82-.08-4.82,2.31-5.36,4.92-1,4.85,1.08,7.44,1.08,9.48S17.05,80,17.65,82.67s1.68,3.72.37,6.6-1,11,4.92,11.88h.3C29.12,100.31,29.31,92.2,28,89.32Zm-2.28-22.8c-.36,3.48-2,4.26-1.2,8.4a21.16,21.16,0,0,1,.11,9.84,10.89,10.89,0,0,0,.49,6.84c.85,2.86-.23,6.66-2.29,6.55-1.34-.07-3.22-1.94-1.93-6.6.6-2.16,1.21-3.36.48-6.84a21.3,21.3,0,0,1,.12-9.84c.81-4.13-.84-4.92-1.2-8.4s2.28-3.6,2.28-3.6l.86.05S26.07,63,25.71,66.52Z"/><path class="cls-2" d="M68,89.32c-1.32-2.88-.24-4,.36-6.6s-1.08-7.44-1.08-9.48,2.07-4.63,1.08-9.48c-.8-3.89-3.06-4.91-5.34-5-2.82-.08-4.82,2.31-5.36,4.92-1,4.85,1.08,7.44,1.08,9.48S57.05,80,57.65,82.67s1.68,3.72.37,6.6-1,11,4.92,11.88h.3C69.12,100.31,69.31,92.2,68,89.32Zm-2.28-22.8c-.36,3.48-2,4.26-1.2,8.4a21.16,21.16,0,0,1,.11,9.84,10.89,10.89,0,0,0,.49,6.84c.85,2.86-.23,6.66-2.29,6.55-1.34-.07-3.22-1.94-1.93-6.6.6-2.16,1.21-3.36.48-6.84a21.3,21.3,0,0,1,.12-9.84c.81-4.13-.84-4.92-1.2-8.4s2.28-3.6,2.28-3.6l.86.05S66.07,63,65.71,66.52Z"/></g></g></svg>