<svg xmlns="http://www.w3.org/2000/svg" viewBox="0 0 86.04 112.97"><defs><style>.cls-1{fill:#21983a;}.cls-2{fill:none;stroke:#221815;}</style></defs><g id="图层_2" data-name="图层 2"><g id="图层_2-2" data-name="图层 2"><path class="cls-1" d="M28.41,42.59c-1.32-2.88-.24-4,.36-6.6s-1.08-7.44-1.08-9.48,2.07-4.63,1.08-9.47c-.8-3.89-3.06-4.91-5.34-5C20.61,12,18.61,14.38,18.08,17c-1,4.85,1.08,7.44,1.08,9.48S17.48,33.31,18.08,36s1.67,3.72.36,6.6-1,11,4.92,11.88h.3C29.54,53.58,29.73,45.47,28.41,42.59Zm-2.28-22.8c-.36,3.48-2,4.27-1.2,8.4A21.3,21.3,0,0,1,25.05,38a10.82,10.82,0,0,0,.48,6.84c.85,2.86-.23,6.66-2.29,6.56-1.34-.07-3.22-2-1.92-6.6.6-2.16,1.2-3.36.48-6.84a21.17,21.17,0,0,1,.12-9.84c.8-4.14-.84-4.92-1.2-8.4S23,16.15,23,16.15l.85.05S26.49,16.31,26.13,19.79Z"/><path class="cls-1" d="M48,42.59c-1.32-2.88-.24-4,.36-6.6s-1.08-7.44-1.08-9.48,2.07-4.63,1.08-9.47c-.8-3.89-3.06-4.91-5.34-5C40.18,12,38.19,14.38,37.66,17c-1,4.85,1.08,7.44,1.08,9.48S37.06,33.31,37.66,36s1.67,3.72.35,6.6-.95,11,4.92,11.88h.31C49.12,53.58,49.31,45.47,48,42.59Zm-2.28-22.8c-.36,3.48-2,4.27-1.2,8.4A21.3,21.3,0,0,1,44.63,38a10.82,10.82,0,0,0,.48,6.84c.85,2.86-.23,6.66-2.29,6.56-1.34-.07-3.22-2-1.92-6.6.6-2.16,1.19-3.36.48-6.84a21.17,21.17,0,0,1,.12-9.84c.8-4.14-.84-4.92-1.2-8.4s2.28-3.6,2.28-3.6l.85.05S46.07,16.31,45.71,19.79Z"/><path class="cls-1" d="M67.57,42.59c-1.32-2.88-.24-4,.36-6.6s-1.08-7.44-1.08-9.48,2.07-4.63,1.08-9.47c-.8-3.89-3.07-4.91-5.34-5C59.76,12,57.77,14.38,57.24,17c-1,4.85,1.08,7.44,1.08,9.48S56.64,33.31,57.24,36s1.68,3.72.35,6.6-1,11,4.92,11.88h.31C68.7,53.58,68.89,45.47,67.57,42.59Zm-2.29-22.8c-.36,3.48-2,4.27-1.19,8.4A21.44,21.44,0,0,1,64.21,38a10.9,10.9,0,0,0,.47,6.84c.86,2.86-.22,6.66-2.28,6.56-1.34-.07-3.22-2-1.92-6.6.6-2.16,1.19-3.36.48-6.84a21.17,21.17,0,0,1,.12-9.84c.8-4.14-.84-4.92-1.2-8.4s2.28-3.6,2.28-3.6l.85.05S65.65,16.31,65.28,19.79Z"/><path class="cls-1" d="M28.41,89.07c-1.32-2.88-.24-4,.36-6.6S27.69,75,27.69,73s2.07-4.63,1.08-9.48c-.8-3.89-3.06-4.91-5.34-5-2.82-.08-4.82,2.32-5.35,4.92-1,4.85,1.08,7.44,1.08,9.48s-1.68,6.84-1.08,9.48,1.67,3.72.36,6.6-1,11,4.92,11.88h.3C29.54,100.06,29.73,92,28.41,89.07Zm-2.28-22.8c-.36,3.48-2,4.26-1.2,8.4a21.3,21.3,0,0,1,.12,9.84,10.83,10.83,0,0,0,.48,6.84c.85,2.86-.23,6.66-2.29,6.55C21.9,97.84,20,96,21.32,91.3c.6-2.16,1.2-3.36.48-6.84a21.17,21.17,0,0,1,.12-9.84c.8-4.13-.84-4.92-1.2-8.4S23,62.62,23,62.62l.85.05S26.49,62.79,26.13,66.27Z"/><path class="cls-1" d="M48,89.07c-1.32-2.88-.24-4,.36-6.6S47.27,75,47.27,73s2.07-4.63,1.08-9.48c-.8-3.89-3.06-4.91-5.34-5-2.83-.08-4.82,2.32-5.35,4.92-1,4.85,1.08,7.44,1.08,9.48s-1.68,6.84-1.08,9.48,1.67,3.72.35,6.6-.95,11,4.92,11.88h.31C49.12,100.06,49.31,92,48,89.07Zm-2.28-22.8c-.36,3.48-2,4.26-1.2,8.4a21.3,21.3,0,0,1,.12,9.84,10.83,10.83,0,0,0,.48,6.84c.85,2.86-.23,6.66-2.29,6.55-1.34-.06-3.22-1.94-1.92-6.6.6-2.16,1.19-3.36.48-6.84a21.17,21.17,0,0,1,.12-9.84c.8-4.13-.84-4.92-1.2-8.4s2.28-3.6,2.28-3.6l.85.05S46.07,62.79,45.71,66.27Z"/><path class="cls-1" d="M67.57,89.07c-1.32-2.88-.24-4,.36-6.6S66.85,75,66.85,73s2.07-4.63,1.08-9.48c-.8-3.89-3.07-4.91-5.34-5-2.83-.08-4.82,2.32-5.35,4.92-1,4.85,1.08,7.44,1.08,9.48s-1.68,6.84-1.08,9.48,1.68,3.72.35,6.6-1,11,4.92,11.88h.31C68.7,100.06,68.89,92,67.57,89.07Zm-2.29-22.8c-.36,3.48-2,4.26-1.19,8.4a21.44,21.44,0,0,1,.12,9.84,10.91,10.91,0,0,0,.47,6.84c.86,2.86-.22,6.66-2.28,6.55-1.34-.06-3.22-1.94-1.92-6.6.6-2.16,1.19-3.36.48-6.84a21.17,21.17,0,0,1,.12-9.84c.8-4.13-.84-4.92-1.2-8.4s2.28-3.6,2.28-3.6l.85.05S65.65,62.79,65.28,66.27Z"/><path class="cls-2" d="M85.54,106.73a5.7,5.7,0,0,1-5.67,5.74H6.16A5.7,5.7,0,0,1,.5,106.73V6.24A5.7,5.7,0,0,1,6.16.5H79.87a5.7,5.7,0,0,1,5.67,5.74Z"/></g></g></svg>