<svg xmlns="http://www.w3.org/2000/svg" viewBox="0 0 86.04 112.97"><defs><style>.cls-1{fill:none;stroke:#221815;}.cls-2{fill:#21983a;}</style></defs><g id="图层_2" data-name="图层 2"><g id="图层_2-2" data-name="图层 2"><path class="cls-1" d="M85.54,106.73a5.7,5.7,0,0,1-5.67,5.74H6.16A5.7,5.7,0,0,1,.5,106.73V6.24A5.7,5.7,0,0,1,6.16.5H79.87a5.7,5.7,0,0,1,5.67,5.74Z"/><path class="cls-2" d="M33.76,42.67c-1.32-2.88-.24-4,.36-6.59S33,28.63,33,26.6s2.07-4.64,1.08-9.48c-.8-3.89-3.06-4.91-5.34-5C26,12.07,24,14.46,23.42,17.07c-1,4.85,1.08,7.44,1.08,9.48S22.83,33.39,23.42,36s1.68,3.72.37,6.6-1,11,4.92,11.88H29C34.89,53.67,35.08,45.55,33.76,42.67Zm-2.28-22.8c-.36,3.49-2,4.27-1.2,8.41a21.3,21.3,0,0,1,.12,9.84A10.83,10.83,0,0,0,30.88,45c.85,2.85-.23,6.65-2.29,6.55-1.34-.07-3.22-1.95-1.93-6.6.6-2.16,1.21-3.36.49-6.84a21.16,21.16,0,0,1,.11-9.84c.81-4.14-.84-4.92-1.19-8.4s2.27-3.6,2.27-3.6l.86.05S31.84,16.4,31.48,19.87Z"/><path class="cls-2" d="M33.76,89c-1.32-2.88-.24-4,.36-6.6S33,75,33,72.91s2.07-4.64,1.08-9.48c-.8-3.89-3.06-4.91-5.34-5C26,58.38,24,60.77,23.42,63.38c-1,4.85,1.08,7.44,1.08,9.48s-1.67,6.84-1.08,9.48,1.68,3.72.37,6.6-1,11,4.92,11.88H29C34.89,100,35.08,91.87,33.76,89Zm-2.28-22.8c-.36,3.48-2,4.26-1.2,8.4a21.3,21.3,0,0,1,.12,9.84,10.83,10.83,0,0,0,.48,6.84c.85,2.86-.23,6.66-2.29,6.55-1.34-.07-3.22-1.94-1.93-6.6.6-2.16,1.21-3.36.49-6.84a21.16,21.16,0,0,1,.11-9.84c.81-4.14-.84-4.92-1.19-8.4s2.27-3.6,2.27-3.6l.86.05S31.84,62.71,31.48,66.19Z"/><path class="cls-2" d="M62.21,42.67c-1.32-2.88-.24-4,.36-6.59s-1.08-7.45-1.08-9.48,2.07-4.64,1.08-9.48c-.79-3.89-3.06-4.91-5.33-5-2.83-.08-4.82,2.31-5.36,4.92-1,4.85,1.08,7.44,1.08,9.48S51.28,33.39,51.88,36s1.68,3.72.36,6.6-1,11,4.92,11.88h.31C63.35,53.67,63.54,45.55,62.21,42.67Zm-2.28-22.8c-.36,3.49-2,4.27-1.2,8.41a21.17,21.17,0,0,1,.12,9.84A10.9,10.9,0,0,0,59.33,45c.86,2.85-.22,6.65-2.28,6.55-1.34-.07-3.22-1.95-1.93-6.6.6-2.16,1.2-3.36.48-6.84a21.3,21.3,0,0,1,.12-9.84c.81-4.14-.84-4.92-1.2-8.4s2.28-3.6,2.28-3.6l.85.05S60.29,16.4,59.93,19.87Z"/><path class="cls-2" d="M62.21,89c-1.32-2.88-.24-4,.36-6.6S61.49,75,61.49,72.91s2.07-4.64,1.08-9.48c-.79-3.89-3.06-4.91-5.33-5-2.83-.08-4.82,2.31-5.36,4.92-1,4.85,1.08,7.44,1.08,9.48s-1.68,6.84-1.08,9.48,1.68,3.72.36,6.6-1,11,4.92,11.88h.31C63.35,100,63.54,91.87,62.21,89Zm-2.28-22.8c-.36,3.48-2,4.26-1.2,8.4a21.17,21.17,0,0,1,.12,9.84,10.9,10.9,0,0,0,.48,6.84c.86,2.86-.22,6.66-2.28,6.55-1.34-.07-3.22-1.94-1.93-6.6.6-2.16,1.2-3.36.48-6.84a21.3,21.3,0,0,1,.12-9.84c.81-4.14-.84-4.92-1.2-8.4s2.28-3.6,2.28-3.6l.85.05S60.29,62.71,59.93,66.19Z"/></g></g></svg>