<svg xmlns="http://www.w3.org/2000/svg" viewBox="0 0 86.04 112.97"><defs><style>.cls-1{fill:#2926a5;}.cls-2{fill:#d11228;}.cls-3{fill:none;stroke:#221815;}</style></defs><g id="图层_2" data-name="图层 2"><g id="图层_2-2" data-name="图层 2"><path class="cls-1" d="M36.88,17.57c.83,0,1.38-.69,1.66-2.07A55.57,55.57,0,0,1,40.6,9.3Q42.06,5.58,45,6.61c2.06.41,2.41,2,1,4.76-.55,1.38-1.1,2.82-1.65,4.34-.28.69.27,1,1.65,1,3.58-.14,6.89-.27,9.93-.41H70c1.1,0,1.24.69.41,2.07Q68.1,24,60.87,22.12A56.14,56.14,0,0,0,53,20.88a59.7,59.7,0,0,0-8.27.2,1.33,1.33,0,0,0-1.24,1.45q0,5.79,1.86,7.65T53,32q6.41,0,10.13-3.51a1.16,1.16,0,0,1,1.45-.21c.41.14.55.55.41,1.24-.13,3.31-1,5.59-2.68,6.83S58,38.25,53.84,38.25Q46,38,41.84,34.94q-4.34-3.11-4.13-12.2c.14-.55-.21-.83-1-.83q-4.12,0-12,3.1-2.89,1.24-3.93-.2-1-1.86,1-4.14,2.48-2.69,5-2.07a2.77,2.77,0,0,0,1.86.21C29.44,18.67,32.19,18.26,36.88,17.57Z"/><path class="cls-2" d="M46.09,46.69a8.67,8.67,0,0,1,2.13.24,3.16,3.16,0,0,1,1.9.71c.79.16,1.26.48,1.42,1a1.51,1.51,0,0,1,.71.95,1,1,0,0,1,.24.71l-.24.71a10.45,10.45,0,0,1-.71,1.18,6,6,0,0,1-.71,1.43,2.58,2.58,0,0,0-.24,1.18l.95-.24c.63-.31.79-.39.48-.23A2.58,2.58,0,0,1,53.2,54a2.51,2.51,0,0,1,1.42-.47,3.89,3.89,0,0,1,1.19-.24,2.05,2.05,0,0,1,.94.24c.16,0,.4.15.71.47a3.09,3.09,0,0,1,.72.47l.23.24a4.74,4.74,0,0,1,1.66,1.42v.48H59.6c-.16,0-.87.08-2.14.23a7.57,7.57,0,0,0-2.84.48,8.1,8.1,0,0,0-2.6.47H50.83a6.84,6.84,0,0,1-1.66.24l-.47.47A3.89,3.89,0,0,0,47.51,60l-.71.71a6.27,6.27,0,0,1-.71.95,6.4,6.4,0,0,0-1.18,1.66h.71a2.06,2.06,0,0,1,1-.24,8.52,8.52,0,0,1,3.08-.47,24.75,24.75,0,0,1,2.84-.24,5.23,5.23,0,0,1,1.66.24,4.24,4.24,0,0,1,1.18.47l.48.48a3,3,0,0,1,1.42,1.42,6.28,6.28,0,0,1,.71,1.42,2.63,2.63,0,0,1,.24,1.19l-.72.94A8.67,8.67,0,0,0,56,70.63,16.26,16.26,0,0,0,54.62,73a9.12,9.12,0,0,0-1.18,2.13A13.71,13.71,0,0,1,51.07,78h-.48l-1.42-1.42-.47.24a1.35,1.35,0,0,0-1,.47,1.81,1.81,0,0,0-.71.24,1.75,1.75,0,0,1-.71.23c-.63,0-1,.16-1.19.48-.15,0-.31.47-.47,1.42a8.67,8.67,0,0,1-.24,2.13l1-.24a10.76,10.76,0,0,1,3.32-.71,15.81,15.81,0,0,1,4.5-.71A36.74,36.74,0,0,1,57,79.87a10.15,10.15,0,0,0,1.9-.24h.23a2.63,2.63,0,0,1,1.19-.24,6.53,6.53,0,0,1,2.61.71l.47.48A3,3,0,0,1,64.81,82l.48.47a.94.94,0,0,0,.23.71,1.38,1.38,0,0,1,.24.95l-.24.24c-.16,0-.39.39-.71,1.18a9.32,9.32,0,0,0-1,2.61,3.51,3.51,0,0,1-.47,1.42,5.25,5.25,0,0,0-.47,1.66,22.87,22.87,0,0,1-1.19,2.84,24.59,24.59,0,0,1-1.42,2.13,2.79,2.79,0,0,0-.48.72,11.6,11.6,0,0,1-1.18,1.65,7.73,7.73,0,0,0-.95,1.19l-.71.71-.71.71-.47.24a2.57,2.57,0,0,1-1.43.24l-.71-1a3.31,3.31,0,0,0-.71-1,3.91,3.91,0,0,1-.71-1,3.67,3.67,0,0,0-.71-.95,3.87,3.87,0,0,1-.71-.94,7.92,7.92,0,0,0-1.66-1.66h3.08a20.71,20.71,0,0,0,2.37.23,2.77,2.77,0,0,0,1.19-.23H56a2.55,2.55,0,0,0,.71-.48c.32-.47.4-.55.24-.23a16.19,16.19,0,0,0,.71-1.9,7,7,0,0,1,.24-1.18c.31-1,.55-1.74.71-2.37.32-1.43.55-2.61.71-3.56a14.65,14.65,0,0,0,.24-2.37l-.48-.47H57A32.23,32.23,0,0,0,53,83a16.09,16.09,0,0,0-3.79.71l.48.47a13.54,13.54,0,0,0,1.42,1.19A8.37,8.37,0,0,1,52.73,87a3.07,3.07,0,0,1,.71,1.19c0-.32.08-.16.23.47a4.46,4.46,0,0,1,.24,1.42,3.84,3.84,0,0,1-.24,1.19l-.23.24a2.9,2.9,0,0,1-.48.71h-.23a.21.21,0,0,1-.24-.24H52l-.24-.24a13.54,13.54,0,0,1-1.19-1.42l-1.42.24a9.09,9.09,0,0,0-2.84.47A7.69,7.69,0,0,0,43,92a34.17,34.17,0,0,0-3.31,1.42l-1,.47-1,.48h-.24a.67.67,0,0,1-.47.24h-.24a1.76,1.76,0,0,0-.71-.24A11.42,11.42,0,0,0,35,93.61a1,1,0,0,1-.24-.71l-.47-.48A3.79,3.79,0,0,1,34,91.24l.47-.48.71.24a1.76,1.76,0,0,1,.71.24h.24a.65.65,0,0,0,.47-.24,1.84,1.84,0,0,1,.72-.24A6.27,6.27,0,0,1,39,89.82c.48-.48.79-.71,1-.71a.69.69,0,0,0,.24-.48l.24-.23a8.27,8.27,0,0,0,.23-2.85l-.71.24A4.09,4.09,0,0,0,38,86.5a6.77,6.77,0,0,1-1.43.47l-1.42.71a2.48,2.48,0,0,1-.94.48,18.08,18.08,0,0,0-3.08,1.18l.47,1.42a18.55,18.55,0,0,1,.71,2.85,13.58,13.58,0,0,1,.24,3.32l-.48.47v.95l-.71-.95c-.16-.16-.39-.4-.71-.71a2.56,2.56,0,0,0-.47-1,1.57,1.57,0,0,0-.71-.71,3.84,3.84,0,0,1-.24-1.19A4.46,4.46,0,0,0,29,92.42.72.72,0,0,0,28.8,92a9.73,9.73,0,0,0-.48-1.19h-.24a1.86,1.86,0,0,0-.71.24c-.15,0-.47.24-.94.71h-.24a.21.21,0,0,1-.24-.23h-.47l-.24-.24a14.86,14.86,0,0,1-1.18-1.42v-.95l.47-.47.47.47H26a1.86,1.86,0,0,1,.71-.24,3.22,3.22,0,0,1,.71-.47.69.69,0,0,0,.48-.24V87a2.56,2.56,0,0,1,.23-1.42,1.45,1.45,0,0,1,1-1,10.82,10.82,0,0,1,1.42-.94,1,1,0,0,0,.72-.24c.94-.47,1.81-1,2.6-1.42a24,24,0,0,1,2.61-1.66l-.48-.24a.75.75,0,0,0-.71-.47,8,8,0,0,1-.71-.95.7.7,0,0,0-.23-.47,5.44,5.44,0,0,1-.72-1.42,3.59,3.59,0,0,0-.47-1.43,3.51,3.51,0,0,1-.47-1.42,18.26,18.26,0,0,0-.71-2.13l-.24-.24a6.49,6.49,0,0,0-.71-1.42A3.84,3.84,0,0,1,30.69,69a1.36,1.36,0,0,1,.24-1l.24-.24a.76.76,0,0,1,.47-.71h.47l1,1,.24-.24c.16-.16.55-.47,1.18-1A.68.68,0,0,0,35,66.6a5.87,5.87,0,0,1,2.37-1.42V64.7L36.85,64c-.16-.47-.47-1.34-1-2.61h-.23a5.14,5.14,0,0,0-1.42.72l-1,.47a11.4,11.4,0,0,1-1.19.71,3.76,3.76,0,0,0-1.42,1h-.24a.21.21,0,0,1-.23-.24h-.48l-.47-.24L28.56,63a3.61,3.61,0,0,1-.95-1.42A5.19,5.19,0,0,1,27.37,60l.48-.47.95.24A4.1,4.1,0,0,1,30,60h.71a4.16,4.16,0,0,1,1.19-.23,5.4,5.4,0,0,1,1.89-.48,5.55,5.55,0,0,1,1.66-.71V56.88a8.27,8.27,0,0,0-.24-2.37,5.71,5.71,0,0,0-.71-1.42,4.25,4.25,0,0,0-1.42-1.66V51H34a5.23,5.23,0,0,1,1.66.24,1.57,1.57,0,0,1,1.18.47c.32,0,.71.32,1.19.95a6.24,6.24,0,0,1,1.18,1.66,24.56,24.56,0,0,1,1,2.84h.47a2.09,2.09,0,0,1,1-.24A5.35,5.35,0,0,1,44,56.41a2.61,2.61,0,0,1,1.18-.24l.48-.24a.65.65,0,0,0,.24-.47.7.7,0,0,0,.23-.47,5.61,5.61,0,0,0,.71-2.14,2.05,2.05,0,0,1,.24-.94,2.09,2.09,0,0,0,.24-.95A1.38,1.38,0,0,0,47,50a1,1,0,0,1-.24-.71l-.47-.47a4.11,4.11,0,0,0-1.42-1.66v-.48Zm-5,32.7h-.24a5.28,5.28,0,0,0-1.42.71,5.22,5.22,0,0,1-1.42.71,16.05,16.05,0,0,0-1.66,1,13.69,13.69,0,0,0-1.66.71,10,10,0,0,1-1.9,1c-.63.16-.79.24-.47.24a10.36,10.36,0,0,1-1.66.47L30,84.6a5.1,5.1,0,0,0-1.18,1V86l.94.94H30a1.71,1.71,0,0,0,.71-.23,1.81,1.81,0,0,1,.71-.24,3.63,3.63,0,0,1,1.9-.71c-.48,0-.32-.08.47-.24a18.32,18.32,0,0,1,1.9-.71l.94-.47a9.73,9.73,0,0,1,1.19-.48l2.84-1.18ZM38.51,66.83a2.52,2.52,0,0,0-1.42.48h-.71a1.81,1.81,0,0,1-.71.24A1.83,1.83,0,0,0,34,68l-.24.47a1,1,0,0,0-.24.71l.24,1a.69.69,0,0,1,.24.48,1,1,0,0,0,.24.71,1,1,0,0,1,.23.71,1.76,1.76,0,0,1,.24.71A6,6,0,0,1,35,74.65a10.5,10.5,0,0,0,.47,2.85h.24a.67.67,0,0,0,.47-.24h.24a1.33,1.33,0,0,1,.95-.47c0-.16.15-.32.47-.48.32,0,.47-.08.47-.23s.16-.4.48-.72c.31-.15.47-.31.47-.47a12,12,0,0,1,1.42-1.66H39.46a2.21,2.21,0,0,1-1-.23H37.33q-1.42-.48-2.37-.72v-.47l.71-.47a3.54,3.54,0,0,1,1.89-1,4.08,4.08,0,0,1,1.9-.71A4.9,4.9,0,0,1,41.12,69v-.48L40.64,68l-.71-.71c-.31-.32-.55-.55-.71-.71Zm6.4-9.71h-.48a12,12,0,0,0-1.42.24,2.91,2.91,0,0,0-1.66.47,1,1,0,0,0-.94.47.21.21,0,0,0-.24.24q0-.24-.24.48a.64.64,0,0,0-.23.47,1.81,1.81,0,0,0-.24.71,6.28,6.28,0,0,1-.71,1.42A13.69,13.69,0,0,1,38,63.28a4.9,4.9,0,0,0-.24,1.9L39,64.7a4.12,4.12,0,0,1,1.9-.71,11.42,11.42,0,0,1,1.18-.71,10,10,0,0,1,1.19-1.42c.47-.79.87-1.42,1.18-1.9a8.92,8.92,0,0,0,.48-1.18,9.22,9.22,0,0,1,.47-1.19ZM52,64.7H51.3a10.06,10.06,0,0,0-1.89.24,6.45,6.45,0,0,0-2.37.47,10,10,0,0,0-2.37.48c.16,0-.08.08-.71.23l.47.24a.75.75,0,0,1,.71.47q.24,0,.48.48a1,1,0,0,0,.24.71h.94l.71.47a2.32,2.32,0,0,1,1.19,1v1l-.24.24c-.16,0-.39.15-.71.47a2.34,2.34,0,0,0-1.18.47,1,1,0,0,0-1,.48c-.16,0-.32.39-.48,1.18a4.35,4.35,0,0,1-.23,1.42h2.37l.47.48a2.9,2.9,0,0,0,.71.47,2.71,2.71,0,0,1,.71.48V74.89a3.12,3.12,0,0,1,.24-1.66,6.28,6.28,0,0,0,.71-1.42c.32-.79.71-1.66,1.18-2.61q.24-.7.48-1.65a2.54,2.54,0,0,0,.47-1,12,12,0,0,0,.24-1.42ZM46.57,83.89a4.29,4.29,0,0,0-2.14.71L44,88.4l1.42-.24a18.92,18.92,0,0,1,3.79-.24v-.24a2.34,2.34,0,0,0-.47-1.18c-.16-.63-.48-1.58-1-2.84Z"/><path class="cls-3" d="M85.54,106.73a5.7,5.7,0,0,1-5.66,5.74H6.16A5.7,5.7,0,0,1,.5,106.73V6.24A5.7,5.7,0,0,1,6.16.5H79.88a5.7,5.7,0,0,1,5.66,5.74Z"/></g></g></svg>