<svg xmlns="http://www.w3.org/2000/svg" viewBox="0 0 86.04 112.97"><defs><style>.cls-1{fill:none;stroke:#221815;}.cls-2{fill:#2926a5;}</style></defs><g id="图层_2" data-name="图层 2"><g id="图层_2-2" data-name="图层 2"><path class="cls-1" d="M85.54,106.73a5.7,5.7,0,0,1-5.67,5.74H6.16A5.7,5.7,0,0,1,.5,106.73V6.24A5.7,5.7,0,0,1,6.16.5H79.87a5.7,5.7,0,0,1,5.67,5.74Z"/><path class="cls-2" d="M42.6,32.36a7.18,7.18,0,0,1,3.15.57,3.58,3.58,0,0,1,2,.57,2.51,2.51,0,0,1,1.72.86,5.81,5.81,0,0,1,2,1.72v1.15l-.57.29a2.17,2.17,0,0,0-.86.28,2.23,2.23,0,0,1-.86.29,6.81,6.81,0,0,0-2.87.86,6.37,6.37,0,0,0-2.86,1.15A25.65,25.65,0,0,0,40,41.82l-.58,1.43a35.83,35.83,0,0,1-1.14,3.44l1.14-.86c.58-.38.77-.48.58-.29a4.42,4.42,0,0,0,1.72-1.43h.57c.38-.19,1,0,1.72.57a7.67,7.67,0,0,1,2,1.44,4.24,4.24,0,0,1,1.14,2,1.68,1.68,0,0,1,.29,1.15,2.23,2.23,0,0,1,.29.86l2.58-.29h3.15a17.6,17.6,0,0,1,2.58.29,6,6,0,0,1,3.15.86,6.27,6.27,0,0,1,2.58,1.14l1.72.86.57.58a16.69,16.69,0,0,1,1.44,1.14c.38,0,.67.48.86,1.44A2.78,2.78,0,0,1,67,57.58l-.29,1.15L65.53,61a6.36,6.36,0,0,0-1.15,2.87,4.9,4.9,0,0,0-.29,2,8.52,8.52,0,0,0-.28,2,8.44,8.44,0,0,1-.29,2,6,6,0,0,1-.29,2.3c-.19,1.14-.47,2.58-.86,4.3-.19,1-.57,2.39-1.14,4.3a2.93,2.93,0,0,1-.58,1.14l.58.58L60.08,84a10.07,10.07,0,0,0-1.15,1.43l-.85.86a18.72,18.72,0,0,1-2,1.72,3.63,3.63,0,0,1-.86.58c-.77.57-1.43,1-2,1.43l-.28-.29-.29-.28A9.06,9.06,0,0,0,51.48,88a13.08,13.08,0,0,1-2-2.58A4.86,4.86,0,0,0,48,84l-.86-.86a8.41,8.41,0,0,0-2.29-1.43,2.78,2.78,0,0,1-1.43-1.15c-.19-.57-.58-1.62-1.15-3.15l.29.28a3.54,3.54,0,0,1,1.72.86,20.16,20.16,0,0,1,2.86,1.44,4.44,4.44,0,0,0,2.3.86c-.58,0-.39.09.57.28H51.2a8.44,8.44,0,0,0,2,.29l.58-.57a7.34,7.34,0,0,1,.86-1.15,1.17,1.17,0,0,0,.28-.86.83.83,0,0,1,.29-.57,6.85,6.85,0,0,0,.86-2.58c.38-1.34.67-2.29.86-2.87a13.74,13.74,0,0,0,.28-1.72,8.44,8.44,0,0,1,.29-2,5,5,0,0,0,.29-2,8,8,0,0,0,.29-1.72A12.27,12.27,0,0,1,58.36,63a4.92,4.92,0,0,1,.29-2,30.24,30.24,0,0,0,.28-3.44,9,9,0,0,0-1.14-3.73h-.86l-1.72-.57A7.42,7.42,0,0,0,50.62,53a12.53,12.53,0,0,0-2.29.29H46.61v.29c-.19,0-.57.57-1.15,1.72a6.12,6.12,0,0,1-1.14,1.43,4.15,4.15,0,0,0-.86,1.15l1.14.57c1,.19,1.53.57,1.72,1.15a1.81,1.81,0,0,1,.86,1.14,4.77,4.77,0,0,1,.29,2.3L46,64.46a15.38,15.38,0,0,0-3.16,3.73h2.3l.57.57a10.07,10.07,0,0,1,1.15,1.43,7.47,7.47,0,0,1,.86,1.72,5,5,0,0,1,.28,2l-1.14.57-1.15-.57L44,75.06h-.57a12.35,12.35,0,0,0-2.87.58l.57,1.72-.28.57a1.66,1.66,0,0,0-.29,1.15,2.54,2.54,0,0,0-.29,1.14,9.78,9.78,0,0,1-.86,2.58,10.26,10.26,0,0,0-.57,3.73l-1.15,1.72L36,87.1,35.72,86a2.23,2.23,0,0,0-.29-.86A1.67,1.67,0,0,0,35.15,84a5.18,5.18,0,0,1-.29-1.72,2.61,2.61,0,0,0-.29-1.15c-.38-.57-.28-1.43.29-2.58l-1.72.58c-.57.19-.77.19-.57,0a7.76,7.76,0,0,1-2.87.57l-.57-.57a17.45,17.45,0,0,0-.86-2c-.19-1.15-.29-1.81-.29-2l1.15-1.72h1.14l.29-.28c.19-.38.67-.58,1.43-.58a5,5,0,0,0,2.3-1.43V68.76l-.58.29a4.94,4.94,0,0,0-2,.85,7.07,7.07,0,0,1-3.16.58l-.57.57-.57-1.72L28,68.19l-.57-.58.28-.86a10.83,10.83,0,0,1,2-2.58L29.13,63a2.23,2.23,0,0,0-.29-.86,2.29,2.29,0,0,1-.29-.86v-.86l-1.14.28a9.7,9.7,0,0,0-2.58,1.15,6.47,6.47,0,0,0-2.3.86,1.69,1.69,0,0,0-1.43.86,6.46,6.46,0,0,0-.86,1.72,1.18,1.18,0,0,0-.29.86,1.7,1.7,0,0,1-.28,1.15,2.67,2.67,0,0,0,0,1.72A3.2,3.2,0,0,1,20,70.48a4.46,4.46,0,0,1-.57,1.72l.29,2.29a12.09,12.09,0,0,0,.28,2,4.9,4.9,0,0,0,.29,2,12.14,12.14,0,0,1,.29,2.87l-1.15,1.15h-.57l-1.15-1.15c-.76-1.34-1.34-2.29-1.72-2.87a6.41,6.41,0,0,0-.86-2.29,8.45,8.45,0,0,1-.29-2,17.6,17.6,0,0,1,.29-2.58,19.3,19.3,0,0,0,.29-3.15,8.77,8.77,0,0,0-.29-2.58,27.15,27.15,0,0,0-.86-3.15,2.59,2.59,0,0,0-.28-1.15,6.07,6.07,0,0,1-.29-2l.57-.58a1.69,1.69,0,0,1,1.44-.86,4.69,4.69,0,0,1,1.43-.28A7.1,7.1,0,0,1,20,59H17.09l.57,1.44a6.33,6.33,0,0,0,1.15,2.29l.57-1.15a11.94,11.94,0,0,1,1.43-1.72,5.06,5.06,0,0,1,2.58-1.43l.29-.57a8,8,0,0,1,.86-1.15c.19-.57,1-1,2.29-1.43V55a7.81,7.81,0,0,1,.58-1.72h1.43l.57-.29a1.84,1.84,0,0,0,.86-1.14,13.89,13.89,0,0,0,1.15-4.3H29.7a4.75,4.75,0,0,0-1.43-.29A13.81,13.81,0,0,0,25.11,47l-.57-.58a2.76,2.76,0,0,0-1.43-1.14l-.86-.86a3.43,3.43,0,0,1-.86-.58,12.41,12.41,0,0,1-2-3.15h1.15a12.22,12.22,0,0,0,2-.29,2.59,2.59,0,0,1,1.15-.28,14.27,14.27,0,0,1,4.87-.58l1.15-.86a.81.81,0,0,0,.57-.28,6.37,6.37,0,0,1,2.3-1.15l.28-2.58a52.42,52.42,0,0,0,.29-5.73,25.75,25.75,0,0,0-.57-6l-1.72.57L29.7,22.9v-.57l.86-.86c.57-.77,1.05-1.15,1.43-1.15a2.23,2.23,0,0,1,.86-.29,4.91,4.91,0,0,1,1.15.29,3.54,3.54,0,0,1,2,.86l1.72.86.58.57a19.93,19.93,0,0,1,2,1.72,4.51,4.51,0,0,1,1.15,1.72,4.91,4.91,0,0,1,.29,1.15l-.58,1.72a7.15,7.15,0,0,0-.57,3.15ZM39.44,55.29a4.86,4.86,0,0,0-2,.86c-1,.38-2.2.86-3.73,1.43l-.28.57c-.39.39-.29,1.44.28,3.16l1.44-.58a3.4,3.4,0,0,1,2.57-.57L38.3,59a15.78,15.78,0,0,0,.86-2,.85.85,0,0,1,.28-.58A12.69,12.69,0,0,1,40,55Zm2.87-7.74h-.57a12.71,12.71,0,0,0-1.72.29,7.7,7.7,0,0,0-1.72.28l-.58.29-.57,1.43a9.51,9.51,0,0,1-.86,2.58l.86-.29h.57a4.8,4.8,0,0,1,1.44-.28,7.06,7.06,0,0,1,2.58-.58Z"/></g></g></svg>