<svg xmlns="http://www.w3.org/2000/svg" viewBox="0 0 86.04 112.97"><defs><style>.cls-1{fill:none;stroke:#221815;}.cls-2{fill:#2926a5;}</style></defs><g id="图层_2" data-name="图层 2"><g id="图层_2-2" data-name="图层 2"><path class="cls-1" d="M85.54,106.73a5.7,5.7,0,0,1-5.67,5.74H6.16A5.7,5.7,0,0,1,.5,106.73V6.24A5.7,5.7,0,0,1,6.16.5H79.87a5.7,5.7,0,0,1,5.67,5.74Z"/><path class="cls-2" d="M39.74,26.77a4.75,4.75,0,0,1,.29,2l1.15-.29a14.77,14.77,0,0,1,1.72-.29,2.54,2.54,0,0,1,1.14.29,2.37,2.37,0,0,1,1.44.86,1.73,1.73,0,0,1,1.14,1.15,1.65,1.65,0,0,1,.29,1.14l-.29.29c-.19,0-.57.29-1.14.86-.19,0-.48.19-.86.57l-1.72.86a10,10,0,0,1-1.44.58c-1.14.57-2.19,1.05-3.15,1.43l-.57,3.44,1.43-.57A5.48,5.48,0,0,1,42,38.24a14.3,14.3,0,0,1,5.73,0,4.69,4.69,0,0,1,1.43.28h.58a4.75,4.75,0,0,1,1.43.29,2.51,2.51,0,0,1,1.72.86,5,5,0,0,1,2,1.72,3.83,3.83,0,0,1,1.43,1.72c.19,0,.28,1,.28,2.87l-.85.86a9.73,9.73,0,0,0-1.72,2.57c-.58,1.15-1.25,2.39-2,3.73-.38.57-.86,1.24-1.43,2a3.24,3.24,0,0,1-.58,1.14l-.86.86a9.52,9.52,0,0,1-1.14,1.44,17,17,0,0,0-2,1.72,6.92,6.92,0,0,0-1.72.86h-.57a2.22,2.22,0,0,1-.86.28l-.29-.28a.81.81,0,0,0-.29-.58,3.36,3.36,0,0,0-.57-.86l-.57-.28a3.24,3.24,0,0,0-1.44-.29,2.21,2.21,0,0,0-2,.57l-.29.58c-.19-.19-.29.95-.29,3.44l1.15.28a6.48,6.48,0,0,1,2,.58l1.14.57a37.67,37.67,0,0,1,4,2,18.33,18.33,0,0,1,4.3,2.29,43.39,43.39,0,0,1,4,1.72c1.15.19,1.34.28.57.28a11.05,11.05,0,0,1,3.44.86,16.32,16.32,0,0,1,4.3,1.15,21.48,21.48,0,0,1,3.15,1.15,2.22,2.22,0,0,0,.86.28,9.43,9.43,0,0,1,2.58,1.44v.57l-.28.29a8.79,8.79,0,0,0-2,.86,22.77,22.77,0,0,0-3.44.86H61.24a12.27,12.27,0,0,1-2.29.28,8.45,8.45,0,0,1-2-.28H55.51a9.7,9.7,0,0,1-2.58-1.15c-.77-.57-1.63-1.15-2.58-1.72a6,6,0,0,1-1.43-1.15,6.34,6.34,0,0,0-1.44-1.14,16.43,16.43,0,0,0-3.15-2.58,10.87,10.87,0,0,0-2-1.43,3.63,3.63,0,0,1-.86-.58,13.46,13.46,0,0,0-3.72-2l-.58.57V78.65a3.86,3.86,0,0,1-.28,2,4.75,4.75,0,0,1-.29,1.43,4.69,4.69,0,0,1-.28,1.43,2.23,2.23,0,0,1-.29.86.85.85,0,0,1-.29.58,14.12,14.12,0,0,1-.86,1.43,2.76,2.76,0,0,1-1.14,1.43h-.58l-.28-.57c-.2,0-.29-.19-.29-.57-.19-.39-.38-.58-.57-.58a8.84,8.84,0,0,1-1.15-1.43,7,7,0,0,0-1.72-2.29A9.54,9.54,0,0,1,28,80.94a3.36,3.36,0,0,1-.86-.57c-.57-1-1.05-1.72-1.43-2.29a6.33,6.33,0,0,0-.86-2,4.75,4.75,0,0,1-.29-1.43l-1.43,1.14a6.4,6.4,0,0,0-2,1.72c-.19.19-.76,1-1.72,2.3h-.57l-.57-.58v-.86a3.2,3.2,0,0,1,.28-1.43c.2-.38.67-1.34,1.44-2.87v1.15l.86-.86.86-.86a9.4,9.4,0,0,1,1.14-1.43,4.53,4.53,0,0,1,.86-1.15,4.27,4.27,0,0,0,.86-1.14c.39-.58.86-1.34,1.44-2.3.38-.57,1.05-1.62,2-3.15-.38.38-.19,0,.58-1.15l-.86.29h-.86a2.61,2.61,0,0,1-1.15.29l-.86-.58a19,19,0,0,0-2-1.72c-.76-1-1.43-1.81-2-2.58a3.07,3.07,0,0,1-.58-1.14c-.19-.38-.47-1-.86-1.72a4,4,0,0,1-.28-1.72,10,10,0,0,0-.58-1.44,19.23,19.23,0,0,1-.28-3.15,12.11,12.11,0,0,1,.28-2.86c.39-1.15.67-2,.86-2.58a3.3,3.3,0,0,1,1.15-1.72A1.67,1.67,0,0,1,22,41.68a7.09,7.09,0,0,1,1.72-.86,16.05,16.05,0,0,1,1.44-1.15l.57-.29.57-.57L28,38l-.28-.29a1.16,1.16,0,0,0-1.15-.57,7.28,7.28,0,0,0-1.72-.86,3.36,3.36,0,0,0-.86-.57l-1.15-1.15v-.57l.29-.29q.28-.57,2-.57a22.48,22.48,0,0,1,3.44-.86A9,9,0,0,1,32,31.07l.28-.57a4.74,4.74,0,0,0,.29-1.44,5.39,5.39,0,0,0-.29-1.71,7.09,7.09,0,0,0-.86-1.72,2.74,2.74,0,0,0-1.14-1.44v-.57l.28-.29a1.16,1.16,0,0,1,1.15-.57,4.69,4.69,0,0,1,1.15-.29,9,9,0,0,1,1.43.29,3.54,3.54,0,0,1,1.72.86.83.83,0,0,0,.57.29c1.15.76,2.1,1.43,2.87,2ZM32.58,38.52h-.29a8.83,8.83,0,0,0-1.43.29,5.14,5.14,0,0,0-2.58.86,10.08,10.08,0,0,0-3.15,1.72h-.29a14.09,14.09,0,0,0-2.58,1.15l-.29.57c-.19,0-.28,1-.28,2.87l.57-.29A6.46,6.46,0,0,1,24,44.83c-.76.38-.48.29.86-.29l1.72-.86a9,9,0,0,0,1.72-.57c.38-.19,1.24-.57,2.58-1.15a9,9,0,0,0,1.72-.57ZM32,46l-.86.28a6.49,6.49,0,0,0-2.3.58H27.42a4.69,4.69,0,0,1-1.43.28,13.31,13.31,0,0,0-2.58.29,2.47,2.47,0,0,0-1.72.86v1.14A17,17,0,0,0,22,52a14.75,14.75,0,0,1,.86,3.16c.39,1.14.67,2,.86,2.58,0,.19.1.28.29.28a1.64,1.64,0,0,0,.57,1.15H25.7a2.23,2.23,0,0,1,.86-.29,7.62,7.62,0,0,0,2-1.14,4.79,4.79,0,0,0,1.72-1.44,7.63,7.63,0,0,1,.86-1.14A4.71,4.71,0,0,0,31.43,54l-2-.29A4.74,4.74,0,0,1,28,53.43a3.19,3.19,0,0,0-1.43-.29L26,52.57a1.16,1.16,0,0,1-.86-.29v-.57l1.14-.58a13.37,13.37,0,0,0,1.44-.86l1.14-.57a14,14,0,0,1,3.73-2V46.55ZM30.86,66.61l-.57.86a7.87,7.87,0,0,0-.86,1.15,4.15,4.15,0,0,0-.86,1.15,23.41,23.41,0,0,0-2.3,2.86c.19-.19,0,.1-.57.86v.29L26,74.92a4.44,4.44,0,0,0,1.14,1.72,3.12,3.12,0,0,0,.86.58l.86.86a3.64,3.64,0,0,1,1.44.86h.57a2.53,2.53,0,0,0,1.15.28l.57-.57V75.5A54.94,54.94,0,0,0,32,67.76ZM47.48,41.68a5.73,5.73,0,0,0-2.29-.29,15.35,15.35,0,0,0-3.15.29,5,5,0,0,0-2.58.86,4.44,4.44,0,0,0-1.72,1.14v2.87h1.43a7.13,7.13,0,0,1,2.29.29c.58-.2,1.25.28,2,1.43v.57L42,50.27a9.94,9.94,0,0,1-2.58,2.3A2.64,2.64,0,0,0,38,54a1.67,1.67,0,0,0-.28,1.15l.86.28a3.14,3.14,0,0,1,1.72.58,3.47,3.47,0,0,1,2,.86l.29-.58a4.51,4.51,0,0,1,1.15-1.72,19.75,19.75,0,0,0,1.72-2.86c.57-1.34,1.05-2.58,1.43-3.73l.86-3.44A10.65,10.65,0,0,0,48.06,42Z"/></g></g></svg>