<?xml version="1.0" standalone="no"?><!DOCTYPE svg PUBLIC "-//W3C//DTD SVG 1.1//EN" "http://www.w3.org/Graphics/SVG/1.1/DTD/svg11.dtd"><svg t="1676875493332" class="icon" viewBox="0 0 1024 1024" version="1.1" xmlns="http://www.w3.org/2000/svg" p-id="10635" xmlns:xlink="http://www.w3.org/1999/xlink" width="200" height="200"><path d="M723.9 418.3c-11.6-11.6-30.5-11.6-42.2 0l-55.6 55.6-55.6-55.6c-11.6-11.6-30.5-11.6-42.2 0-11.6 11.6-11.6 30.5 0 42.2L584 516l-54.6 54.6c-11.6 11.6-11.6 30.5 0 42.2 11.6 11.6 30.5 11.6 42.2 0l54.6-54.6 54.6 54.6c11.6 11.6 30.5 11.6 42.2 0 11.6-11.6 11.6-30.5 0-42.2L668.3 516l55.6-55.6c11.7-11.6 11.7-30.5 0-42.1z m0 0" p-id="10636" fill="#515151"></path><path d="M887.7 226.9H361.1c-7.4-3.1-286.4 263.6-286.4 263.6l-3.8 3.8c-3.3 3.3-5.2 7.5-5.8 12-2.5 8.6-1.1 17.1 4.5 22.7L337 797.1h550.6c39.9 0 72.3-31.5 72.3-70.4V297.3c0.1-38.9-32.3-70.4-72.2-70.4zM908.3 690c0 32.2-29.9 58.4-66.7 58.4H376c-0.2-0.3-0.5-0.5-0.8-0.8L138.1 510.3l234.7-234.7h468.9c36.8 0 66.7 26.1 66.7 58.4v356z m0 0" p-id="10637" fill="#515151"></path></svg>