<svg xmlns="http://www.w3.org/2000/svg" viewBox="0 0 660 660"><defs><style>.cls-1{fill:#64361e;}.cls-2{fill:#186225;}.cls-2,.cls-4{stroke:#000;}.cls-2,.cls-3,.cls-4,.cls-6,.cls-7{stroke-miterlimit:10;}.cls-3,.cls-4,.cls-6{fill:none;}.cls-3,.cls-6,.cls-7{stroke:#fff;}.cls-5{font-size:21px;font-family:STCaiyun;}.cls-5,.cls-7,.cls-8{fill:#fff;}.cls-6,.cls-7{stroke-width:5px;}.cls-8{font-size:10px;font-family:STHupo;}</style></defs><g id="图层_2" data-name="图层 2"><g id="桌面背景"><rect class="cls-1" width="660" height="660" rx="30"/><rect class="cls-2" x="29.5" y="29.5" width="600" height="600"/><rect id="上" class="cls-3" x="160" y="100" width="340" height="30"/><rect id="下" class="cls-3" x="160" y="529" width="340" height="30"/><rect id="右" class="cls-3" x="-55" y="315" width="340" height="30" transform="translate(-215 445) rotate(-90)"/><rect id="左" class="cls-3" x="374" y="315" width="340" height="30" transform="translate(214 874) rotate(-90)"/><rect id="中心骰池" class="cls-4" x="310" y="310" width="40" height="40"/><circle id="中心圆边" class="cls-4" cx="330" cy="330" r="50"/><line class="cls-4" x1="310" y1="350" x2="294.65" y2="365.35"/><line class="cls-4" x1="350" y1="350" x2="365.35" y2="365.35"/><line class="cls-4" x1="310" y1="310" x2="294.65" y2="294.65"/><line class="cls-4" x1="350" y1="310" x2="365.35" y2="294.65"/><text class="cls-5" transform="translate(319.23 371.03) scale(1.03 1)">庄</text><path class="cls-6" d="M412.92,274.09A100,100,0,1,1,290.67,238"/><path class="cls-6" d="M290.67,238A99.67,99.67,0,0,1,330,230l1.87,0"/><polygon class="cls-7" points="398.5 258.31 398.5 283.31 423.5 266.95 398.5 258.31"/><text class="cls-8" transform="translate(561.11 603.41) scale(0.99 1)">By 小马<tspan x="0" y="12">To somebody</tspan></text></g></g></svg>